SplineFontDB: 3.0
FontName: Tienne-Heavy
FullName: Tienne Heavy
FamilyName: Tienne
Weight: Black
Copyright: Copyright (c) 2011 by vernon adams. All rights reserved.
Version: 001.000
ItalicAngle: 0
UnderlinePosition: -103
UnderlineWidth: 102
Ascent: 1638
Descent: 410
sfntRevision: 0x0001076d
LayerCount: 2
Layer: 0 1 "Back"  1
Layer: 1 1 "Fore"  0
XUID: [1021 14 500265001 15158346]
FSType: 0
OS2Version: 3
OS2_WeightWidthSlopeOnly: 0
OS2_UseTypoMetrics: 1
CreationTime: 1311217380
ModificationTime: 1311887925
PfmFamily: 17
TTFWeight: 900
TTFWidth: 5
LineGap: 39
VLineGap: 0
Panose: 2 0 5 5 0 0 0 2 0 4
OS2TypoAscent: -225
OS2TypoAOffset: 1
OS2TypoDescent: -44
OS2TypoDOffset: 1
OS2TypoLinegap: 78
OS2WinAscent: -82
OS2WinAOffset: 1
OS2WinDescent: -21
OS2WinDOffset: 1
HheadAscent: -82
HheadAOffset: 1
HheadDescent: 21
HheadDOffset: 1
OS2SubXSize: 1331
OS2SubYSize: 1229
OS2SubXOff: 0
OS2SubYOff: 154
OS2SupXSize: 1331
OS2SupYSize: 1229
OS2SupXOff: 0
OS2SupYOff: 717
OS2StrikeYSize: 102
OS2StrikeYPos: 512
OS2Vendor: 'newt'
OS2CodePages: 20000001.00000000
OS2UnicodeRanges: 800000ef.4000204b.00000000.00000000
Lookup: 258 0 0 "'kern' Horizontal Kerning lookup 0"  {"'kern' Horizontal Kerning lookup 0 kerning class 0"  "'kern' Horizontal Kerning lookup 0 kerning class 1"  "'kern' Horizontal Kerning lookup 0 kerning class 2"  } ['kern' ('DFLT' <'dflt' > 'grek' <'dflt' > 'latn' <'dflt' > ) ]
MarkAttachClasses: 1
DEI: 91125
KernClass2: 2 3 "'kern' Horizontal Kerning lookup 0 kerning class 0" 
 5 V W Y
 139 c d e o q ccedilla egrave eacute ecircumflex edieresis ograve oacute ocircumflex otilde odieresis oslash oe uni0205 uni0207 uni020D uni020F
 69 a agrave aacute acircumflex atilde adieresis aring ae uni0201 uni0203
 0 {} 0 {} 0 {} 0 {} -158 {} -189 {}
KernClass2: 2 3 "'kern' Horizontal Kerning lookup 0 kerning class 1" 
 1 T

StartChar: exclam
Encoding: 33 33 23
Width: 791
GlyphClass: 2
Flags: W
LayerCount: 2
Fore
SplineSet
405 1412 m 0,0,1
 448 1412 448 1412 487 1410 c 128,-1,2
 526 1408 526 1408 555 1397 c 128,-1,3
 584 1386 584 1386 601.5 1362.5 c 128,-1,4
 619 1339 619 1339 619 1296 c 0,5,6
 619 1289 619 1289 619 1281 c 128,-1,7
 619 1273 619 1273 618 1265 c 0,8,9
 581 975 581 975 556 777.5 c 128,-1,10
 531 580 531 580 518 470 c 1,11,12
 501 460 501 460 477 454 c 128,-1,13
 453 448 453 448 431 448 c 0,14,15
 387 448 387 448 358 451 c 128,-1,16
 329 454 329 454 311 464.5 c 128,-1,17
 293 475 293 475 284 494.5 c 128,-1,18
 275 514 275 514 272 547 c 0,19,20
 255 704 255 704 236 828 c 128,-1,21
 217 952 217 952 201.5 1044 c 128,-1,22
 186 1136 186 1136 176 1199 c 128,-1,23
 166 1262 166 1262 166 1298 c 0,24,25
 166 1340 166 1340 193 1363.5 c 128,-1,26
 220 1387 220 1387 257.5 1397.5 c 128,-1,27
 295 1408 295 1408 336 1410 c 128,-1,28
 377 1412 377 1412 405 1412 c 0,0,1
610 169 m 0,29,30
 610 125 610 125 596 89.5 c 128,-1,31
 582 54 582 54 555.5 29.5 c 128,-1,32
 529 5 529 5 492 -8.5 c 128,-1,33
 455 -22 455 -22 410 -22 c 256,34,35
 365 -22 365 -22 328 -8.5 c 128,-1,36
 291 5 291 5 264.5 29.5 c 128,-1,37
 238 54 238 54 224 89.5 c 128,-1,38
 210 125 210 125 210 169 c 0,39,40
 210 211 210 211 225 246 c 128,-1,41
 240 281 240 281 267 305.5 c 128,-1,42
 294 330 294 330 330.5 343.5 c 128,-1,43
 367 357 367 357 410 357 c 256,44,45
 453 357 453 357 490 342.5 c 128,-1,46
 527 328 527 328 553.5 303 c 128,-1,47
 580 278 580 278 595 243.5 c 128,-1,48
 610 209 610 209 610 169 c 0,29,30
EndSplineSet
EndChar

StartChar: quotedbl
Encoding: 34 34 24
Width: 1009
GlyphClass: 2
Flags: W
LayerCount: 2
Fore
SplineSet
557 1370 m 1,0,1
 625 1411 625 1411 739 1411 c 0,2,3
 773 1411 773 1411 802 1408 c 128,-1,4
 831 1405 831 1405 852.5 1397 c 128,-1,5
 874 1389 874 1389 886.5 1374.5 c 128,-1,6
 899 1360 899 1360 899 1336 c 1,7,8
 875 1124 875 1124 862.5 1013 c 128,-1,9
 850 902 850 902 849 891 c 1,10,11
 789 870 789 870 728 870 c 0,12,13
 616 870 616 870 601 957 c 1,14,-1
 557 1370 l 1,0,1
110 1370 m 1,15,16
 178 1411 178 1411 292 1411 c 0,17,18
 326 1411 326 1411 355 1408 c 128,-1,19
 384 1405 384 1405 405.5 1397 c 128,-1,20
 427 1389 427 1389 439.5 1374.5 c 128,-1,21
 452 1360 452 1360 452 1336 c 1,22,23
 428 1124 428 1124 415.5 1013 c 128,-1,24
 403 902 403 902 402 891 c 1,25,26
 342 870 342 870 281 870 c 0,27,28
 169 870 169 870 154 957 c 1,29,-1
 110 1370 l 1,15,16
EndSplineSet
EndChar

StartChar: numbersign
Encoding: 35 35 25
Width: 1167
GlyphClass: 2
Flags: W
LayerCount: 2
Fore
SplineSet
1048 510 m 2,0,1
 1048 475 1048 475 1036.5 459.5 c 128,-1,2
 1025 444 1025 444 996 438 c 1,3,-1
 811 438 l 1,4,-1
 736 72 l 1,5,-1
 676 72 l 2,6,7
 631 72 631 72 610.5 84 c 128,-1,8
 590 96 590 96 590 129 c 0,9,10
 590 136 590 136 591 145 c 128,-1,11
 592 154 592 154 595 167 c 2,12,-1
 650 438 l 1,13,-1
 406 438 l 1,14,-1
 330 72 l 1,15,-1
 260 72 l 2,16,17
 218 72 218 72 200 80 c 128,-1,18
 182 88 182 88 182 115 c 1,19,20
 183 120 183 120 184 132.5 c 128,-1,21
 185 145 185 145 190 167 c 2,22,-1
 246 438 l 1,23,-1
 46 438 l 1,24,-1
 46 498 l 2,25,26
 46 525 46 525 49 542 c 128,-1,27
 52 559 52 559 61 569.5 c 128,-1,28
 70 580 70 580 85.5 584 c 128,-1,29
 101 588 101 588 127 588 c 2,30,-1
 274 588 l 1,31,-1
 325 834 l 1,32,-1
 119 834 l 1,33,-1
 119 913 l 2,34,35
 119 957 119 957 136.5 971 c 128,-1,36
 154 985 154 985 201 985 c 2,37,-1
 357 985 l 1,38,-1
 432 1345 l 1,39,-1
 493 1345 l 2,40,41
 538 1345 538 1345 559.5 1333.5 c 128,-1,42
 581 1322 581 1322 581 1289 c 0,43,44
 581 1279 581 1279 578.5 1264.5 c 128,-1,45
 576 1250 576 1250 572 1231 c 2,46,-1
 520 985 l 1,47,-1
 761 985 l 1,48,-1
 838 1345 l 1,49,-1
 897 1345 l 2,50,51
 942 1345 942 1345 963 1333.5 c 128,-1,52
 984 1322 984 1322 984 1289 c 0,53,54
 984 1267 984 1267 974 1223 c 2,55,-1
 923 985 l 1,56,-1
 1120 985 l 1,57,-1
 1120 926 l 2,58,59
 1120 902 1120 902 1118.5 885 c 128,-1,60
 1117 868 1117 868 1109.5 856.5 c 128,-1,61
 1102 845 1102 845 1085.5 839.5 c 128,-1,62
 1069 834 1069 834 1039 834 c 2,63,-1
 894 834 l 1,64,-1
 841 588 l 1,65,-1
 1048 588 l 1,66,-1
 1048 510 l 2,0,1
436 588 m 1,67,-1
 680 588 l 1,68,-1
 732 834 l 1,69,-1
 488 834 l 1,70,-1
 436 588 l 1,67,-1
EndSplineSet
EndChar

StartChar: dollar
Encoding: 36 36 26
Width: 1336
GlyphClass: 2
Flags: W
LayerCount: 2
Fore
SplineSet
628 1534 m 1,0,1
 683 1534 683 1534 707 1518.5 c 128,-1,2
 731 1503 731 1503 731 1458 c 2,3,-1
 731 1412 l 1,4,5
 810 1412 810 1412 883 1403 c 128,-1,6
 956 1394 956 1394 1016 1377.5 c 128,-1,7
 1076 1361 1076 1361 1121 1337 c 128,-1,8
 1166 1313 1166 1313 1191 1283 c 0,9,10
 1192 1282 1192 1282 1192 1278 c 0,11,12
 1192 1272 1192 1272 1189 1255.5 c 128,-1,13
 1186 1239 1186 1239 1179 1208 c 128,-1,14
 1172 1177 1172 1177 1160 1128.5 c 128,-1,15
 1148 1080 1148 1080 1129 1010 c 1,16,-1
 826 1082 l 1,17,18
 802 1120 802 1120 778 1155.5 c 128,-1,19
 754 1191 754 1191 731 1208 c 1,20,-1
 731 842 l 1,21,22
 787 819 787 819 834.5 800 c 128,-1,23
 882 781 882 781 926 760.5 c 128,-1,24
 970 740 970 740 1013 715.5 c 128,-1,25
 1056 691 1056 691 1103 658 c 1,26,27
 1132 635 1132 635 1159 610 c 128,-1,28
 1186 585 1186 585 1207 554 c 128,-1,29
 1228 523 1228 523 1240.5 485 c 128,-1,30
 1253 447 1253 447 1253 398 c 0,31,32
 1253 308 1253 308 1216 234 c 128,-1,33
 1179 160 1179 160 1111 106 c 128,-1,34
 1043 52 1043 52 946.5 19.5 c 128,-1,35
 850 -13 850 -13 731 -20 c 1,36,-1
 731 -186 l 1,37,38
 699 -186 699 -186 678.5 -182 c 128,-1,39
 658 -178 658 -178 647 -167.5 c 128,-1,40
 636 -157 636 -157 632 -137.5 c 128,-1,41
 628 -118 628 -118 628 -86 c 2,42,-1
 628 -21 l 1,43,44
 332 -13 332 -13 126 130 c 0,45,46
 110 141 110 141 98.5 152 c 128,-1,47
 87 163 87 163 80 174 c 1,48,49
 80 211 80 211 87 240 c 1,50,-1
 175 466 l 1,51,-1
 478 346 l 1,52,53
 514 263 514 263 549.5 220.5 c 128,-1,54
 585 178 585 178 628 162 c 1,55,-1
 628 587 l 1,56,57
 600 602 600 602 569 615.5 c 128,-1,58
 538 629 538 629 506.5 642 c 128,-1,59
 475 655 475 655 444.5 668 c 128,-1,60
 414 681 414 681 387 694 c 0,61,62
 333 720 333 720 282.5 752.5 c 128,-1,63
 232 785 232 785 193 826 c 128,-1,64
 154 867 154 867 130 918 c 128,-1,65
 106 969 106 969 106 1032 c 0,66,67
 106 1112 106 1112 143 1177.5 c 128,-1,68
 180 1243 180 1243 248.5 1292 c 128,-1,69
 317 1341 317 1341 413 1370.5 c 128,-1,70
 509 1400 509 1400 628 1408 c 1,71,-1
 628 1534 l 1,0,1
628 1237 m 1,72,73
 604 1231 604 1231 586.5 1215 c 128,-1,74
 569 1199 569 1199 557.5 1176.5 c 128,-1,75
 546 1154 546 1154 540.5 1126.5 c 128,-1,76
 535 1099 535 1099 535 1069 c 0,77,78
 535 952 535 952 628 891 c 1,79,-1
 628 1237 l 1,72,73
731 163 m 1,80,81
 773 182 773 182 795.5 231.5 c 128,-1,82
 818 281 818 281 818 342 c 0,83,84
 818 455 818 455 731 526 c 1,85,-1
 731 163 l 1,80,81
EndSplineSet
EndChar

StartChar: percent
Encoding: 37 37 27
Width: 1658
GlyphClass: 2
Flags: W
LayerCount: 2
Fore
SplineSet
492 -34 m 1,0,-1
 338 53 l 1,1,-1
 1186 1440 l 1,2,-1
 1340 1352 l 1,3,-1
 492 -34 l 1,0,-1
378 775 m 0,4,5
 417 775 417 775 441.5 795.5 c 128,-1,6
 466 816 466 816 479.5 850.5 c 128,-1,7
 493 885 493 885 498 931.5 c 128,-1,8
 503 978 503 978 503 1031 c 0,9,10
 503 1166 503 1166 472 1226.5 c 128,-1,11
 441 1287 441 1287 378 1287 c 0,12,13
 337 1287 337 1287 312 1267 c 128,-1,14
 287 1247 287 1247 273 1212.5 c 128,-1,15
 259 1178 259 1178 254 1131.5 c 128,-1,16
 249 1085 249 1085 249 1031 c 256,17,18
 249 977 249 977 254 930.5 c 128,-1,19
 259 884 259 884 273 849.5 c 128,-1,20
 287 815 287 815 312 795 c 128,-1,21
 337 775 337 775 378 775 c 0,4,5
698 1031 m 256,22,23
 698 946 698 946 676.5 876 c 128,-1,24
 655 806 655 806 614.5 756 c 128,-1,25
 574 706 574 706 515.5 678.5 c 128,-1,26
 457 651 457 651 383 651 c 0,27,28
 298 651 298 651 236.5 680.5 c 128,-1,29
 175 710 175 710 135 761.5 c 128,-1,30
 95 813 95 813 75.5 882.5 c 128,-1,31
 56 952 56 952 56 1033 c 0,32,33
 56 1120 56 1120 76.5 1190 c 128,-1,34
 97 1260 97 1260 137.5 1309.5 c 128,-1,35
 178 1359 178 1359 238 1385.5 c 128,-1,36
 298 1412 298 1412 378 1412 c 0,37,38
 456 1412 456 1412 516 1384.5 c 128,-1,39
 576 1357 576 1357 616.5 1307 c 128,-1,40
 657 1257 657 1257 677.5 1186.5 c 128,-1,41
 698 1116 698 1116 698 1031 c 256,22,23
1154 358 m 0,42,43
 1154 305 1154 305 1158 258.5 c 128,-1,44
 1162 212 1162 212 1176 177.5 c 128,-1,45
 1190 143 1190 143 1216.5 123 c 128,-1,46
 1243 103 1243 103 1287 103 c 0,47,48
 1328 103 1328 103 1352 127.5 c 128,-1,49
 1376 152 1376 152 1388 190 c 128,-1,50
 1400 228 1400 228 1403.5 272.5 c 128,-1,51
 1407 317 1407 317 1407 358 c 0,52,53
 1407 413 1407 413 1402 460 c 128,-1,54
 1397 507 1397 507 1383 541.5 c 128,-1,55
 1369 576 1369 576 1344.5 596 c 128,-1,56
 1320 616 1320 616 1280 616 c 256,57,58
 1240 616 1240 616 1215.5 596 c 128,-1,59
 1191 576 1191 576 1177.5 541.5 c 128,-1,60
 1164 507 1164 507 1159 460 c 128,-1,61
 1154 413 1154 413 1154 358 c 0,42,43
1280 -23 m 0,62,63
 1201 -23 1201 -23 1140.5 5 c 128,-1,64
 1080 33 1080 33 1038.5 83.5 c 128,-1,65
 997 134 997 134 976 204 c 128,-1,66
 955 274 955 274 955 358 c 0,67,68
 955 445 955 445 975.5 515.5 c 128,-1,69
 996 586 996 586 1037 636 c 128,-1,70
 1078 686 1078 686 1138.5 713 c 128,-1,71
 1199 740 1199 740 1280 740 c 0,72,73
 1360 740 1360 740 1420.5 712.5 c 128,-1,74
 1481 685 1481 685 1521.5 634.5 c 128,-1,75
 1562 584 1562 584 1582 513.5 c 128,-1,76
 1602 443 1602 443 1602 358 c 0,77,78
 1602 272 1602 272 1580 201.5 c 128,-1,79
 1558 131 1558 131 1517 81 c 128,-1,80
 1476 31 1476 31 1416 4 c 128,-1,81
 1356 -23 1356 -23 1280 -23 c 0,62,63
EndSplineSet
EndChar

StartChar: ampersand
Encoding: 38 38 28
Width: 1597
GlyphClass: 2
Flags: W
LayerCount: 2
Fore
SplineSet
510 1068 m 0,0,1
 510 950 510 950 556 893.5 c 128,-1,2
 602 837 602 837 708 837 c 2,3,-1
 1497 837 l 1,4,-1
 1497 507 l 1,5,-1
 1371 507 l 1,6,7
 1371 546 1371 546 1359 578 c 128,-1,8
 1347 610 1347 610 1324.5 632.5 c 128,-1,9
 1302 655 1302 655 1271 667.5 c 128,-1,10
 1240 680 1240 680 1201 680 c 1,11,-1
 1201 491 l 2,12,13
 1201 229 1201 229 1070.5 103.5 c 128,-1,14
 940 -22 940 -22 673 -22 c 0,15,16
 546 -22 546 -22 437 -4 c 128,-1,17
 328 14 328 14 248 59.5 c 128,-1,18
 168 105 168 105 122.5 182 c 128,-1,19
 77 259 77 259 77 377 c 0,20,21
 77 509 77 509 149.5 604.5 c 128,-1,22
 222 700 222 700 373 757 c 1,23,24
 114 836 114 836 114 1054 c 0,25,26
 114 1234 114 1234 279 1323 c 128,-1,27
 444 1412 444 1412 770 1412 c 0,28,29
 935 1412 935 1412 1184 1361 c 1,30,-1
 1184 1006 l 1,31,-1
 933 1006 l 1,32,33
 913 1123 913 1123 856.5 1187.5 c 128,-1,34
 800 1252 800 1252 709 1252 c 0,35,36
 667 1252 667 1252 630.5 1237.5 c 128,-1,37
 594 1223 594 1223 567 1198 c 128,-1,38
 540 1173 540 1173 525 1139.5 c 128,-1,39
 510 1106 510 1106 510 1068 c 0,0,1
481 374 m 0,40,41
 481 136 481 136 690 136 c 0,42,43
 727 136 727 136 753 153 c 128,-1,44
 779 170 779 170 796 199 c 128,-1,45
 813 228 813 228 822.5 265.5 c 128,-1,46
 832 303 832 303 836.5 343.5 c 128,-1,47
 841 384 841 384 842 425 c 128,-1,48
 843 466 843 466 843 502 c 2,49,-1
 843 680 l 1,50,-1
 671 680 l 2,51,52
 629 680 629 680 594 660.5 c 128,-1,53
 559 641 559 641 534 602.5 c 128,-1,54
 509 564 509 564 495 507 c 128,-1,55
 481 450 481 450 481 374 c 0,40,41
EndSplineSet
EndChar

StartChar: quotesingle
Encoding: 39 39 29
Width: 562
GlyphClass: 2
Flags: W
LayerCount: 2
Fore
SplineSet
110 1370 m 1,0,1
 178 1411 178 1411 292 1411 c 0,2,3
 326 1411 326 1411 355 1408 c 128,-1,4
 384 1405 384 1405 405.5 1397 c 128,-1,5
 427 1389 427 1389 439.5 1374.5 c 128,-1,6
 452 1360 452 1360 452 1336 c 1,7,8
 428 1124 428 1124 415.5 1013 c 128,-1,9
 403 902 403 902 402 891 c 1,10,11
 342 870 342 870 281 870 c 0,12,13
 169 870 169 870 154 957 c 1,14,-1
 110 1370 l 1,0,1
EndSplineSet
EndChar

StartChar: parenleft
Encoding: 40 40 30
Width: 733
GlyphClass: 2
Flags: W
LayerCount: 2
Fore
SplineSet
491 638 m 256,0,1
 491 168 491 168 681 -142 c 1,2,3
 645 -160 645 -160 600 -170 c 128,-1,4
 555 -180 555 -180 514 -185 c 0,5,6
 466 -191 466 -191 419 -193 c 1,7,8
 334 -119 334 -119 272.5 -27.5 c 128,-1,9
 211 64 211 64 171.5 170 c 128,-1,10
 132 276 132 276 113 393.5 c 128,-1,11
 94 511 94 511 94 638 c 256,12,13
 94 765 94 765 113 882.5 c 128,-1,14
 132 1000 132 1000 171.5 1106 c 128,-1,15
 211 1212 211 1212 272.5 1303.5 c 128,-1,16
 334 1395 334 1395 419 1469 c 1,17,18
 466 1467 466 1467 514 1461 c 0,19,20
 555 1456 555 1456 600 1445.5 c 128,-1,21
 645 1435 645 1435 681 1418 c 1,22,23
 491 1108 491 1108 491 638 c 256,0,1
EndSplineSet
EndChar

StartChar: parenright
Encoding: 41 41 31
Width: 734
GlyphClass: 2
Flags: W
LayerCount: 2
Fore
SplineSet
242 638 m 256,0,1
 242 1108 242 1108 52 1418 c 1,2,3
 87 1435 87 1435 132.5 1445.5 c 128,-1,4
 178 1456 178 1456 219 1461 c 0,5,6
 267 1467 267 1467 314 1469 c 1,7,8
 399 1395 399 1395 460 1303.5 c 128,-1,9
 521 1212 521 1212 561 1106 c 128,-1,10
 601 1000 601 1000 620 882.5 c 128,-1,11
 639 765 639 765 639 638 c 256,12,13
 639 511 639 511 620 393.5 c 128,-1,14
 601 276 601 276 561 170 c 128,-1,15
 521 64 521 64 460 -27.5 c 128,-1,16
 399 -119 399 -119 314 -193 c 1,17,18
 267 -191 267 -191 219 -185 c 0,19,20
 178 -180 178 -180 132.5 -170 c 128,-1,21
 87 -160 87 -160 52 -142 c 1,22,23
 242 168 242 168 242 638 c 256,0,1
EndSplineSet
EndChar

StartChar: asterisk
Encoding: 42 42 32
Width: 882
GlyphClass: 2
Flags: W
LayerCount: 2
Fore
SplineSet
274 703 m 1,0,-1
 378 994 l 1,1,-1
 110 859 l 1,2,-1
 58 1014 l 1,3,-1
 354 1080 l 1,4,-1
 96 1269 l 1,5,-1
 216 1382 l 1,6,-1
 414 1139 l 1,7,-1
 444 1440 l 1,8,-1
 612 1409 l 1,9,-1
 505 1126 l 1,10,-1
 775 1252 l 1,11,-1
 824 1109 l 1,12,-1
 533 1041 l 1,13,-1
 785 833 l 1,14,-1
 653 727 l 1,15,-1
 468 982 l 1,16,-1
 441 660 l 1,17,-1
 274 703 l 1,0,-1
EndSplineSet
EndChar

StartChar: plus
Encoding: 43 43 33
Width: 1195
GlyphClass: 2
Flags: W
LayerCount: 2
Fore
SplineSet
536 1068 m 2,0,1
 615 1068 615 1068 660 1051.5 c 128,-1,2
 705 1035 705 1035 719 990 c 1,3,-1
 719 671 l 1,4,-1
 1088 671 l 1,5,-1
 1088 581 l 1,6,7
 1085 554 1085 554 1078.5 535.5 c 128,-1,8
 1072 517 1072 517 1057 505.5 c 128,-1,9
 1042 494 1042 494 1017.5 488.5 c 128,-1,10
 993 483 993 483 954 483 c 2,11,-1
 719 483 l 1,12,-1
 719 85 l 1,13,-1
 610 85 l 2,14,15
 589 85 589 85 567 86.5 c 128,-1,16
 545 88 545 88 526 93.5 c 128,-1,17
 507 99 507 99 493.5 111 c 128,-1,18
 480 123 480 123 476 144 c 1,19,20
 475 155 475 155 474.5 167 c 128,-1,21
 474 179 474 179 474 193 c 2,22,-1
 474 483 l 1,23,-1
 107 483 l 1,24,-1
 107 573 l 2,25,26
 107 609 107 609 119.5 629 c 128,-1,27
 132 649 132 649 154.5 658.5 c 128,-1,28
 177 668 177 668 207 669.5 c 128,-1,29
 237 671 237 671 272 671 c 2,30,-1
 474 671 l 1,31,-1
 474 1068 l 1,32,-1
 536 1068 l 2,0,1
EndSplineSet
EndChar

StartChar: comma
Encoding: 44 44 34
Width: 658
GlyphClass: 2
Flags: W
LayerCount: 2
Fore
SplineSet
321 358 m 0,0,1
 430 358 430 358 486.5 294 c 128,-1,2
 543 230 543 230 543 118 c 0,3,4
 543 45 543 45 519 -19.5 c 128,-1,5
 495 -84 495 -84 448 -144 c 128,-1,6
 401 -204 401 -204 331 -261 c 128,-1,7
 261 -318 261 -318 168 -376 c 1,8,-1
 74 -283 l 1,9,10
 190 -172 190 -172 245 -15 c 1,11,12
 179 -1 179 -1 139.5 47 c 128,-1,13
 100 95 100 95 100 170 c 0,14,15
 100 213 100 213 118 248 c 128,-1,16
 136 283 136 283 166.5 307.5 c 128,-1,17
 197 332 197 332 237 345 c 128,-1,18
 277 358 277 358 321 358 c 0,0,1
EndSplineSet
EndChar

StartChar: hyphen
Encoding: 45 45 35
Width: 834
GlyphClass: 2
Flags: W
LayerCount: 2
Fore
SplineSet
793 571 m 2,0,1
 793 529 793 529 773.5 500 c 128,-1,2
 754 471 754 471 717 471 c 2,3,-1
 41 471 l 1,4,-1
 41 562 l 2,5,6
 41 588 41 588 46.5 604.5 c 128,-1,7
 52 621 52 621 65 630 c 128,-1,8
 78 639 78 639 98 642.5 c 128,-1,9
 118 646 118 646 148 646 c 2,10,-1
 793 646 l 1,11,-1
 793 571 l 2,0,1
EndSplineSet
EndChar

StartChar: period
Encoding: 46 46 36
Width: 631
GlyphClass: 2
Flags: W
LayerCount: 2
Fore
SplineSet
515 169 m 0,0,1
 515 125 515 125 501 89.5 c 128,-1,2
 487 54 487 54 460.5 29.5 c 128,-1,3
 434 5 434 5 397 -8.5 c 128,-1,4
 360 -22 360 -22 315 -22 c 256,5,6
 270 -22 270 -22 233 -8.5 c 128,-1,7
 196 5 196 5 169.5 29.5 c 128,-1,8
 143 54 143 54 129 89.5 c 128,-1,9
 115 125 115 125 115 169 c 0,10,11
 115 211 115 211 130 246 c 128,-1,12
 145 281 145 281 172 305.5 c 128,-1,13
 199 330 199 330 235.5 343.5 c 128,-1,14
 272 357 272 357 315 357 c 256,15,16
 358 357 358 357 395 342.5 c 128,-1,17
 432 328 432 328 458.5 303 c 128,-1,18
 485 278 485 278 500 243.5 c 128,-1,19
 515 209 515 209 515 169 c 0,0,1
EndSplineSet
EndChar

StartChar: slash
Encoding: 47 47 37
Width: 906
GlyphClass: 2
Flags: W
LayerCount: 2
Fore
SplineSet
625 1331 m 2,0,1
 632 1346 632 1346 640 1361 c 128,-1,2
 648 1376 648 1376 660 1387 c 128,-1,3
 672 1398 672 1398 689.5 1405 c 128,-1,4
 707 1412 707 1412 733 1412 c 2,5,-1
 906 1412 l 1,6,-1
 276 48 l 2,7,8
 259 12 259 12 235.5 -5 c 128,-1,9
 212 -22 212 -22 171 -22 c 2,10,-1
 0 -22 l 1,11,-1
 625 1331 l 2,0,1
EndSplineSet
EndChar

StartChar: zero
Encoding: 48 48 38
Width: 1329
GlyphClass: 2
Flags: W
LayerCount: 2
Fore
SplineSet
846 704 m 0,0,1
 846 818 846 818 838.5 913.5 c 128,-1,2
 831 1009 831 1009 810.5 1078 c 128,-1,3
 790 1147 790 1147 754.5 1185 c 128,-1,4
 719 1223 719 1223 664 1223 c 0,5,6
 565 1223 565 1223 524 1095 c 128,-1,7
 483 967 483 967 483 704 c 0,8,9
 483 573 483 573 492.5 473 c 128,-1,10
 502 373 502 373 523.5 305 c 128,-1,11
 545 237 545 237 579.5 202 c 128,-1,12
 614 167 614 167 664 167 c 0,13,14
 718 167 718 167 753 206.5 c 128,-1,15
 788 246 788 246 808.5 317 c 128,-1,16
 829 388 829 388 837.5 486.5 c 128,-1,17
 846 585 846 585 846 704 c 0,0,1
664 -22 m 0,18,19
 511 -22 511 -22 396.5 30.5 c 128,-1,20
 282 83 282 83 206.5 179 c 128,-1,21
 131 275 131 275 93.5 408.5 c 128,-1,22
 56 542 56 542 56 704 c 0,23,24
 56 869 56 869 94.5 1000.5 c 128,-1,25
 133 1132 133 1132 209.5 1223.5 c 128,-1,26
 286 1315 286 1315 399.5 1363.5 c 128,-1,27
 513 1412 513 1412 664 1412 c 0,28,29
 817 1412 817 1412 931.5 1362.5 c 128,-1,30
 1046 1313 1046 1313 1121.5 1221 c 128,-1,31
 1197 1129 1197 1129 1235 998 c 128,-1,32
 1273 867 1273 867 1273 704 c 0,33,34
 1273 537 1273 537 1233.5 403 c 128,-1,35
 1194 269 1194 269 1117 174.5 c 128,-1,36
 1040 80 1040 80 926 29 c 128,-1,37
 812 -22 812 -22 664 -22 c 0,18,19
EndSplineSet
EndChar

StartChar: one
Encoding: 49 49 39
Width: 964
GlyphClass: 2
Flags: W
LayerCount: 2
Fore
SplineSet
490 1399 m 0,0,1
 526 1399 526 1399 561.5 1397.5 c 128,-1,2
 597 1396 597 1396 625.5 1386 c 128,-1,3
 654 1376 654 1376 672 1354.5 c 128,-1,4
 690 1333 690 1333 690 1294 c 2,5,-1
 690 259 l 2,6,7
 690 231 690 231 691.5 208.5 c 128,-1,8
 693 186 693 186 695 167 c 1,9,-1
 883 167 l 1,10,-1
 883 -11 l 1,11,12
 771 -6 771 -6 672.5 -3 c 128,-1,13
 574 0 574 0 489 0 c 0,14,15
 398 0 398 0 294 -3 c 128,-1,16
 190 -6 190 -6 69 -11 c 1,17,-1
 69 167 l 1,18,-1
 255 167 l 1,19,20
 261 194 261 194 261 259 c 2,21,-1
 261 1162 l 2,22,23
 261 1185 261 1185 260 1204.5 c 128,-1,24
 259 1224 259 1224 257 1239 c 1,25,-1
 88 1239 l 1,26,-1
 88 1353 l 1,27,28
 190 1376 190 1376 288.5 1387.5 c 128,-1,29
 387 1399 387 1399 490 1399 c 0,0,1
EndSplineSet
EndChar

StartChar: two
Encoding: 50 50 40
Width: 1271
GlyphClass: 2
Flags: W
LayerCount: 2
Fore
SplineSet
755 1040 m 0,0,1
 755 1133 755 1133 718.5 1189 c 128,-1,2
 682 1245 682 1245 608 1245 c 0,3,4
 569 1245 569 1245 531.5 1223 c 128,-1,5
 494 1201 494 1201 461 1161 c 128,-1,6
 428 1121 428 1121 400 1064.5 c 128,-1,7
 372 1008 372 1008 353 939 c 1,8,-1
 70 1123 l 1,9,10
 71 1185 71 1185 114 1238 c 128,-1,11
 157 1291 157 1291 231.5 1329.5 c 128,-1,12
 306 1368 306 1368 406.5 1390 c 128,-1,13
 507 1412 507 1412 623 1412 c 0,14,15
 740 1412 740 1412 838 1389 c 128,-1,16
 936 1366 936 1366 1006.5 1317 c 128,-1,17
 1077 1268 1077 1268 1116 1190 c 128,-1,18
 1155 1112 1155 1112 1155 1003 c 0,19,20
 1155 932 1155 932 1124 854 c 128,-1,21
 1093 776 1093 776 1017 685.5 c 128,-1,22
 941 595 941 595 812.5 489.5 c 128,-1,23
 684 384 684 384 489 258 c 1,24,-1
 755 258 l 2,25,26
 786 258 786 258 808.5 258 c 128,-1,27
 831 258 831 258 847.5 258 c 128,-1,28
 864 258 864 258 877.5 257.5 c 128,-1,29
 891 257 891 257 905 256 c 1,30,31
 930 296 930 296 957.5 350.5 c 128,-1,32
 985 405 985 405 1016 477 c 1,33,-1
 1195 460 l 1,34,35
 1193 319 1193 319 1189.5 209 c 128,-1,36
 1186 99 1186 99 1181 12 c 1,37,38
 1061 0 1061 0 827 0 c 2,39,-1
 195 0 l 2,40,41
 157 0 157 0 132 6 c 128,-1,42
 107 12 107 12 91 26 c 128,-1,43
 75 40 75 40 68.5 64 c 128,-1,44
 62 88 62 88 62 123 c 0,45,46
 62 150 62 150 65 185 c 1,47,48
 149 262 149 262 222 329 c 128,-1,49
 295 396 295 396 359.5 456 c 128,-1,50
 424 516 424 516 481.5 571 c 128,-1,51
 539 626 539 626 592 678 c 0,52,53
 625 711 625 711 655 746.5 c 128,-1,54
 685 782 685 782 707 824.5 c 128,-1,55
 729 867 729 867 742 920 c 128,-1,56
 755 973 755 973 755 1040 c 0,0,1
EndSplineSet
EndChar

StartChar: three
Encoding: 51 51 41
Width: 1218
GlyphClass: 2
Flags: W
LayerCount: 2
Fore
SplineSet
46 1146 m 1,0,1
 86 1214 86 1214 136.5 1264 c 128,-1,2
 187 1314 187 1314 250.5 1347 c 128,-1,3
 314 1380 314 1380 393.5 1396 c 128,-1,4
 473 1412 473 1412 571 1412 c 0,5,6
 680 1412 680 1412 775.5 1391 c 128,-1,7
 871 1370 871 1370 941.5 1326.5 c 128,-1,8
 1012 1283 1012 1283 1052.5 1217.5 c 128,-1,9
 1093 1152 1093 1152 1093 1062 c 0,10,11
 1093 994 1093 994 1069 943.5 c 128,-1,12
 1045 893 1045 893 1002.5 857 c 128,-1,13
 960 821 960 821 902.5 798 c 128,-1,14
 845 775 845 775 778 761 c 1,15,16
 859 750 859 750 926 718.5 c 128,-1,17
 993 687 993 687 1041 637 c 128,-1,18
 1089 587 1089 587 1115.5 520 c 128,-1,19
 1142 453 1142 453 1142 371 c 0,20,21
 1142 278 1142 278 1101.5 203 c 128,-1,22
 1061 128 1061 128 986.5 75.5 c 128,-1,23
 912 23 912 23 807.5 -5 c 128,-1,24
 703 -33 703 -33 575 -33 c 0,25,26
 320 -33 320 -33 85 80 c 1,27,-1
 85 430 l 1,28,-1
 294 411 l 1,29,30
 325 271 325 271 386.5 209.5 c 128,-1,31
 448 148 448 148 531 148 c 0,32,33
 631 148 631 148 682.5 210 c 128,-1,34
 734 272 734 272 734 381 c 0,35,36
 734 639 734 639 458 639 c 2,37,-1
 307 639 l 1,38,-1
 317 799 l 1,39,-1
 431 808 l 2,40,41
 491 812 491 812 550 835.5 c 128,-1,42
 609 859 609 859 656 895.5 c 128,-1,43
 703 932 703 932 732.5 978 c 128,-1,44
 762 1024 762 1024 762 1075 c 0,45,46
 762 1111 762 1111 747 1138.5 c 128,-1,47
 732 1166 732 1166 706.5 1185 c 128,-1,48
 681 1204 681 1204 646.5 1213.5 c 128,-1,49
 612 1223 612 1223 572 1223 c 0,50,51
 528 1223 528 1223 485.5 1207.5 c 128,-1,52
 443 1192 443 1192 407 1161.5 c 128,-1,53
 371 1131 371 1131 342.5 1085 c 128,-1,54
 314 1039 314 1039 298 979 c 1,55,-1
 46 1146 l 1,0,1
EndSplineSet
EndChar

StartChar: four
Encoding: 52 52 42
Width: 1269
GlyphClass: 2
Flags: W
LayerCount: 2
Fore
SplineSet
576 520 m 1,0,-1
 576 1074 l 1,1,-1
 206 520 l 1,2,-1
 576 520 l 1,0,-1
801 0 m 0,3,4
 719 0 719 0 616 -3 c 128,-1,5
 513 -6 513 -6 384 -11 c 1,6,-1
 384 167 l 1,7,-1
 570 167 l 1,8,9
 576 194 576 194 576 259 c 2,10,-1
 576 349 l 1,11,-1
 112 349 l 1,12,13
 67 425 67 425 44.5 484 c 128,-1,14
 22 543 22 543 22 597 c 1,15,-1
 562 1388 l 1,16,17
 575 1388 575 1388 589.5 1387.5 c 128,-1,18
 604 1387 604 1387 627.5 1387 c 128,-1,19
 651 1387 651 1387 688.5 1387 c 128,-1,20
 726 1387 726 1387 785 1387 c 2,21,-1
 843 1387 l 2,22,23
 871 1387 871 1387 896.5 1384 c 128,-1,24
 922 1381 922 1381 941 1371 c 128,-1,25
 960 1361 960 1361 971 1341.5 c 128,-1,26
 982 1322 982 1322 982 1289 c 2,27,-1
 982 520 l 1,28,-1
 1237 520 l 1,29,-1
 1237 434 l 2,30,31
 1237 390 1237 390 1205 369.5 c 128,-1,32
 1173 349 1173 349 1112 349 c 2,33,-1
 982 349 l 1,34,-1
 982 259 l 2,35,36
 982 231 982 231 983.5 208.5 c 128,-1,37
 985 186 985 186 987 167 c 1,38,-1
 1175 167 l 1,39,-1
 1175 -11 l 1,40,41
 1067 -6 1067 -6 974.5 -3 c 128,-1,42
 882 0 882 0 801 0 c 0,3,4
EndSplineSet
EndChar

StartChar: five
Encoding: 53 53 43
Width: 1199
GlyphClass: 2
Flags: W
LayerCount: 2
Fore
SplineSet
745 1177 m 0,0,1
 679 1177 679 1177 611.5 1180 c 128,-1,2
 544 1183 544 1183 474 1190 c 1,3,-1
 474 862 l 1,4,5
 592 903 592 903 692 903 c 0,6,7
 788 903 788 903 865.5 869.5 c 128,-1,8
 943 836 943 836 997.5 777 c 128,-1,9
 1052 718 1052 718 1081.5 638.5 c 128,-1,10
 1111 559 1111 559 1111 468 c 0,11,12
 1111 339 1111 339 1064 246.5 c 128,-1,13
 1017 154 1017 154 937 94.5 c 128,-1,14
 857 35 857 35 752 6.5 c 128,-1,15
 647 -22 647 -22 531 -22 c 0,16,17
 481 -22 481 -22 425 -15.5 c 128,-1,18
 369 -9 369 -9 310 4.5 c 128,-1,19
 251 18 251 18 191 37.5 c 128,-1,20
 131 57 131 57 74 83 c 1,21,-1
 74 437 l 1,22,-1
 288 417 l 1,23,24
 295 369 295 369 304 316.5 c 128,-1,25
 313 264 313 264 326 204 c 1,26,27
 420 166 420 166 488 166 c 0,28,29
 698 166 698 166 698 449 c 0,30,31
 698 502 698 502 691 548 c 128,-1,32
 684 594 684 594 666 628.5 c 128,-1,33
 648 663 648 663 617.5 682.5 c 128,-1,34
 587 702 587 702 541 702 c 0,35,36
 451 702 451 702 312 621 c 1,37,38
 301 624 301 624 286.5 628 c 128,-1,39
 272 632 272 632 247.5 637.5 c 128,-1,40
 223 643 223 643 187 650.5 c 128,-1,41
 151 658 151 658 98 669 c 1,42,-1
 98 1310 l 1,43,44
 144 1354 144 1354 209 1371 c 128,-1,45
 274 1388 274 1388 373 1388 c 0,46,47
 424 1388 424 1388 455 1388 c 128,-1,48
 486 1388 486 1388 511.5 1387.5 c 128,-1,49
 537 1387 537 1387 562 1387 c 128,-1,50
 587 1387 587 1387 626 1387 c 0,51,52
 698 1387 698 1387 792.5 1395.5 c 128,-1,53
 887 1404 887 1404 1008 1421 c 1,54,-1
 1016 1267 l 1,55,56
 997 1241 997 1241 972 1224 c 128,-1,57
 947 1207 947 1207 914 1196.5 c 128,-1,58
 881 1186 881 1186 839 1181.5 c 128,-1,59
 797 1177 797 1177 745 1177 c 0,0,1
EndSplineSet
EndChar

StartChar: six
Encoding: 54 54 44
Width: 1260
GlyphClass: 2
Flags: W
LayerCount: 2
Fore
SplineSet
641 -22 m 0,0,1
 494 -22 494 -22 387 19 c 128,-1,2
 280 60 280 60 210.5 141 c 128,-1,3
 141 222 141 222 107.5 342 c 128,-1,4
 74 462 74 462 74 620 c 0,5,6
 74 1006 74 1006 234.5 1209 c 128,-1,7
 395 1412 395 1412 715 1412 c 0,8,9
 777 1412 777 1412 836 1407 c 128,-1,10
 895 1402 895 1402 947.5 1392.5 c 128,-1,11
 1000 1383 1000 1383 1043.5 1368.5 c 128,-1,12
 1087 1354 1087 1354 1118 1335 c 1,13,-1
 1118 963 l 1,14,-1
 886 963 l 1,15,-1
 854 1209 l 1,16,17
 800 1216 800 1216 762.5 1219.5 c 128,-1,18
 725 1223 725 1223 702 1223 c 0,19,20
 651 1223 651 1223 618.5 1204.5 c 128,-1,21
 586 1186 586 1186 566.5 1155 c 128,-1,22
 547 1124 547 1124 536.5 1083 c 128,-1,23
 526 1042 526 1042 519 998 c 0,24,25
 512 956 512 956 506.5 908 c 128,-1,26
 501 860 501 860 496 802 c 1,27,28
 637 866 637 866 771 866 c 0,29,30
 873 866 873 866 953 834 c 128,-1,31
 1033 802 1033 802 1088.5 744 c 128,-1,32
 1144 686 1144 686 1173 604 c 128,-1,33
 1202 522 1202 522 1202 423 c 0,34,35
 1202 325 1202 325 1161.5 243 c 128,-1,36
 1121 161 1121 161 1047 102 c 128,-1,37
 973 43 973 43 869.5 10.5 c 128,-1,38
 766 -22 766 -22 641 -22 c 0,0,1
498 607 m 1,39,40
 498 559 498 559 498 531 c 128,-1,41
 498 503 498 503 498.5 487 c 128,-1,42
 499 471 499 471 499 464.5 c 128,-1,43
 499 458 499 458 499 452 c 0,44,45
 499 383 499 383 509 327 c 128,-1,46
 519 271 519 271 538.5 231.5 c 128,-1,47
 558 192 558 192 586.5 170 c 128,-1,48
 615 148 615 148 651 148 c 0,49,50
 711 148 711 148 748.5 217 c 128,-1,51
 786 286 786 286 786 421 c 0,52,53
 786 470 786 470 782.5 515 c 128,-1,54
 779 560 779 560 767.5 594.5 c 128,-1,55
 756 629 756 629 733.5 650.5 c 128,-1,56
 711 672 711 672 674 675 c 1,57,58
 639 675 639 675 594 655.5 c 128,-1,59
 549 636 549 636 498 607 c 1,39,40
EndSplineSet
EndChar

StartChar: seven
Encoding: 55 55 45
Width: 1243
GlyphClass: 2
Flags: W
LayerCount: 2
Fore
SplineSet
72 1348 m 1,0,1
 262 1387 262 1387 390 1387 c 2,2,-1
 1161 1387 l 1,3,4
 1188 1367 1188 1367 1188 1296 c 2,5,-1
 1188 1209 l 1,6,-1
 765 185 l 2,7,8
 745 137 745 137 720 100.5 c 128,-1,9
 695 64 695 64 661.5 39.5 c 128,-1,10
 628 15 628 15 584.5 2 c 128,-1,11
 541 -11 541 -11 486 -11 c 0,12,13
 406 -11 406 -11 358 3 c 128,-1,14
 310 17 310 17 283 56 c 1,15,16
 283 58 283 58 285 62 c 2,17,-1
 294 80 l 1,18,-1
 835 1197 l 1,19,-1
 467 1197 l 2,20,21
 445 1197 445 1197 417 1195.5 c 128,-1,22
 389 1194 389 1194 354 1192 c 1,23,24
 348 1144 348 1144 348 1125 c 2,25,-1
 341 930 l 1,26,-1
 127 930 l 1,27,-1
 72 1348 l 1,0,1
EndSplineSet
EndChar

StartChar: eight
Encoding: 56 56 46
Width: 1219
GlyphClass: 2
Flags: W
LayerCount: 2
Fore
SplineSet
1124 1045 m 0,0,1
 1124 957 1124 957 1064.5 876 c 128,-1,2
 1005 795 1005 795 880 712 c 1,3,4
 934 691 934 691 986 658 c 128,-1,5
 1038 625 1038 625 1078.5 581.5 c 128,-1,6
 1119 538 1119 538 1144 485.5 c 128,-1,7
 1169 433 1169 433 1169 374 c 0,8,9
 1169 269 1169 269 1124.5 194 c 128,-1,10
 1080 119 1080 119 1002.5 71 c 128,-1,11
 925 23 925 23 821 0.5 c 128,-1,12
 717 -22 717 -22 599 -22 c 0,13,14
 485 -22 485 -22 385 0.5 c 128,-1,15
 285 23 285 23 210 68 c 128,-1,16
 135 113 135 113 92 179.5 c 128,-1,17
 49 246 49 246 49 333 c 0,18,19
 49 442 49 442 114 537 c 128,-1,20
 179 632 179 632 322 707 c 1,21,22
 271 734 271 734 225.5 766 c 128,-1,23
 180 798 180 798 145 838.5 c 128,-1,24
 110 879 110 879 89.5 930.5 c 128,-1,25
 69 982 69 982 69 1048 c 0,26,27
 69 1126 69 1126 107 1193 c 128,-1,28
 145 1260 145 1260 214.5 1308.5 c 128,-1,29
 284 1357 284 1357 381.5 1384.5 c 128,-1,30
 479 1412 479 1412 599 1412 c 0,31,32
 709 1412 709 1412 805 1387 c 128,-1,33
 901 1362 901 1362 972 1315 c 128,-1,34
 1043 1268 1043 1268 1083.5 1200 c 128,-1,35
 1124 1132 1124 1132 1124 1045 c 0,0,1
599 167 m 0,36,37
 675 167 675 167 714.5 218 c 128,-1,38
 754 269 754 269 754 354 c 0,39,40
 754 457 754 457 701.5 521 c 128,-1,41
 649 585 649 585 561 608 c 1,42,43
 452 532 452 532 452 362 c 0,44,45
 452 275 452 275 489.5 221 c 128,-1,46
 527 167 527 167 599 167 c 0,36,37
631 807 m 1,47,48
 722 862 722 862 722 1037 c 0,49,50
 722 1077 722 1077 714.5 1111.5 c 128,-1,51
 707 1146 707 1146 691.5 1171 c 128,-1,52
 676 1196 676 1196 653 1210 c 128,-1,53
 630 1224 630 1224 599 1224 c 0,54,55
 567 1224 567 1224 544 1210 c 128,-1,56
 521 1196 521 1196 506 1171.5 c 128,-1,57
 491 1147 491 1147 483.5 1112.5 c 128,-1,58
 476 1078 476 1078 476 1037 c 0,59,60
 476 872 476 872 631 807 c 1,47,48
EndSplineSet
EndChar

StartChar: nine
Encoding: 57 57 47
Width: 1260
GlyphClass: 2
Flags: W
LayerCount: 2
Fore
SplineSet
619 1412 m 0,0,1
 766 1412 766 1412 873 1370.5 c 128,-1,2
 980 1329 980 1329 1049.5 1248 c 128,-1,3
 1119 1167 1119 1167 1152.5 1047 c 128,-1,4
 1186 927 1186 927 1186 770 c 0,5,6
 1186 384 1186 384 1033.5 181 c 128,-1,7
 881 -22 881 -22 575 -22 c 0,8,9
 509 -22 509 -22 445.5 -17.5 c 128,-1,10
 382 -13 382 -13 326.5 -3 c 128,-1,11
 271 7 271 7 226.5 21 c 128,-1,12
 182 35 182 35 152 55 c 1,13,-1
 152 427 l 1,14,-1
 384 427 l 1,15,-1
 416 190 l 1,16,17
 505 167 505 167 560 167 c 0,18,19
 630 167 630 167 668.5 206 c 128,-1,20
 707 245 707 245 725.5 306.5 c 128,-1,21
 744 368 744 368 750.5 442.5 c 128,-1,22
 757 517 757 517 764 588 c 1,23,24
 623 524 623 524 489 524 c 0,25,26
 387 524 387 524 307 556 c 128,-1,27
 227 588 227 588 171.5 646 c 128,-1,28
 116 704 116 704 87 786 c 128,-1,29
 58 868 58 868 58 967 c 0,30,31
 58 1065 58 1065 98.5 1147 c 128,-1,32
 139 1229 139 1229 213 1288 c 128,-1,33
 287 1347 287 1347 390.5 1379.5 c 128,-1,34
 494 1412 494 1412 619 1412 c 0,0,1
762 753 m 1,35,36
 762 786 762 786 762.5 808 c 128,-1,37
 763 830 763 830 763 838 c 0,38,39
 763 929 763 929 757.5 1001 c 128,-1,40
 752 1073 752 1073 735.5 1122 c 128,-1,41
 719 1171 719 1171 688.5 1197 c 128,-1,42
 658 1223 658 1223 609 1223 c 0,43,44
 549 1223 549 1223 511.5 1159 c 128,-1,45
 474 1095 474 1095 474 969 c 0,46,47
 474 922 474 922 477 876.5 c 128,-1,48
 480 831 480 831 491 795 c 128,-1,49
 502 759 502 759 524.5 737 c 128,-1,50
 547 715 547 715 586 715 c 0,51,52
 637 715 637 715 762 753 c 1,35,36
EndSplineSet
EndChar

StartChar: colon
Encoding: 58 58 48
Width: 636
GlyphClass: 2
Flags: W
LayerCount: 2
Fore
SplineSet
520 817 m 0,0,1
 520 773 520 773 506 737.5 c 128,-1,2
 492 702 492 702 465.5 677.5 c 128,-1,3
 439 653 439 653 402 639.5 c 128,-1,4
 365 626 365 626 320 626 c 256,5,6
 275 626 275 626 238 639.5 c 128,-1,7
 201 653 201 653 174.5 677.5 c 128,-1,8
 148 702 148 702 134 737.5 c 128,-1,9
 120 773 120 773 120 817 c 0,10,11
 120 859 120 859 135 894 c 128,-1,12
 150 929 150 929 177 953.5 c 128,-1,13
 204 978 204 978 240.5 991.5 c 128,-1,14
 277 1005 277 1005 320 1005 c 256,15,16
 363 1005 363 1005 399.5 990.5 c 128,-1,17
 436 976 436 976 463 951 c 128,-1,18
 490 926 490 926 505 891.5 c 128,-1,19
 520 857 520 857 520 817 c 0,0,1
515 169 m 0,20,21
 515 125 515 125 501 89.5 c 128,-1,22
 487 54 487 54 460.5 29.5 c 128,-1,23
 434 5 434 5 397 -8.5 c 128,-1,24
 360 -22 360 -22 315 -22 c 256,25,26
 270 -22 270 -22 233 -8.5 c 128,-1,27
 196 5 196 5 169.5 29.5 c 128,-1,28
 143 54 143 54 129 89.5 c 128,-1,29
 115 125 115 125 115 169 c 0,30,31
 115 211 115 211 130 246 c 128,-1,32
 145 281 145 281 172 305.5 c 128,-1,33
 199 330 199 330 235.5 343.5 c 128,-1,34
 272 357 272 357 315 357 c 256,35,36
 358 357 358 357 395 342.5 c 128,-1,37
 432 328 432 328 458.5 303 c 128,-1,38
 485 278 485 278 500 243.5 c 128,-1,39
 515 209 515 209 515 169 c 0,20,21
EndSplineSet
EndChar

StartChar: semicolon
Encoding: 59 59 49
Width: 642
GlyphClass: 2
Flags: W
LayerCount: 2
Fore
SplineSet
513 817 m 0,0,1
 513 773 513 773 499 737.5 c 128,-1,2
 485 702 485 702 458.5 677.5 c 128,-1,3
 432 653 432 653 395 639.5 c 128,-1,4
 358 626 358 626 313 626 c 256,5,6
 268 626 268 626 231 639.5 c 128,-1,7
 194 653 194 653 167.5 677.5 c 128,-1,8
 141 702 141 702 127 737.5 c 128,-1,9
 113 773 113 773 113 817 c 0,10,11
 113 859 113 859 128 894 c 128,-1,12
 143 929 143 929 170 953.5 c 128,-1,13
 197 978 197 978 233.5 991.5 c 128,-1,14
 270 1005 270 1005 313 1005 c 256,15,16
 356 1005 356 1005 393 990.5 c 128,-1,17
 430 976 430 976 456.5 951 c 128,-1,18
 483 926 483 926 498 891.5 c 128,-1,19
 513 857 513 857 513 817 c 0,0,1
321 283 m 0,20,21
 430 283 430 283 486.5 219 c 128,-1,22
 543 155 543 155 543 43 c 0,23,24
 543 -31 543 -31 519 -96 c 128,-1,25
 495 -161 495 -161 447.5 -221 c 128,-1,26
 400 -281 400 -281 330 -337.5 c 128,-1,27
 260 -394 260 -394 168 -451 c 1,28,-1
 74 -358 l 1,29,30
 190 -247 190 -247 245 -90 c 1,31,32
 179 -76 179 -76 139.5 -28 c 128,-1,33
 100 20 100 20 100 95 c 0,34,35
 100 138 100 138 118 173 c 128,-1,36
 136 208 136 208 166.5 232.5 c 128,-1,37
 197 257 197 257 237 270 c 128,-1,38
 277 283 277 283 321 283 c 0,20,21
EndSplineSet
EndChar

StartChar: less
Encoding: 60 60 50
Width: 1454
GlyphClass: 2
Flags: W
LayerCount: 2
Fore
SplineSet
107 597 m 1,0,1
 304 685 304 685 455.5 752.5 c 128,-1,2
 607 820 607 820 721 870.5 c 128,-1,3
 835 921 835 921 914.5 956.5 c 128,-1,4
 994 992 994 992 1048 1016 c 128,-1,5
 1102 1040 1102 1040 1133.5 1053.5 c 128,-1,6
 1165 1067 1165 1067 1183 1074.5 c 128,-1,7
 1201 1082 1201 1082 1208.5 1084.5 c 128,-1,8
 1216 1087 1216 1087 1221 1089 c 1,9,10
 1320 1012 1320 1012 1328 992 c 1,11,-1
 1347 925 l 1,12,-1
 518 544 l 1,13,14
 659 479 659 479 768 429.5 c 128,-1,15
 877 380 877 380 960 342 c 128,-1,16
 1043 304 1043 304 1103.5 276.5 c 128,-1,17
 1164 249 1164 249 1209 228.5 c 128,-1,18
 1254 208 1254 208 1286.5 193.5 c 128,-1,19
 1319 179 1319 179 1346 167 c 1,20,-1
 1329 100 l 1,21,22
 1325 90 1325 90 1299 66 c 128,-1,23
 1273 42 1273 42 1219 0 c 1,24,25
 1202 5 1202 5 1182.5 12 c 128,-1,26
 1163 19 1163 19 1123 36 c 128,-1,27
 1083 53 1083 53 1013 84 c 128,-1,28
 943 115 943 115 825.5 168 c 128,-1,29
 708 221 708 221 532.5 301 c 128,-1,30
 357 381 357 381 107 495 c 1,31,-1
 107 597 l 1,0,1
EndSplineSet
EndChar

StartChar: equal
Encoding: 61 61 51
Width: 1361
GlyphClass: 2
Flags: W
LayerCount: 2
Fore
SplineSet
1257 764 m 2,0,1
 1257 743 1257 743 1247 728 c 128,-1,2
 1237 713 1237 713 1220.5 701.5 c 128,-1,3
 1204 690 1204 690 1181.5 681.5 c 128,-1,4
 1159 673 1159 673 1134 665 c 1,5,-1
 104 665 l 1,6,-1
 104 755 l 2,7,8
 104 787 104 787 115 806 c 128,-1,9
 126 825 126 825 145.5 835.5 c 128,-1,10
 165 846 165 846 191.5 849 c 128,-1,11
 218 852 218 852 250 852 c 2,12,-1
 1257 852 l 1,13,-1
 1257 764 l 2,0,1
104 301 m 1,14,-1
 104 390 l 2,15,16
 104 424 104 424 113 444 c 128,-1,17
 122 464 122 464 143.5 473.5 c 128,-1,18
 165 483 165 483 200.5 485.5 c 128,-1,19
 236 488 236 488 289 488 c 2,20,-1
 1257 488 l 1,21,-1
 1257 399 l 2,22,23
 1257 366 1257 366 1226.5 343.5 c 128,-1,24
 1196 321 1196 321 1130 301 c 1,25,-1
 104 301 l 1,14,-1
EndSplineSet
EndChar

StartChar: greater
Encoding: 62 62 52
Width: 1453
GlyphClass: 2
Flags: W
LayerCount: 2
Fore
SplineSet
1347 495 m 1,0,1
 1159 409 1159 409 1014.5 343 c 128,-1,2
 870 277 870 277 760.5 227.5 c 128,-1,3
 651 178 651 178 573 143 c 128,-1,4
 495 108 495 108 441 84 c 128,-1,5
 387 60 387 60 352.5 45.5 c 128,-1,6
 318 31 318 31 296.5 22 c 128,-1,7
 275 13 275 13 261.5 8.5 c 128,-1,8
 248 4 248 4 235 0 c 1,9,10
 181 42 181 42 155 66 c 128,-1,11
 129 90 129 90 125 100 c 1,12,-1
 108 167 l 1,13,14
 135 179 135 179 167.5 193.5 c 128,-1,15
 200 208 200 208 245 228.5 c 128,-1,16
 290 249 290 249 350.5 276.5 c 128,-1,17
 411 304 411 304 494 342 c 128,-1,18
 577 380 577 380 686 429.5 c 128,-1,19
 795 479 795 479 936 544 c 1,20,-1
 107 925 l 1,21,-1
 126 992 l 1,22,23
 134 1012 134 1012 233 1089 c 1,24,25
 238 1087 238 1087 245.5 1084.5 c 128,-1,26
 253 1082 253 1082 271 1074.5 c 128,-1,27
 289 1067 289 1067 320.5 1053.5 c 128,-1,28
 352 1040 352 1040 406 1016 c 128,-1,29
 460 992 460 992 539.5 956.5 c 128,-1,30
 619 921 619 921 733 870.5 c 128,-1,31
 847 820 847 820 998.5 752.5 c 128,-1,32
 1150 685 1150 685 1347 597 c 1,33,-1
 1347 495 l 1,0,1
EndSplineSet
EndChar

StartChar: question
Encoding: 63 63 53
Width: 1078
GlyphClass: 2
Flags: W
LayerCount: 2
Fore
SplineSet
618 360 m 1,0,-1
 456 360 l 1,1,2
 430 374 430 374 401 396 c 128,-1,3
 372 418 372 418 347.5 445.5 c 128,-1,4
 323 473 323 473 307 504.5 c 128,-1,5
 291 536 291 536 291 569 c 0,6,7
 291 604 291 604 303 635 c 128,-1,8
 315 666 315 666 336.5 695 c 128,-1,9
 358 724 358 724 387 753 c 128,-1,10
 416 782 416 782 451 814 c 0,11,12
 485 845 485 845 510 875 c 128,-1,13
 535 905 535 905 551.5 935 c 128,-1,14
 568 965 568 965 576.5 997.5 c 128,-1,15
 585 1030 585 1030 585 1067 c 0,16,17
 585 1144 585 1144 547.5 1184 c 128,-1,18
 510 1224 510 1224 454 1224 c 0,19,20
 416 1224 416 1224 374 1217.5 c 128,-1,21
 332 1211 332 1211 281 1198 c 1,22,-1
 281 1062 l 1,23,-1
 78 1062 l 1,24,-1
 78 1334 l 1,25,26
 142 1355 142 1355 210 1373 c 1,27,28
 268 1387 268 1387 338 1399.5 c 128,-1,29
 408 1412 408 1412 475 1412 c 0,30,31
 576 1412 576 1412 661.5 1389 c 128,-1,32
 747 1366 747 1366 808.5 1321 c 128,-1,33
 870 1276 870 1276 904.5 1210 c 128,-1,34
 939 1144 939 1144 939 1058 c 0,35,36
 939 999 939 999 918.5 950 c 128,-1,37
 898 901 898 901 862.5 856.5 c 128,-1,38
 827 812 827 812 779 769.5 c 128,-1,39
 731 727 731 727 676 681 c 0,40,41
 658 666 658 666 645.5 651.5 c 128,-1,42
 633 637 633 637 625.5 619 c 128,-1,43
 618 601 618 601 614.5 576.5 c 128,-1,44
 611 552 611 552 611 516 c 0,45,46
 611 482 611 482 612 438.5 c 128,-1,47
 613 395 613 395 618 360 c 1,0,-1
521 286 m 0,48,49
 560 286 560 286 590.5 271.5 c 128,-1,50
 621 257 621 257 642 233 c 128,-1,51
 663 209 663 209 674 179 c 128,-1,52
 685 149 685 149 685 118 c 0,53,54
 685 89 685 89 675.5 62.5 c 128,-1,55
 666 36 666 36 646.5 15 c 128,-1,56
 627 -6 627 -6 597 -18.5 c 128,-1,57
 567 -31 567 -31 525 -31 c 0,58,59
 480 -31 480 -31 447.5 -17.5 c 128,-1,60
 415 -4 415 -4 394 18 c 128,-1,61
 373 40 373 40 363 68.5 c 128,-1,62
 353 97 353 97 353 126 c 0,63,64
 353 156 353 156 363.5 184.5 c 128,-1,65
 374 213 374 213 395 235.5 c 128,-1,66
 416 258 416 258 447.5 272 c 128,-1,67
 479 286 479 286 521 286 c 0,48,49
EndSplineSet
EndChar

StartChar: at
Encoding: 64 64 54
Width: 1746
GlyphClass: 2
Flags: W
LayerCount: 2
Fore
SplineSet
946 -38 m 0,0,1
 1205 -38 1205 -38 1444 108 c 1,2,-1
 1497 10 l 1,3,4
 1369 -72 1369 -72 1225.5 -119 c 128,-1,5
 1082 -166 1082 -166 931 -166 c 0,6,7
 805 -166 805 -166 693.5 -137.5 c 128,-1,8
 582 -109 582 -109 487.5 -57.5 c 128,-1,9
 393 -6 393 -6 318.5 66 c 128,-1,10
 244 138 244 138 191.5 226 c 128,-1,11
 139 314 139 314 111.5 415.5 c 128,-1,12
 84 517 84 517 84 626 c 0,13,14
 84 986 84 986 336 1222 c 0,15,16
 583 1452 583 1452 942 1452 c 0,17,18
 1107 1452 1107 1452 1243.5 1401 c 128,-1,19
 1380 1350 1380 1350 1477.5 1258 c 128,-1,20
 1575 1166 1575 1166 1628.5 1038.5 c 128,-1,21
 1682 911 1682 911 1682 759 c 0,22,23
 1682 643 1682 643 1647 543.5 c 128,-1,24
 1612 444 1612 444 1554.5 371 c 128,-1,25
 1497 298 1497 298 1422.5 256.5 c 128,-1,26
 1348 215 1348 215 1269 215 c 0,27,28
 1184 215 1184 215 1129 257 c 128,-1,29
 1074 299 1074 299 1046 368 c 1,30,31
 1001 301 1001 301 936.5 258 c 128,-1,32
 872 215 872 215 787 215 c 0,33,34
 721 215 721 215 669 237.5 c 128,-1,35
 617 260 617 260 581 301.5 c 128,-1,36
 545 343 545 343 526 401.5 c 128,-1,37
 507 460 507 460 507 531 c 0,38,39
 507 620 507 620 526 696 c 128,-1,40
 545 772 545 772 578.5 834.5 c 128,-1,41
 612 897 612 897 657 945 c 128,-1,42
 702 993 702 993 754 1025.5 c 128,-1,43
 806 1058 806 1058 862.5 1075 c 128,-1,44
 919 1092 919 1092 976 1092 c 0,45,46
 1028 1092 1028 1092 1070 1068.5 c 128,-1,47
 1112 1045 1112 1045 1141 996 c 1,48,-1
 1206 1055 l 1,49,50
 1244 1051 1244 1051 1273 1043 c 128,-1,51
 1302 1035 1302 1035 1320 1021 c 1,52,53
 1307 980 1307 980 1294.5 927.5 c 128,-1,54
 1282 875 1282 875 1270.5 822 c 128,-1,55
 1259 769 1259 769 1248.5 719 c 128,-1,56
 1238 669 1238 669 1230 633 c 0,57,58
 1219 584 1219 584 1210 539 c 128,-1,59
 1201 494 1201 494 1201 448 c 0,60,61
 1201 396 1201 396 1221.5 370.5 c 128,-1,62
 1242 345 1242 345 1290 345 c 0,63,64
 1332 345 1332 345 1376 376 c 128,-1,65
 1420 407 1420 407 1455.5 462.5 c 128,-1,66
 1491 518 1491 518 1514 595 c 128,-1,67
 1537 672 1537 672 1537 764 c 0,68,69
 1537 883 1537 883 1493 984.5 c 128,-1,70
 1449 1086 1449 1086 1370 1160.5 c 128,-1,71
 1291 1235 1291 1235 1181 1277 c 128,-1,72
 1071 1319 1071 1319 940 1319 c 0,73,74
 803 1319 803 1319 684 1268.5 c 128,-1,75
 565 1218 565 1218 477.5 1126 c 128,-1,76
 390 1034 390 1034 340 905 c 128,-1,77
 290 776 290 776 290 619 c 0,78,79
 290 475 290 475 339 354.5 c 128,-1,80
 388 234 388 234 475 147 c 128,-1,81
 562 60 562 60 682.5 11 c 128,-1,82
 803 -38 803 -38 946 -38 c 0,0,1
1102 891 m 1,83,84
 1094 928 1094 928 1068.5 950.5 c 128,-1,85
 1043 973 1043 973 1001 973 c 0,86,87
 946 973 946 973 898.5 938 c 128,-1,88
 851 903 851 903 806 833 c 0,89,90
 769 776 769 776 743 698.5 c 128,-1,91
 717 621 717 621 717 531 c 0,92,93
 717 493 717 493 725.5 460 c 128,-1,94
 734 427 734 427 750 402.5 c 128,-1,95
 766 378 766 378 790 364 c 128,-1,96
 814 350 814 350 844 350 c 0,97,98
 886 350 886 350 916.5 370 c 128,-1,99
 947 390 947 390 969 421 c 128,-1,100
 991 452 991 452 1005.5 488.5 c 128,-1,101
 1020 525 1020 525 1029 557 c 0,102,103
 1054 644 1054 644 1072 727 c 128,-1,104
 1090 810 1090 810 1102 891 c 1,83,84
EndSplineSet
EndChar

StartChar: A
Encoding: 65 65 55
Width: 1668
GlyphClass: 2
Flags: W
LayerCount: 2
Fore
SplineSet
1317 0 m 0,0,1
 1283 0 1283 0 1233.5 -1.5 c 128,-1,2
 1184 -3 1184 -3 1117 -5 c 2,3,-1
 956 -11 l 1,4,-1
 956 113 l 1,5,6
 975 116 975 116 992 117 c 128,-1,7
 1009 118 1009 118 1021.5 121 c 128,-1,8
 1034 124 1034 124 1041 130.5 c 128,-1,9
 1048 137 1048 137 1048 151 c 0,10,11
 1048 156 1048 156 1047 161 c 128,-1,12
 1046 166 1046 166 1044 173 c 2,13,-1
 974 390 l 1,14,-1
 638 390 l 1,15,-1
 598 256 l 2,16,17
 590 232 590 232 587 211 c 128,-1,18
 584 190 584 190 584 173 c 0,19,20
 584 158 584 158 592 149 c 128,-1,21
 600 140 600 140 613 134 c 128,-1,22
 626 128 626 128 643.5 124.5 c 128,-1,23
 661 121 661 121 681 118 c 1,24,-1
 656 -11 l 1,25,26
 601 -6 601 -6 525 -3 c 128,-1,27
 449 0 449 0 349 0 c 0,28,29
 228 0 228 0 143 -3 c 128,-1,30
 58 -6 58 -6 7 -11 c 1,31,-1
 44 122 l 1,32,-1
 70 126 l 2,33,34
 103 131 103 131 124.5 139.5 c 128,-1,35
 146 148 146 148 160.5 162 c 128,-1,36
 175 176 175 176 185 197.5 c 128,-1,37
 195 219 195 219 207 250 c 0,38,39
 273 426 273 426 332.5 580.5 c 128,-1,40
 392 735 392 735 447 874 c 128,-1,41
 502 1013 502 1013 552.5 1140 c 128,-1,42
 603 1267 603 1267 651 1387 c 1,43,-1
 834 1387 l 2,44,45
 880 1387 880 1387 919.5 1384 c 128,-1,46
 959 1381 959 1381 990.5 1372 c 128,-1,47
 1022 1363 1022 1363 1043.5 1346 c 128,-1,48
 1065 1329 1065 1329 1076 1301 c 0,49,50
 1153 1094 1153 1094 1212 935 c 128,-1,51
 1271 776 1271 776 1315 656.5 c 128,-1,52
 1359 537 1359 537 1390 453 c 128,-1,53
 1421 369 1421 369 1442 313 c 128,-1,54
 1463 257 1463 257 1475 224.5 c 128,-1,55
 1487 192 1487 192 1493 175.5 c 128,-1,56
 1499 159 1499 159 1500.5 154 c 128,-1,57
 1502 149 1502 149 1502 148 c 2,58,-1
 1642 128 l 1,59,-1
 1668 -11 l 1,60,61
 1506 -6 1506 -6 1419.5 -3 c 128,-1,62
 1333 0 1333 0 1317 0 c 0,0,1
799 1006 m 1,63,-1
 668 543 l 1,64,-1
 932 543 l 1,65,66
 920 583 920 583 904.5 639 c 128,-1,67
 889 695 889 695 872 758 c 128,-1,68
 855 821 855 821 837 885 c 128,-1,69
 819 949 819 949 803 1006 c 1,70,-1
 799 1006 l 1,63,-1
EndSplineSet
EndChar

StartChar: B
Encoding: 66 66 56
Width: 1493
GlyphClass: 2
Flags: W
LayerCount: 2
Fore
SplineSet
1151 703 m 1,0,1
 1434 625 1434 625 1434 382 c 0,2,3
 1434 296 1434 296 1407.5 234 c 128,-1,4
 1381 172 1381 172 1334 128.5 c 128,-1,5
 1287 85 1287 85 1223 58 c 128,-1,6
 1159 31 1159 31 1082.5 16 c 128,-1,7
 1006 1 1006 1 921 -4.5 c 128,-1,8
 836 -10 836 -10 748 -10 c 0,9,10
 353 -10 353 -10 64 11 c 1,11,-1
 64 167 l 1,12,-1
 206 167 l 2,13,14
 225 167 225 167 235.5 176 c 128,-1,15
 246 185 246 185 251.5 200.5 c 128,-1,16
 257 216 257 216 258 236 c 128,-1,17
 259 256 259 256 259 278 c 2,18,-1
 259 1092 l 2,19,20
 259 1159 259 1159 252 1197 c 1,21,-1
 50 1197 l 1,22,-1
 50 1364 l 1,23,24
 230 1375 230 1375 415.5 1381 c 128,-1,25
 601 1387 601 1387 801 1387 c 0,26,27
 1401 1387 1401 1387 1401 1006 c 0,28,29
 1401 962 1401 962 1385 918.5 c 128,-1,30
 1369 875 1369 875 1337.5 835.5 c 128,-1,31
 1306 796 1306 796 1259 762 c 128,-1,32
 1212 728 1212 728 1151 703 c 1,0,1
729 609 m 0,33,34
 716 609 716 609 704.5 608.5 c 128,-1,35
 693 608 693 608 688 608 c 1,36,-1
 688 167 l 1,37,38
 723 165 723 165 752.5 163.5 c 128,-1,39
 782 162 782 162 807 162 c 0,40,41
 904 162 904 162 951 217 c 128,-1,42
 998 272 998 272 998 375 c 0,43,44
 998 439 998 439 982 484 c 128,-1,45
 966 529 966 529 933 556.5 c 128,-1,46
 900 584 900 584 849 596.5 c 128,-1,47
 798 609 798 609 729 609 c 0,33,34
738 772 m 2,48,49
 850 772 850 772 909.5 830 c 128,-1,50
 969 888 969 888 969 1000 c 0,51,52
 969 1109 969 1109 918.5 1160 c 128,-1,53
 868 1211 868 1211 759 1211 c 0,54,55
 739 1211 739 1211 727 1211 c 128,-1,56
 715 1211 715 1211 707.5 1211 c 128,-1,57
 700 1211 700 1211 695.5 1210.5 c 128,-1,58
 691 1210 691 1210 688 1210 c 1,59,-1
 688 772 l 1,60,-1
 738 772 l 2,48,49
EndSplineSet
EndChar

StartChar: C
Encoding: 67 67 57
Width: 1477
GlyphClass: 2
Flags: W
LayerCount: 2
Fore
SplineSet
869 158 m 0,0,1
 949 158 949 158 1018 170 c 128,-1,2
 1087 182 1087 182 1149 203 c 128,-1,3
 1211 224 1211 224 1269 251 c 128,-1,4
 1327 278 1327 278 1386 308 c 1,5,-1
 1411 112 l 1,6,7
 1160 -35 1160 -35 843 -35 c 0,8,9
 667 -35 667 -35 526 11.5 c 128,-1,10
 385 58 385 58 287 147.5 c 128,-1,11
 189 237 189 237 136.5 366 c 128,-1,12
 84 495 84 495 84 660 c 0,13,14
 84 843 84 843 137 983.5 c 128,-1,15
 190 1124 190 1124 290.5 1219 c 128,-1,16
 391 1314 391 1314 536 1363 c 128,-1,17
 681 1412 681 1412 865 1412 c 0,18,19
 947 1412 947 1412 1018.5 1405.5 c 128,-1,20
 1090 1399 1090 1399 1154.5 1384 c 128,-1,21
 1219 1369 1219 1369 1278.5 1344.5 c 128,-1,22
 1338 1320 1338 1320 1395 1284 c 1,23,-1
 1331 990 l 1,24,-1
 1028 1032 l 1,25,-1
 1007 1222 l 1,26,27
 936 1240 936 1240 875 1240 c 0,28,29
 713 1240 713 1240 625 1107.5 c 128,-1,30
 537 975 537 975 537 701 c 0,31,32
 537 439 537 439 619.5 298.5 c 128,-1,33
 702 158 702 158 869 158 c 0,0,1
EndSplineSet
EndChar

StartChar: D
Encoding: 68 68 58
Width: 1675
GlyphClass: 2
Flags: W
LayerCount: 2
Fore
SplineSet
813 1387 m 0,0,1
 1004 1387 1004 1387 1149.5 1345.5 c 128,-1,2
 1295 1304 1295 1304 1393 1218 c 128,-1,3
 1491 1132 1491 1132 1541 999 c 128,-1,4
 1591 866 1591 866 1591 682 c 0,5,6
 1591 500 1591 500 1533 371 c 128,-1,7
 1475 242 1475 242 1369 159.5 c 128,-1,8
 1263 77 1263 77 1115 38.5 c 128,-1,9
 967 0 967 0 786 0 c 2,10,-1
 58 0 l 1,11,-1
 58 151 l 1,12,-1
 248 151 l 1,13,14
 248 151 248 151 249 161.5 c 128,-1,15
 250 172 250 172 251 189.5 c 128,-1,16
 252 207 252 207 253 230 c 128,-1,17
 254 253 254 253 254 278 c 2,18,-1
 254 1093 l 2,19,20
 254 1161 254 1161 245 1206 c 1,21,-1
 50 1206 l 1,22,-1
 50 1366 l 1,23,24
 389 1387 389 1387 813 1387 c 0,0,1
1140 689 m 0,25,26
 1140 808 1140 808 1125.5 904.5 c 128,-1,27
 1111 1001 1111 1001 1071 1069 c 128,-1,28
 1031 1137 1031 1137 960.5 1174 c 128,-1,29
 890 1211 890 1211 778 1211 c 0,30,31
 774 1211 774 1211 768.5 1211 c 128,-1,32
 763 1211 763 1211 752.5 1210.5 c 128,-1,33
 742 1210 742 1210 725.5 1210 c 128,-1,34
 709 1210 709 1210 683 1210 c 1,35,-1
 683 171 l 1,36,37
 692 170 692 170 700.5 170 c 128,-1,38
 709 170 709 170 717 170 c 0,39,40
 841 170 841 170 922.5 206 c 128,-1,41
 1004 242 1004 242 1052.5 309.5 c 128,-1,42
 1101 377 1101 377 1120.5 473 c 128,-1,43
 1140 569 1140 569 1140 689 c 0,25,26
EndSplineSet
EndChar

StartChar: E
Encoding: 69 69 59
Width: 1443
GlyphClass: 2
Flags: W
LayerCount: 2
Fore
SplineSet
50 1363 m 1,0,1
 420 1387 420 1387 734 1387 c 0,2,3
 860 1387 860 1387 950.5 1387 c 128,-1,4
 1041 1387 1041 1387 1103.5 1387 c 128,-1,5
 1166 1387 1166 1387 1205.5 1387 c 128,-1,6
 1245 1387 1245 1387 1269 1387 c 128,-1,7
 1293 1387 1293 1387 1306 1387.5 c 128,-1,8
 1319 1388 1319 1388 1329 1388 c 1,9,-1
 1384 1066 l 1,10,-1
 1161 1038 l 1,11,12
 1156 1078 1156 1078 1146 1114.5 c 128,-1,13
 1136 1151 1136 1151 1120 1185 c 1,14,15
 994 1203 994 1203 908 1203 c 2,16,-1
 691 1203 l 1,17,-1
 691 777 l 1,18,-1
 864 777 l 2,19,20
 883 777 883 777 894.5 791 c 128,-1,21
 906 805 906 805 912.5 825.5 c 128,-1,22
 919 846 919 846 923 869 c 128,-1,23
 927 892 927 892 932 911 c 1,24,-1
 1083 911 l 1,25,-1
 1083 476 l 1,26,27
 1069 475 1069 475 1055 475 c 128,-1,28
 1041 475 1041 475 1027 475 c 2,29,-1
 932 475 l 1,30,31
 923 518 923 518 915.5 546 c 128,-1,32
 908 574 908 574 900 590.5 c 128,-1,33
 892 607 892 607 883.5 613 c 128,-1,34
 875 619 875 619 864 619 c 2,35,-1
 691 619 l 1,36,-1
 691 167 l 1,37,-1
 971 167 l 2,38,39
 1053 167 1053 167 1092 180 c 1,40,41
 1099 200 1099 200 1106.5 244.5 c 128,-1,42
 1114 289 1114 289 1124 361 c 1,43,44
 1188 359 1188 359 1252 359 c 128,-1,45
 1316 359 1316 359 1391 359 c 1,46,47
 1389 271 1389 271 1386 185 c 128,-1,48
 1383 99 1383 99 1378 14 c 1,49,50
 1142 -1 1142 -1 974 -1 c 0,51,52
 850 -1 850 -1 748.5 -1 c 128,-1,53
 647 -1 647 -1 562.5 -1 c 128,-1,54
 478 -1 478 -1 407.5 -1 c 128,-1,55
 337 -1 337 -1 275.5 -0.5 c 128,-1,56
 214 0 214 0 159 0.5 c 128,-1,57
 104 1 104 1 50 1 c 1,58,-1
 50 167 l 1,59,-1
 257 167 l 1,60,61
 259 184 259 184 260.5 203 c 128,-1,62
 262 222 262 222 262 245 c 2,63,-1
 262 1111 l 2,64,65
 262 1140 262 1140 260.5 1163 c 128,-1,66
 259 1186 259 1186 257 1203 c 1,67,-1
 50 1203 l 1,68,-1
 50 1363 l 1,0,1
EndSplineSet
EndChar

StartChar: F
Encoding: 70 70 60
Width: 1283
GlyphClass: 2
Flags: W
LayerCount: 2
Fore
SplineSet
50 1365 m 1,0,1
 217 1376 217 1376 362 1381.5 c 128,-1,2
 507 1387 507 1387 639 1387 c 0,3,4
 655 1387 655 1387 674.5 1387 c 128,-1,5
 694 1387 694 1387 725.5 1387 c 128,-1,6
 757 1387 757 1387 803.5 1387 c 128,-1,7
 850 1387 850 1387 920 1387 c 128,-1,8
 990 1387 990 1387 1087 1386.5 c 128,-1,9
 1184 1386 1184 1386 1316 1386 c 1,10,-1
 1351 1046 l 1,11,-1
 1128 1028 l 1,12,13
 1123 1053 1123 1053 1114.5 1091.5 c 128,-1,14
 1106 1130 1106 1130 1091 1193 c 1,15,16
 1056 1198 1056 1198 1029.5 1200.5 c 128,-1,17
 1003 1203 1003 1203 985 1203 c 2,18,-1
 661 1203 l 1,19,-1
 661 777 l 1,20,-1
 862 777 l 2,21,22
 881 777 881 777 892.5 791 c 128,-1,23
 904 805 904 805 910.5 825.5 c 128,-1,24
 917 846 917 846 921 869 c 128,-1,25
 925 892 925 892 930 911 c 1,26,-1
 1081 911 l 1,27,-1
 1081 476 l 1,28,29
 1074 476 1074 476 1065.5 475.5 c 128,-1,30
 1057 475 1057 475 1041 475 c 128,-1,31
 1025 475 1025 475 999 475 c 128,-1,32
 973 475 973 475 930 475 c 1,33,34
 921 518 921 518 913.5 546 c 128,-1,35
 906 574 906 574 898 590.5 c 128,-1,36
 890 607 890 607 881.5 613 c 128,-1,37
 873 619 873 619 862 619 c 2,38,-1
 661 619 l 1,39,-1
 661 259 l 2,40,41
 661 231 661 231 662.5 208.5 c 128,-1,42
 664 186 664 186 666 167 c 1,43,-1
 824 167 l 1,44,-1
 824 -11 l 1,45,46
 721 -6 721 -6 631 -3 c 128,-1,47
 541 0 541 0 460 0 c 0,48,49
 372 0 372 0 270 -3 c 128,-1,50
 168 -6 168 -6 50 -11 c 1,51,-1
 50 167 l 1,52,-1
 226 167 l 1,53,54
 232 194 232 194 232 259 c 2,55,-1
 232 1111 l 2,56,57
 232 1142 232 1142 230.5 1165 c 128,-1,58
 229 1188 229 1188 227 1203 c 1,59,-1
 50 1203 l 1,60,-1
 50 1365 l 1,0,1
EndSplineSet
EndChar

StartChar: G
Encoding: 71 71 61
Width: 1504
GlyphClass: 2
Flags: W
LayerCount: 2
Fore
SplineSet
876 177 m 0,0,1
 971 177 971 177 1034 196 c 1,2,-1
 1034 405 l 2,3,4
 1034 472 1034 472 1027 499 c 1,5,-1
 814 499 l 1,6,-1
 814 624 l 1,7,8
 964 643 964 643 1112 652 c 128,-1,9
 1260 661 1260 661 1414 661 c 2,10,-1
 1458 661 l 1,11,-1
 1458 136 l 1,12,13
 1210 -22 1210 -22 874 -22 c 0,14,15
 695 -22 695 -22 550.5 23 c 128,-1,16
 406 68 406 68 304 155 c 128,-1,17
 202 242 202 242 146.5 369.5 c 128,-1,18
 91 497 91 497 91 662 c 0,19,20
 91 855 91 855 151.5 996.5 c 128,-1,21
 212 1138 212 1138 323 1230 c 128,-1,22
 434 1322 434 1322 591 1367 c 128,-1,23
 748 1412 748 1412 942 1412 c 0,24,25
 1011 1412 1011 1412 1086 1402.5 c 128,-1,26
 1161 1393 1161 1393 1230 1375.5 c 128,-1,27
 1299 1358 1299 1358 1357.5 1334.5 c 128,-1,28
 1416 1311 1416 1311 1452 1283 c 1,29,-1
 1388 987 l 1,30,-1
 1083 1028 l 1,31,32
 1081 1056 1081 1056 1078 1089.5 c 128,-1,33
 1075 1123 1075 1123 1072 1152 c 0,34,35
 1068 1186 1068 1186 1065 1220 c 1,36,37
 976 1244 976 1244 903 1244 c 0,38,39
 817 1244 817 1244 750 1210.5 c 128,-1,40
 683 1177 683 1177 637 1108 c 128,-1,41
 591 1039 591 1039 567 933 c 128,-1,42
 543 827 543 827 543 682 c 0,43,44
 543 573 543 573 563.5 480.5 c 128,-1,45
 584 388 584 388 625 320.5 c 128,-1,46
 666 253 666 253 729 215 c 128,-1,47
 792 177 792 177 876 177 c 0,0,1
EndSplineSet
EndChar

StartChar: H
Encoding: 72 72 62
Width: 1759
GlyphClass: 2
Flags: W
LayerCount: 2
Fore
SplineSet
463 0 m 0,0,1
 375 0 375 0 273 -3 c 128,-1,2
 171 -6 171 -6 53 -11 c 1,3,-1
 53 167 l 1,4,-1
 229 167 l 1,5,6
 235 194 235 194 235 259 c 2,7,-1
 235 1123 l 1,8,9
 233 1154 233 1154 231 1177 c 128,-1,10
 229 1200 229 1200 227 1215 c 1,11,-1
 50 1215 l 1,12,-1
 50 1377 l 1,13,14
 155 1388 155 1388 248 1393.5 c 128,-1,15
 341 1399 341 1399 429 1399 c 0,16,17
 552 1399 552 1399 650 1395 c 128,-1,18
 748 1391 748 1391 824 1383 c 1,19,-1
 824 1215 l 1,20,-1
 666 1215 l 1,21,22
 664 1199 664 1199 662.5 1180 c 128,-1,23
 661 1161 661 1161 661 1139 c 2,24,-1
 661 805 l 1,25,-1
 1097 805 l 1,26,-1
 1097 1123 l 1,27,-1
 1089 1215 l 1,28,-1
 932 1215 l 1,29,-1
 932 1377 l 1,30,31
 1037 1388 1037 1388 1130 1393.5 c 128,-1,32
 1223 1399 1223 1399 1311 1399 c 0,33,34
 1434 1399 1434 1399 1532 1395 c 128,-1,35
 1630 1391 1630 1391 1706 1383 c 1,36,-1
 1706 1215 l 1,37,-1
 1528 1215 l 1,38,39
 1526 1198 1526 1198 1524.5 1175 c 128,-1,40
 1523 1152 1523 1152 1523 1123 c 2,41,-1
 1523 259 l 1,42,43
 1525 232 1525 232 1527 209 c 128,-1,44
 1529 186 1529 186 1531 167 c 1,45,-1
 1709 167 l 1,46,-1
 1709 -11 l 1,47,48
 1600 -6 1600 -6 1505 -3 c 128,-1,49
 1410 0 1410 0 1325 0 c 256,50,51
 1240 0 1240 0 1143.5 -3 c 128,-1,52
 1047 -6 1047 -6 935 -11 c 1,53,-1
 935 167 l 1,54,-1
 1091 167 l 1,55,56
 1097 194 1097 194 1097 259 c 2,57,-1
 1097 623 l 1,58,-1
 664 623 l 1,59,-1
 664 259 l 2,60,61
 664 231 664 231 665.5 208.5 c 128,-1,62
 667 186 667 186 669 167 c 1,63,-1
 827 167 l 1,64,-1
 827 -11 l 1,65,66
 724 -6 724 -6 634 -3 c 128,-1,67
 544 0 544 0 463 0 c 0,0,1
EndSplineSet
EndChar

StartChar: I
Encoding: 73 73 63
Width: 906
GlyphClass: 2
Flags: W
LayerCount: 2
Fore
SplineSet
466 0 m 0,0,1
 375 0 375 0 271 -3 c 128,-1,2
 167 -6 167 -6 46 -11 c 1,3,-1
 46 167 l 1,4,-1
 232 167 l 1,5,6
 238 194 238 194 238 259 c 2,7,-1
 238 1123 l 2,8,9
 238 1154 238 1154 236.5 1177 c 128,-1,10
 235 1200 235 1200 233 1215 c 1,11,-1
 46 1215 l 1,12,-1
 46 1377 l 1,13,14
 155 1388 155 1388 251 1393.5 c 128,-1,15
 347 1399 347 1399 435 1399 c 0,16,17
 567 1399 567 1399 671.5 1395 c 128,-1,18
 776 1391 776 1391 860 1383 c 1,19,-1
 860 1215 l 1,20,-1
 672 1215 l 1,21,22
 670 1198 670 1198 668.5 1175 c 128,-1,23
 667 1152 667 1152 667 1123 c 2,24,-1
 667 259 l 2,25,26
 667 231 667 231 668.5 208.5 c 128,-1,27
 670 186 670 186 672 167 c 1,28,-1
 860 167 l 1,29,-1
 860 -11 l 1,30,31
 748 -6 748 -6 649.5 -3 c 128,-1,32
 551 0 551 0 466 0 c 0,0,1
EndSplineSet
EndChar

StartChar: J
Encoding: 74 74 64
Width: 1015
GlyphClass: 2
Flags: W
LayerCount: 2
Fore
SplineSet
827 1216 m 1,0,1
 825 1202 825 1202 824 1179 c 128,-1,2
 823 1156 823 1156 823 1124 c 2,3,-1
 823 216 l 2,4,5
 823 -22 823 -22 701 -149 c 128,-1,6
 579 -276 579 -276 347 -276 c 0,7,8
 144 -276 144 -276 16 -221 c 1,9,10
 16 -202 16 -202 19.5 -155 c 128,-1,11
 23 -108 23 -108 30 -30 c 2,12,-1
 44 143 l 1,13,-1
 288 143 l 1,14,-1
 302 -93 l 1,15,16
 329 -105 329 -105 353 -105 c 0,17,18
 457 -105 457 -105 457 2 c 0,19,20
 457 33 457 33 451 69.5 c 128,-1,21
 445 106 445 106 438 130 c 2,22,-1
 403 250 l 2,23,24
 393 284 393 284 393 312 c 2,25,-1
 393 1124 l 2,26,27
 393 1155 393 1155 391.5 1178 c 128,-1,28
 390 1201 390 1201 388 1216 c 1,29,-1
 201 1216 l 1,30,-1
 201 1378 l 1,31,32
 310 1389 310 1389 406 1394.5 c 128,-1,33
 502 1400 502 1400 590 1400 c 0,34,35
 722 1400 722 1400 826.5 1396 c 128,-1,36
 931 1392 931 1392 1015 1384 c 1,37,-1
 1015 1216 l 1,38,-1
 827 1216 l 1,0,1
EndSplineSet
EndChar

StartChar: K
Encoding: 75 75 65
Width: 1802
GlyphClass: 2
Flags: W
LayerCount: 2
Fore
SplineSet
1529 0 m 0,0,1
 1411 0 1411 0 1279.5 -3 c 128,-1,2
 1148 -6 1148 -6 998 -11 c 1,3,-1
 988 167 l 1,4,-1
 1065 167 l 1,5,6
 1060 178 1060 178 1057 187 c 128,-1,7
 1054 196 1054 196 1049.5 206 c 128,-1,8
 1045 216 1045 216 1038.5 228.5 c 128,-1,9
 1032 241 1032 241 1020 259 c 2,10,-1
 702 728 l 1,11,-1
 1082 1123 l 2,12,13
 1116 1158 1116 1158 1138 1181 c 128,-1,14
 1160 1204 1160 1204 1168 1215 c 1,15,-1
 981 1215 l 1,16,-1
 972 1377 l 1,17,18
 1090 1388 1090 1388 1192.5 1393.5 c 128,-1,19
 1295 1399 1295 1399 1383 1399 c 0,20,21
 1512 1399 1512 1399 1611 1395 c 128,-1,22
 1710 1391 1710 1391 1782 1383 c 1,23,-1
 1705 1215 l 1,24,-1
 1517 1215 l 1,25,26
 1506 1205 1506 1205 1482 1182 c 128,-1,27
 1458 1159 1458 1159 1421 1123 c 2,28,-1
 1125 832 l 1,29,-1
 1559 259 l 2,30,31
 1564 252 1564 252 1570.5 244.5 c 128,-1,32
 1577 237 1577 237 1586.5 226.5 c 128,-1,33
 1596 216 1596 216 1610 201.5 c 128,-1,34
 1624 187 1624 187 1645 167 c 1,35,-1
 1753 167 l 1,36,-1
 1802 -11 l 1,37,38
 1705 -6 1705 -6 1638 -3 c 128,-1,39
 1571 0 1571 0 1529 0 c 0,0,1
470 0 m 0,40,41
 379 0 379 0 275 -3 c 128,-1,42
 171 -6 171 -6 50 -11 c 1,43,-1
 50 167 l 1,44,-1
 236 167 l 1,45,46
 242 194 242 194 242 259 c 2,47,-1
 242 1123 l 2,48,49
 242 1154 242 1154 240.5 1177 c 128,-1,50
 239 1200 239 1200 237 1215 c 1,51,-1
 50 1215 l 1,52,-1
 50 1377 l 1,53,54
 159 1388 159 1388 255 1393.5 c 128,-1,55
 351 1399 351 1399 439 1399 c 0,56,57
 571 1399 571 1399 675.5 1395 c 128,-1,58
 780 1391 780 1391 864 1383 c 1,59,-1
 864 1215 l 1,60,-1
 676 1215 l 1,61,62
 674 1198 674 1198 672.5 1175 c 128,-1,63
 671 1152 671 1152 671 1123 c 2,64,-1
 671 259 l 2,65,66
 671 231 671 231 672.5 208.5 c 128,-1,67
 674 186 674 186 676 167 c 1,68,-1
 864 167 l 1,69,-1
 864 -11 l 1,70,71
 752 -6 752 -6 653.5 -3 c 128,-1,72
 555 0 555 0 470 0 c 0,40,41
EndSplineSet
EndChar

StartChar: L
Encoding: 76 76 66
Width: 1378
GlyphClass: 2
Flags: W
LayerCount: 2
Fore
SplineSet
678 1215 m 1,0,1
 671 1186 671 1186 671 1129 c 2,2,-1
 671 167 l 1,3,-1
 900 167 l 2,4,5
 936 167 936 167 959.5 180.5 c 128,-1,6
 983 194 983 194 998.5 214.5 c 128,-1,7
 1014 235 1014 235 1022.5 258.5 c 128,-1,8
 1031 282 1031 282 1037 303 c 0,9,10
 1047 338 1047 338 1060 377.5 c 128,-1,11
 1073 417 1073 417 1089 471 c 1,12,-1
 1324 439 l 1,13,-1
 1282 0 l 1,14,-1
 861 0 l 2,15,16
 559 0 559 0 372 -2 c 128,-1,17
 185 -4 185 -4 116 -12 c 1,18,-1
 116 167 l 1,19,-1
 238 167 l 1,20,21
 240 212 240 212 241 251.5 c 128,-1,22
 242 291 242 291 242 326 c 2,23,-1
 242 1129 l 2,24,25
 242 1156 242 1156 240.5 1177.5 c 128,-1,26
 239 1199 239 1199 237 1215 c 1,27,-1
 50 1215 l 1,28,-1
 50 1377 l 1,29,30
 159 1388 159 1388 255 1393.5 c 128,-1,31
 351 1399 351 1399 439 1399 c 0,32,33
 571 1399 571 1399 676 1395 c 128,-1,34
 781 1391 781 1391 865 1383 c 1,35,-1
 865 1215 l 1,36,-1
 678 1215 l 1,0,1
EndSplineSet
EndChar

StartChar: M
Encoding: 77 77 67
Width: 2220
GlyphClass: 2
Flags: W
LayerCount: 2
Fore
SplineSet
1611 1399 m 0,0,1
 1714 1399 1714 1399 1825.5 1394.5 c 128,-1,2
 1937 1390 1937 1390 2058 1382 c 1,3,-1
 2058 1215 l 1,4,-1
 1865 1215 l 1,5,6
 1868 1178 1868 1178 1873.5 1121 c 128,-1,7
 1879 1064 1879 1064 1885.5 994 c 128,-1,8
 1892 924 1892 924 1899.5 845.5 c 128,-1,9
 1907 767 1907 767 1914.5 688.5 c 128,-1,10
 1922 610 1922 610 1929.5 536 c 128,-1,11
 1937 462 1937 462 1943 400 c 128,-1,12
 1949 338 1949 338 1953.5 292.5 c 128,-1,13
 1958 247 1958 247 1960 227 c 0,14,15
 1962 206 1962 206 1964.5 192.5 c 128,-1,16
 1967 179 1967 179 1971 167 c 1,17,-1
 2156 167 l 1,18,-1
 2174 -16 l 1,19,20
 2083 -8 2083 -8 1983 -4 c 128,-1,21
 1883 0 1883 0 1771 0 c 0,22,23
 1671 0 1671 0 1582 -3 c 128,-1,24
 1493 -6 1493 -6 1408 -11 c 1,25,-1
 1420 167 l 1,26,-1
 1536 167 l 2,27,28
 1535 167 1535 167 1523 311.5 c 128,-1,29
 1511 456 1511 456 1483 757 c 1,30,31
 1408 492 1408 492 1353 305.5 c 128,-1,32
 1298 119 1298 119 1263 2 c 1,33,-1
 894 2 l 1,34,35
 833 175 833 175 766.5 362 c 128,-1,36
 700 549 700 549 628 760 c 1,37,38
 616 649 616 649 605 544 c 128,-1,39
 594 439 594 439 585 354 c 0,40,41
 574 255 574 255 566 167 c 1,42,-1
 754 167 l 1,43,-1
 736 -11 l 1,44,45
 636 -6 636 -6 558.5 -3 c 128,-1,46
 481 0 481 0 421 0 c 0,47,48
 334 0 334 0 242 -4 c 128,-1,49
 150 -8 150 -8 50 -16 c 1,50,-1
 68 167 l 1,51,-1
 253 167 l 1,52,-1
 359 1151 l 2,53,54
 360 1156 360 1156 360 1161.5 c 128,-1,55
 360 1167 360 1167 360 1172 c 0,56,57
 360 1186 360 1186 359 1196.5 c 128,-1,58
 358 1207 358 1207 357 1215 c 1,59,-1
 153 1215 l 1,60,-1
 153 1382 l 1,61,62
 274 1390 274 1390 385.5 1394.5 c 128,-1,63
 497 1399 497 1399 600 1399 c 0,64,65
 672 1399 672 1399 729.5 1393 c 128,-1,66
 787 1387 787 1387 833 1376 c 1,67,68
 846 1336 846 1336 867.5 1272 c 128,-1,69
 889 1208 889 1208 915 1131 c 128,-1,70
 941 1054 941 1054 969 972 c 128,-1,71
 997 890 997 890 1023 814 c 128,-1,72
 1049 738 1049 738 1070.5 675.5 c 128,-1,73
 1092 613 1092 613 1104 577 c 1,74,-1
 1274 1078 l 2,75,76
 1320 1213 1320 1213 1345.5 1286.5 c 128,-1,77
 1371 1360 1371 1360 1378 1376 c 1,78,79
 1470 1399 1470 1399 1611 1399 c 0,0,1
EndSplineSet
EndChar

StartChar: N
Encoding: 78 78 68
Width: 1736
GlyphClass: 2
Flags: W
LayerCount: 2
Fore
SplineSet
425 0 m 0,0,1
 349 0 349 0 255.5 -3 c 128,-1,2
 162 -6 162 -6 50 -13 c 1,3,-1
 50 167 l 1,4,-1
 256 167 l 1,5,6
 262 192 262 192 262 259 c 2,7,-1
 262 1123 l 2,8,9
 262 1152 262 1152 260.5 1175 c 128,-1,10
 259 1198 259 1198 257 1215 c 1,11,-1
 50 1215 l 1,12,-1
 50 1370 l 1,13,14
 150 1384 150 1384 252.5 1391.5 c 128,-1,15
 355 1399 355 1399 464 1399 c 0,16,17
 515 1399 515 1399 567.5 1393.5 c 128,-1,18
 620 1388 620 1388 677 1377 c 1,19,20
 783 1215 783 1215 913 1021.5 c 128,-1,21
 1043 828 1043 828 1202 595 c 1,22,-1
 1202 1123 l 2,23,24
 1202 1191 1202 1191 1194 1217 c 1,25,-1
 990 1217 l 1,26,-1
 990 1381 l 1,27,28
 1105 1399 1105 1399 1324 1399 c 0,29,30
 1423 1399 1423 1399 1513 1396 c 128,-1,31
 1603 1393 1603 1393 1690 1386 c 1,32,-1
 1690 1217 l 1,33,-1
 1508 1217 l 1,34,35
 1506 1203 1506 1203 1504.5 1180 c 128,-1,36
 1503 1157 1503 1157 1503 1125 c 2,37,-1
 1503 0 l 1,38,-1
 1270 0 l 2,39,40
 1232 0 1232 0 1189 3 c 128,-1,41
 1146 6 1146 6 1095 11 c 1,42,-1
 595 791 l 1,43,-1
 595 262 l 2,44,45
 595 253 595 253 596 238.5 c 128,-1,46
 597 224 597 224 598 210 c 128,-1,47
 599 196 599 196 600 183.5 c 128,-1,48
 601 171 601 171 601 167 c 1,49,-1
 799 167 l 1,50,-1
 799 -13 l 1,51,52
 684 -6 684 -6 591 -3 c 128,-1,53
 498 0 498 0 425 0 c 0,0,1
EndSplineSet
EndChar

StartChar: O
Encoding: 79 79 69
Width: 1623
GlyphClass: 2
Flags: W
LayerCount: 2
Fore
SplineSet
533 686 m 0,0,1
 533 434 533 434 602.5 300.5 c 128,-1,2
 672 167 672 167 812 167 c 0,3,4
 945 167 945 167 1018 295.5 c 128,-1,5
 1091 424 1091 424 1091 689 c 0,6,7
 1091 955 1091 955 1019 1089 c 128,-1,8
 947 1223 947 1223 812 1223 c 0,9,10
 680 1223 680 1223 606.5 1090 c 128,-1,11
 533 957 533 957 533 686 c 0,0,1
1542 689 m 0,12,13
 1542 520 1542 520 1491 388 c 128,-1,14
 1440 256 1440 256 1345 165 c 128,-1,15
 1250 74 1250 74 1115 26 c 128,-1,16
 980 -22 980 -22 812 -22 c 0,17,18
 640 -22 640 -22 504.5 27.5 c 128,-1,19
 369 77 369 77 275 169 c 128,-1,20
 181 261 181 261 131 392.5 c 128,-1,21
 81 524 81 524 81 689 c 0,22,23
 81 861 81 861 131.5 995.5 c 128,-1,24
 182 1130 182 1130 276.5 1222.5 c 128,-1,25
 371 1315 371 1315 506.5 1363.5 c 128,-1,26
 642 1412 642 1412 812 1412 c 0,27,28
 984 1412 984 1412 1119.5 1362 c 128,-1,29
 1255 1312 1255 1312 1349 1218.5 c 128,-1,30
 1443 1125 1443 1125 1492.5 991 c 128,-1,31
 1542 857 1542 857 1542 689 c 0,12,13
EndSplineSet
EndChar

StartChar: P
Encoding: 80 80 70
Width: 1426
GlyphClass: 2
Flags: W
LayerCount: 2
Fore
SplineSet
747 1399 m 0,0,1
 882 1399 882 1399 997 1381 c 128,-1,2
 1112 1363 1112 1363 1196.5 1316 c 128,-1,3
 1281 1269 1281 1269 1328.5 1186 c 128,-1,4
 1376 1103 1376 1103 1376 974 c 0,5,6
 1376 772 1376 772 1225.5 660.5 c 128,-1,7
 1075 549 1075 549 773 549 c 2,8,-1
 695 549 l 1,9,10
 695 476 695 476 695 426 c 128,-1,11
 695 376 695 376 695 343 c 128,-1,12
 695 310 695 310 694.5 292 c 128,-1,13
 694 274 694 274 694 265 c 128,-1,14
 694 256 694 256 694 253.5 c 128,-1,15
 694 251 694 251 694 250 c 0,16,17
 694 240 694 240 695 227 c 128,-1,18
 696 214 696 214 697 202 c 128,-1,19
 698 190 698 190 699 180 c 128,-1,20
 700 170 700 170 700 167 c 1,21,-1
 898 167 l 1,22,-1
 898 -13 l 1,23,24
 766 -6 766 -6 661.5 -3 c 128,-1,25
 557 0 557 0 475 0 c 0,26,27
 390 0 390 0 285 -3 c 128,-1,28
 180 -6 180 -6 50 -13 c 1,29,-1
 50 167 l 1,30,-1
 256 167 l 1,31,32
 258 178 258 178 260.5 201 c 128,-1,33
 263 224 263 224 263 259 c 2,34,-1
 263 1128 l 2,35,36
 263 1157 263 1157 261.5 1179 c 128,-1,37
 260 1201 260 1201 258 1215 c 1,38,-1
 53 1215 l 1,39,-1
 53 1379 l 1,40,41
 203 1389 203 1389 374.5 1394 c 128,-1,42
 546 1399 546 1399 747 1399 c 0,0,1
940 967 m 0,43,44
 940 1032 940 1032 927 1079 c 128,-1,45
 914 1126 914 1126 886 1156 c 128,-1,46
 858 1186 858 1186 813.5 1200.5 c 128,-1,47
 769 1215 769 1215 706 1215 c 2,48,-1
 693 1215 l 1,49,-1
 693 720 l 1,50,-1
 716 720 l 2,51,52
 835 720 835 720 887.5 781.5 c 128,-1,53
 940 843 940 843 940 967 c 0,43,44
EndSplineSet
EndChar

StartChar: Q
Encoding: 81 81 71
Width: 1702
GlyphClass: 2
Flags: W
LayerCount: 2
Fore
SplineSet
1611 -155 m 1,0,1
 1347 -248 1347 -248 1126 -248 c 0,2,3
 1033 -248 1033 -248 955.5 -231 c 128,-1,4
 878 -214 878 -214 811.5 -181.5 c 128,-1,5
 745 -149 745 -149 688.5 -101.5 c 128,-1,6
 632 -54 632 -54 581 7 c 1,7,8
 466 37 466 37 375 96.5 c 128,-1,9
 284 156 284 156 221 242.5 c 128,-1,10
 158 329 158 329 124.5 441.5 c 128,-1,11
 91 554 91 554 91 689 c 0,12,13
 91 861 91 861 141.5 995.5 c 128,-1,14
 192 1130 192 1130 286.5 1222.5 c 128,-1,15
 381 1315 381 1315 516.5 1363.5 c 128,-1,16
 652 1412 652 1412 822 1412 c 0,17,18
 994 1412 994 1412 1129.5 1362 c 128,-1,19
 1265 1312 1265 1312 1359 1218.5 c 128,-1,20
 1453 1125 1453 1125 1502.5 991 c 128,-1,21
 1552 857 1552 857 1552 689 c 0,22,23
 1552 555 1552 555 1520 444.5 c 128,-1,24
 1488 334 1488 334 1427 248.5 c 128,-1,25
 1366 163 1366 163 1279 103.5 c 128,-1,26
 1192 44 1192 44 1082 12 c 1,27,28
 1146 -39 1146 -39 1238 -39 c 0,29,30
 1406 -39 1406 -39 1563 4 c 1,31,-1
 1611 -155 l 1,0,1
543 686 m 0,32,33
 543 434 543 434 612.5 300.5 c 128,-1,34
 682 167 682 167 822 167 c 0,35,36
 955 167 955 167 1028 295.5 c 128,-1,37
 1101 424 1101 424 1101 689 c 0,38,39
 1101 955 1101 955 1029 1089 c 128,-1,40
 957 1223 957 1223 822 1223 c 0,41,42
 690 1223 690 1223 616.5 1090 c 128,-1,43
 543 957 543 957 543 686 c 0,32,33
EndSplineSet
EndChar

StartChar: R
Encoding: 82 82 72
Width: 1571
GlyphClass: 2
Flags: W
LayerCount: 2
Fore
SplineSet
488 0 m 0,0,1
 403 0 403 0 304 -3 c 128,-1,2
 205 -6 205 -6 88 -11 c 1,3,-1
 88 167 l 1,4,-1
 254 167 l 1,5,6
 260 194 260 194 260 259 c 2,7,-1
 260 1127 l 2,8,9
 260 1157 260 1157 258.5 1179 c 128,-1,10
 257 1201 257 1201 255 1215 c 1,11,-1
 50 1215 l 1,12,-1
 50 1382 l 1,13,14
 220 1390 220 1390 386.5 1394.5 c 128,-1,15
 553 1399 553 1399 724 1399 c 0,16,17
 808 1399 808 1399 890.5 1393.5 c 128,-1,18
 973 1388 973 1388 1047 1372 c 128,-1,19
 1121 1356 1121 1356 1184 1327.5 c 128,-1,20
 1247 1299 1247 1299 1292.5 1254 c 128,-1,21
 1338 1209 1338 1209 1364 1144 c 128,-1,22
 1390 1079 1390 1079 1390 991 c 0,23,24
 1390 882 1390 882 1308.5 795 c 128,-1,25
 1227 708 1227 708 1064 651 c 1,26,27
 1147 614 1147 614 1200 571 c 128,-1,28
 1253 528 1253 528 1288 473.5 c 128,-1,29
 1323 419 1323 419 1346.5 350 c 128,-1,30
 1370 281 1370 281 1395 193 c 1,31,-1
 1563 193 l 1,32,-1
 1563 -1 l 1,33,34
 1501 -6 1501 -6 1438.5 -13 c 128,-1,35
 1376 -20 1376 -20 1310 -20 c 0,36,37
 1224 -20 1224 -20 1163 5.5 c 128,-1,38
 1102 31 1102 31 1059.5 72.5 c 128,-1,39
 1017 114 1017 114 989 167 c 128,-1,40
 961 220 961 220 941.5 275.5 c 128,-1,41
 922 331 922 331 907 384.5 c 128,-1,42
 892 438 892 438 874.5 479.5 c 128,-1,43
 857 521 857 521 834.5 546.5 c 128,-1,44
 812 572 812 572 777 572 c 2,45,-1
 692 572 l 1,46,-1
 692 259 l 2,47,48
 692 231 692 231 693.5 208.5 c 128,-1,49
 695 186 695 186 697 167 c 1,50,-1
 835 167 l 1,51,-1
 835 -11 l 1,52,53
 738 -6 738 -6 652 -3 c 128,-1,54
 566 0 566 0 488 0 c 0,0,1
743 739 m 2,55,56
 954 739 954 739 954 983 c 0,57,58
 954 1046 954 1046 941 1090 c 128,-1,59
 928 1134 928 1134 900 1161.5 c 128,-1,60
 872 1189 872 1189 828 1202 c 128,-1,61
 784 1215 784 1215 721 1215 c 2,62,-1
 692 1215 l 1,63,-1
 692 739 l 1,64,-1
 743 739 l 2,55,56
EndSplineSet
EndChar

StartChar: S
Encoding: 83 83 73
Width: 1304
GlyphClass: 2
Flags: W
LayerCount: 2
Fore
SplineSet
504 1109 m 0,0,1
 504 1062 504 1062 517.5 1027.5 c 128,-1,2
 531 993 531 993 559 965.5 c 128,-1,3
 587 938 587 938 628 915 c 128,-1,4
 669 892 669 892 725 868 c 0,5,6
 777 845 777 845 834.5 819.5 c 128,-1,7
 892 794 892 794 947 762.5 c 128,-1,8
 1002 731 1002 731 1052 694 c 128,-1,9
 1102 657 1102 657 1140 612.5 c 128,-1,10
 1178 568 1178 568 1200 514.5 c 128,-1,11
 1222 461 1222 461 1222 398 c 0,12,13
 1222 305 1222 305 1181.5 227.5 c 128,-1,14
 1141 150 1141 150 1065 94.5 c 128,-1,15
 989 39 989 39 881.5 8.5 c 128,-1,16
 774 -22 774 -22 640 -22 c 0,17,18
 551 -22 551 -22 465.5 -8.5 c 128,-1,19
 380 5 380 5 304.5 26.5 c 128,-1,20
 229 48 229 48 167 75 c 128,-1,21
 105 102 105 102 64 130 c 1,22,-1
 144 436 l 1,23,-1
 420 383 l 1,24,25
 422 354 422 354 424.5 319.5 c 128,-1,26
 427 285 427 285 431 255 c 0,27,28
 435 220 435 220 440 185 c 1,29,30
 479 176 479 176 523.5 169 c 128,-1,31
 568 162 568 162 610 162 c 0,32,33
 646 162 646 162 678 169 c 128,-1,34
 710 176 710 176 734.5 193 c 128,-1,35
 759 210 759 210 773 239 c 128,-1,36
 787 268 787 268 787 312 c 0,37,38
 787 367 787 367 769 404.5 c 128,-1,39
 751 442 751 442 715 471 c 128,-1,40
 679 500 679 500 625 525 c 128,-1,41
 571 550 571 550 499 580 c 0,42,43
 282 672 282 672 178.5 784 c 128,-1,44
 75 896 75 896 75 1032 c 0,45,46
 75 1119 75 1119 116.5 1189 c 128,-1,47
 158 1259 158 1259 236 1308.5 c 128,-1,48
 314 1358 314 1358 426 1385 c 128,-1,49
 538 1412 538 1412 679 1412 c 0,50,51
 763 1412 763 1412 835.5 1401.5 c 128,-1,52
 908 1391 908 1391 968.5 1373 c 128,-1,53
 1029 1355 1029 1355 1077 1331.5 c 128,-1,54
 1125 1308 1125 1308 1160 1283 c 1,55,-1
 1098 990 l 1,56,-1
 795 1032 l 1,57,58
 791 1061 791 1061 787 1095.5 c 128,-1,59
 783 1130 783 1130 778 1160 c 0,60,61
 773 1194 773 1194 768 1229 c 1,62,63
 743 1234 743 1234 718 1237.5 c 128,-1,64
 693 1241 693 1241 668 1241 c 0,65,66
 635 1241 635 1241 605 1235 c 128,-1,67
 575 1229 575 1229 552.5 1214 c 128,-1,68
 530 1199 530 1199 517 1173.5 c 128,-1,69
 504 1148 504 1148 504 1109 c 0,0,1
EndSplineSet
EndChar

StartChar: T
Encoding: 84 84 74
Width: 1438
GlyphClass: 2
Flags: W
LayerCount: 2
Fore
SplineSet
731 0 m 0,0,1
 640 0 640 0 536 -3 c 128,-1,2
 432 -6 432 -6 311 -11 c 1,3,-1
 311 167 l 1,4,-1
 497 167 l 1,5,6
 503 194 503 194 503 259 c 2,7,-1
 503 1203 l 1,8,-1
 248 1203 l 1,9,10
 230 1071 230 1071 227 1011 c 1,11,-1
 25 1011 l 1,12,13
 25 1034 25 1034 23.5 1084 c 128,-1,14
 22 1134 22 1134 20.5 1190 c 128,-1,15
 19 1246 19 1246 17.5 1296 c 128,-1,16
 16 1346 16 1346 16 1369 c 1,17,18
 46 1380 46 1380 118.5 1384 c 128,-1,19
 191 1388 191 1388 294 1388 c 2,20,-1
 1144 1388 l 2,21,22
 1247 1388 1247 1388 1319.5 1384 c 128,-1,23
 1392 1380 1392 1380 1422 1369 c 1,24,25
 1422 1353 1422 1353 1421.5 1325 c 128,-1,26
 1421 1297 1421 1297 1420 1262.5 c 128,-1,27
 1419 1228 1419 1228 1417.5 1190 c 128,-1,28
 1416 1152 1416 1152 1415 1117.5 c 128,-1,29
 1414 1083 1414 1083 1413.5 1055 c 128,-1,30
 1413 1027 1413 1027 1413 1011 c 1,31,-1
 1211 1011 l 1,32,33
 1211 1011 1211 1011 1210 1020 c 128,-1,34
 1209 1029 1209 1029 1207.5 1042.5 c 128,-1,35
 1206 1056 1206 1056 1204.5 1073.5 c 128,-1,36
 1203 1091 1203 1091 1201 1109 c 2,37,-1
 1191 1205 l 1,38,-1
 935 1205 l 1,39,-1
 935 259 l 2,40,41
 935 231 935 231 936.5 208.5 c 128,-1,42
 938 186 938 186 940 167 c 1,43,-1
 1128 167 l 1,44,-1
 1128 -11 l 1,45,46
 1016 -6 1016 -6 917.5 -3 c 128,-1,47
 819 0 819 0 731 0 c 0,0,1
EndSplineSet
EndChar

StartChar: U
Encoding: 85 85 75
Width: 1705
GlyphClass: 2
Flags: W
LayerCount: 2
Fore
SplineSet
1490 1215 m 1,0,1
 1488 1198 1488 1198 1486.5 1175 c 128,-1,2
 1485 1152 1485 1152 1485 1123 c 2,3,-1
 1485 514 l 2,4,5
 1485 371 1485 371 1433.5 269.5 c 128,-1,6
 1382 168 1382 168 1294 103 c 128,-1,7
 1206 38 1206 38 1089.5 8 c 128,-1,8
 973 -22 973 -22 844 -22 c 0,9,10
 531 -22 531 -22 375 125.5 c 128,-1,11
 219 273 219 273 219 578 c 2,12,-1
 219 1123 l 2,13,14
 219 1154 219 1154 217.5 1177 c 128,-1,15
 216 1200 216 1200 214 1215 c 1,16,-1
 27 1215 l 1,17,-1
 27 1387 l 1,18,19
 256 1399 256 1399 440 1399 c 0,20,21
 519 1399 519 1399 577 1398 c 128,-1,22
 635 1397 635 1397 678.5 1395.5 c 128,-1,23
 722 1394 722 1394 754 1392 c 128,-1,24
 786 1390 786 1390 814 1387 c 1,25,-1
 814 1215 l 1,26,-1
 656 1215 l 1,27,28
 652 1190 652 1190 650.5 1167.5 c 128,-1,29
 649 1145 649 1145 649 1123 c 2,30,-1
 649 510 l 2,31,32
 649 432 649 432 663.5 368.5 c 128,-1,33
 678 305 678 305 706 260 c 128,-1,34
 734 215 734 215 776 191 c 128,-1,35
 818 167 818 167 872 167 c 0,36,37
 941 167 941 167 985 199.5 c 128,-1,38
 1029 232 1029 232 1054.5 287.5 c 128,-1,39
 1080 343 1080 343 1089.5 417.5 c 128,-1,40
 1099 492 1099 492 1099 577 c 2,41,-1
 1099 1123 l 2,42,43
 1099 1154 1099 1154 1097.5 1177 c 128,-1,44
 1096 1200 1096 1200 1094 1215 c 1,45,-1
 947 1215 l 1,46,-1
 947 1387 l 1,47,48
 1118 1399 1118 1399 1312 1399 c 0,49,50
 1385 1399 1385 1399 1440.5 1398 c 128,-1,51
 1496 1397 1496 1397 1539 1395.5 c 128,-1,52
 1582 1394 1582 1394 1615.5 1392 c 128,-1,53
 1649 1390 1649 1390 1678 1387 c 1,54,-1
 1678 1215 l 1,55,-1
 1490 1215 l 1,0,1
EndSplineSet
EndChar

StartChar: V
Encoding: 86 86 76
Width: 1746
GlyphClass: 2
Flags: W
LayerCount: 2
Fore
SplineSet
0 1387 m 1,0,1
 46 1390 46 1390 91.5 1392 c 128,-1,2
 137 1394 137 1394 189 1395.5 c 128,-1,3
 241 1397 241 1397 301 1398 c 128,-1,4
 361 1399 361 1399 435 1399 c 0,5,6
 605 1399 605 1399 736 1387 c 1,7,-1
 781 1215 l 1,8,-1
 653 1215 l 1,9,10
 664 1184 664 1184 672 1162.5 c 128,-1,11
 680 1141 680 1141 685 1128 c 2,12,-1
 923 452 l 1,13,-1
 1129 1123 l 2,14,15
 1142 1164 1142 1164 1153 1215 c 1,16,-1
 1025 1215 l 1,17,-1
 1070 1387 l 1,18,19
 1098 1390 1098 1390 1128.5 1392 c 128,-1,20
 1159 1394 1159 1394 1198.5 1395.5 c 128,-1,21
 1238 1397 1238 1397 1288.5 1398 c 128,-1,22
 1339 1399 1339 1399 1406 1399 c 0,23,24
 1560 1399 1560 1399 1746 1387 c 1,25,-1
 1722 1215 l 1,26,-1
 1545 1215 l 1,27,28
 1540 1207 1540 1207 1530.5 1184 c 128,-1,29
 1521 1161 1521 1161 1509 1123 c 0,30,31
 1404 793 1404 793 1293.5 509.5 c 128,-1,32
 1183 226 1183 226 1064 -11 c 1,33,-1
 872 -11 l 2,34,35
 778 -11 778 -11 723 5.5 c 128,-1,36
 668 22 668 22 649 74 c 2,37,-1
 247 1123 l 2,38,39
 234 1156 234 1156 224 1177 c 128,-1,40
 214 1198 214 1198 201 1215 c 1,41,-1
 24 1215 l 1,42,-1
 0 1387 l 1,0,1
EndSplineSet
EndChar

StartChar: W
Encoding: 87 87 77
Width: 2458
GlyphClass: 2
Flags: W
LayerCount: 2
Fore
SplineSet
0 1387 m 1,0,1
 43 1390 43 1390 87 1392 c 128,-1,2
 131 1394 131 1394 180.5 1395.5 c 128,-1,3
 230 1397 230 1397 287 1398 c 128,-1,4
 344 1399 344 1399 415 1399 c 0,5,6
 508 1399 508 1399 587 1396 c 128,-1,7
 666 1393 666 1393 736 1387 c 1,8,-1
 781 1215 l 1,9,-1
 653 1215 l 1,10,-1
 685 1128 l 1,11,-1
 883 452 l 1,12,-1
 1048 1111 l 2,13,14
 1056 1141 1056 1141 1062 1178.5 c 128,-1,15
 1068 1216 1068 1216 1071 1244 c 2,16,-1
 1078 1317 l 2,17,18
 1080 1340 1080 1340 1082 1357.5 c 128,-1,19
 1084 1375 1084 1375 1086 1387 c 1,20,-1
 1291 1387 l 2,21,22
 1327 1387 1327 1387 1353.5 1375.5 c 128,-1,23
 1380 1364 1380 1364 1400 1344 c 128,-1,24
 1420 1324 1420 1324 1434 1296 c 128,-1,25
 1448 1268 1448 1268 1458 1235 c 2,26,-1
 1695 452 l 1,27,28
 1740 625 1740 625 1778 775 c 0,29,30
 1794 839 1794 839 1810.5 905 c 128,-1,31
 1827 971 1827 971 1841.5 1030 c 128,-1,32
 1856 1089 1856 1089 1867.5 1137.5 c 128,-1,33
 1879 1186 1879 1186 1885 1215 c 1,34,-1
 1737 1215 l 1,35,-1
 1782 1387 l 1,36,37
 1810 1390 1810 1390 1842 1392 c 128,-1,38
 1874 1394 1874 1394 1914.5 1395.5 c 128,-1,39
 1955 1397 1955 1397 2007 1398 c 128,-1,40
 2059 1399 2059 1399 2128 1399 c 0,41,42
 2278 1399 2278 1399 2458 1387 c 1,43,-1
 2434 1215 l 1,44,-1
 2255 1215 l 1,45,-1
 2241 1169 l 1,46,47
 2198 1024 2198 1024 2148 864 c 128,-1,48
 2098 704 2098 704 2045 547 c 128,-1,49
 1992 390 1992 390 1938.5 246 c 128,-1,50
 1885 102 1885 102 1836 -11 c 1,51,-1
 1554 -11 l 2,52,53
 1493 -11 1493 -11 1462 7.5 c 128,-1,54
 1431 26 1431 26 1421 74 c 1,55,-1
 1215 696 l 1,56,57
 1161 472 1161 472 1113.5 298 c 128,-1,58
 1066 124 1066 124 1024 -11 c 1,59,-1
 752 -11 l 2,60,61
 688 -11 688 -11 654 7.5 c 128,-1,62
 620 26 620 26 609 74 c 1,63,-1
 247 1123 l 2,64,65
 236 1157 236 1157 226.5 1176 c 128,-1,66
 217 1195 217 1195 213 1201 c 2,67,-1
 201 1215 l 1,68,-1
 24 1215 l 1,69,-1
 0 1387 l 1,0,1
EndSplineSet
EndChar

StartChar: X
Encoding: 88 88 78
Width: 1728
GlyphClass: 2
Flags: W
LayerCount: 2
Fore
SplineSet
1149 1187 m 0,0,1
 1149 1215 1149 1215 1119 1215 c 2,2,-1
 991 1215 l 1,3,-1
 1036 1387 l 1,4,5
 1096 1393 1096 1393 1170.5 1396 c 128,-1,6
 1245 1399 1245 1399 1356 1399 c 0,7,8
 1407 1399 1407 1399 1452 1398 c 128,-1,9
 1497 1397 1497 1397 1539 1395.5 c 128,-1,10
 1581 1394 1581 1394 1621 1392 c 128,-1,11
 1661 1390 1661 1390 1702 1387 c 1,12,-1
 1678 1215 l 1,13,-1
 1545 1215 l 1,14,15
 1522 1208 1522 1208 1494.5 1185 c 128,-1,16
 1467 1162 1467 1162 1430 1110 c 2,17,-1
 1126 687 l 1,18,-1
 1468 307 l 2,19,20
 1489 284 1489 284 1508 259 c 128,-1,21
 1527 234 1527 234 1546 213.5 c 128,-1,22
 1565 193 1565 193 1586 180 c 128,-1,23
 1607 167 1607 167 1631 167 c 2,24,-1
 1688 167 l 1,25,-1
 1712 -11 l 1,26,27
 1600 -6 1600 -6 1503.5 -3 c 128,-1,28
 1407 0 1407 0 1323 0 c 0,29,30
 1259 0 1259 0 1163.5 -3 c 128,-1,31
 1068 -6 1068 -6 936 -11 c 1,32,-1
 901 167 l 1,33,-1
 1009 167 l 2,34,35
 1030 167 1030 167 1030 184 c 0,36,37
 1030 206 1030 206 997 248 c 2,38,-1
 779 525 l 1,39,-1
 603 253 l 2,40,41
 578 215 578 215 578 192 c 0,42,43
 578 167 578 167 609 167 c 2,44,-1
 737 167 l 1,45,-1
 692 -11 l 1,46,47
 595 -6 595 -6 511.5 -3 c 128,-1,48
 428 0 428 0 355 0 c 0,49,50
 291 0 291 0 206.5 -3 c 128,-1,51
 122 -6 122 -6 16 -11 c 1,52,-1
 40 167 l 1,53,-1
 153 167 l 1,54,55
 179 169 179 169 205.5 195 c 128,-1,56
 232 221 232 221 268 266 c 2,57,-1
 601 680 l 1,58,-1
 238 1139 l 2,59,60
 204 1182 204 1182 176 1198.5 c 128,-1,61
 148 1215 148 1215 117 1215 c 2,62,-1
 40 1215 l 1,63,-1
 16 1387 l 1,64,65
 59 1390 59 1390 105.5 1392 c 128,-1,66
 152 1394 152 1394 204.5 1395.5 c 128,-1,67
 257 1397 257 1397 316.5 1398 c 128,-1,68
 376 1399 376 1399 447 1399 c 0,69,70
 512 1399 512 1399 563.5 1398 c 128,-1,71
 615 1397 615 1397 657.5 1395.5 c 128,-1,72
 700 1394 700 1394 735 1392 c 128,-1,73
 770 1390 770 1390 802 1387 c 1,74,-1
 827 1215 l 1,75,-1
 749 1215 l 2,76,77
 728 1215 728 1215 728 1198 c 0,78,79
 728 1174 728 1174 761 1128 c 2,80,-1
 959 842 l 1,81,-1
 1125 1123 l 2,82,83
 1138 1145 1138 1145 1143.5 1160.5 c 128,-1,84
 1149 1176 1149 1176 1149 1187 c 0,0,1
EndSplineSet
EndChar

StartChar: Y
Encoding: 89 89 79
Width: 1576
GlyphClass: 2
Flags: W
LayerCount: 2
Fore
SplineSet
589 147 m 1,0,1
 591 161 591 161 592.5 178 c 128,-1,2
 594 195 594 195 594 217 c 2,3,-1
 594 492 l 1,4,-1
 217 1123 l 2,5,6
 203 1146 203 1146 194.5 1163.5 c 128,-1,7
 186 1181 186 1181 179.5 1192.5 c 128,-1,8
 173 1204 173 1204 167 1209.5 c 128,-1,9
 161 1215 161 1215 151 1215 c 2,10,-1
 24 1215 l 1,11,-1
 0 1387 l 1,12,13
 196 1399 196 1399 366 1399 c 2,14,-1
 470 1399 l 2,15,16
 633 1399 633 1399 756 1387 c 1,17,-1
 771 1215 l 1,18,-1
 643 1215 l 1,19,20
 657 1175 657 1175 665 1153.5 c 128,-1,21
 673 1132 673 1132 675 1128 c 2,22,-1
 883 752 l 1,23,-1
 1059 1123 l 2,24,25
 1067 1140 1067 1140 1071.5 1161.5 c 128,-1,26
 1076 1183 1076 1183 1081 1215 c 1,27,-1
 925 1215 l 1,28,-1
 960 1387 l 1,29,30
 1084 1399 1084 1399 1247 1399 c 2,31,-1
 1321 1399 l 2,32,33
 1439 1399 1439 1399 1576 1387 c 1,34,-1
 1552 1215 l 1,35,-1
 1405 1215 l 1,36,37
 1398 1206 1398 1206 1387.5 1183.5 c 128,-1,38
 1377 1161 1377 1161 1359 1123 c 0,39,40
 1357 1120 1357 1120 1351 1109 c 128,-1,41
 1345 1098 1345 1098 1331.5 1073 c 128,-1,42
 1318 1048 1318 1048 1294.5 1005.5 c 128,-1,43
 1271 963 1271 963 1235 896 c 128,-1,44
 1199 829 1199 829 1147.5 735 c 128,-1,45
 1096 641 1096 641 1027 513 c 1,46,-1
 1027 239 l 2,47,48
 1027 212 1027 212 1028.5 189 c 128,-1,49
 1030 166 1030 166 1032 147 c 1,50,-1
 1220 147 l 1,51,-1
 1220 -11 l 1,52,53
 1108 -6 1108 -6 1009.5 -3 c 128,-1,54
 911 0 911 0 823 0 c 0,55,56
 732 0 732 0 628 -3 c 128,-1,57
 524 -6 524 -6 403 -11 c 1,58,-1
 403 147 l 1,59,-1
 589 147 l 1,0,1
EndSplineSet
EndChar

StartChar: Z
Encoding: 90 90 80
Width: 1382
GlyphClass: 2
Flags: W
LayerCount: 2
Fore
SplineSet
69 1373 m 1,0,1
 281 1380 281 1380 427 1383.5 c 128,-1,2
 573 1387 573 1387 661 1387 c 2,3,-1
 1197 1387 l 2,4,5
 1249 1387 1249 1387 1277 1364.5 c 128,-1,6
 1305 1342 1305 1342 1305 1313 c 2,7,-1
 1305 1186 l 1,8,-1
 558 180 l 1,9,-1
 806 180 l 2,10,11
 899 180 899 180 997 195 c 1,12,13
 1036 363 1036 363 1036 493 c 1,14,15
 1070 492 1070 492 1115.5 490 c 128,-1,16
 1161 488 1161 488 1202 485 c 0,17,18
 1250 481 1250 481 1299 478 c 1,19,20
 1301 401 1301 401 1304 332 c 0,21,22
 1305 303 1305 303 1306 273 c 128,-1,23
 1307 243 1307 243 1308 216 c 128,-1,24
 1309 189 1309 189 1309.5 166.5 c 128,-1,25
 1310 144 1310 144 1310 130 c 0,26,27
 1310 128 1310 128 1307.5 94.5 c 128,-1,28
 1305 61 1305 61 1300 1 c 1,29,30
 1068 0 1068 0 897 0 c 128,-1,31
 726 0 726 0 604 0 c 256,32,33
 482 0 482 0 402.5 0 c 128,-1,34
 323 0 323 0 275 0.5 c 128,-1,35
 227 1 227 1 203.5 1 c 128,-1,36
 180 1 180 1 170 1 c 0,37,38
 144 1 144 1 129 11 c 128,-1,39
 114 21 114 21 106 36 c 128,-1,40
 98 51 98 51 96 69 c 128,-1,41
 94 87 94 87 94 103 c 2,42,-1
 94 219 l 1,43,-1
 826 1197 l 1,44,-1
 637 1197 l 2,45,46
 603 1197 603 1197 548.5 1191 c 128,-1,47
 494 1185 494 1185 419 1172 c 1,48,49
 417 1164 417 1164 415.5 1141.5 c 128,-1,50
 414 1119 414 1119 412 1082 c 1,51,-1
 412 968 l 1,52,-1
 109 968 l 1,53,-1
 69 1373 l 1,0,1
EndSplineSet
EndChar

StartChar: bracketleft
Encoding: 91 91 81
Width: 786
GlyphClass: 2
Flags: W
LayerCount: 2
Fore
SplineSet
522 1475 m 2,0,1
 628 1475 628 1475 660 1466 c 0,2,3
 725 1446 725 1446 725 1384 c 2,4,-1
 725 1325 l 1,5,-1
 536 1325 l 1,6,-1
 536 -57 l 1,7,-1
 725 -57 l 1,8,-1
 725 -126 l 2,9,10
 725 -156 725 -156 709 -172.5 c 128,-1,11
 693 -189 693 -189 671.5 -197 c 128,-1,12
 650 -205 650 -205 629 -206.5 c 128,-1,13
 608 -208 608 -208 598 -208 c 2,14,-1
 164 -208 l 1,15,-1
 164 1475 l 1,16,-1
 522 1475 l 2,0,1
EndSplineSet
EndChar

StartChar: backslash
Encoding: 92 92 82
Width: 1036
GlyphClass: 2
Flags: W
LayerCount: 2
Fore
SplineSet
1036 -22 m 1,0,-1
 775 -22 l 2,1,2
 654 -22 654 -22 630 48 c 1,3,-1
 0 1412 l 1,4,-1
 263 1412 l 2,5,6
 328 1412 328 1412 362 1393 c 128,-1,7
 396 1374 396 1374 413 1326 c 1,8,-1
 1036 -22 l 1,0,-1
EndSplineSet
EndChar

StartChar: bracketright
Encoding: 93 93 83
Width: 786
GlyphClass: 2
Flags: W
LayerCount: 2
Fore
SplineSet
250 -57 m 1,0,-1
 250 1325 l 1,1,-1
 61 1325 l 1,2,-1
 61 1476 l 1,3,-1
 622 1476 l 1,4,-1
 622 -208 l 1,5,-1
 61 -208 l 1,6,-1
 61 -57 l 1,7,-1
 250 -57 l 1,0,-1
EndSplineSet
EndChar

StartChar: asciicircum
Encoding: 94 94 84
Width: 1241
GlyphClass: 2
Flags: W
LayerCount: 2
Fore
SplineSet
763 1389 m 1,0,-1
 1131 736 l 2,1,2
 1164 677 1164 677 1164 651 c 0,3,4
 1164 628 1164 628 1141 613 c 128,-1,5
 1118 598 1118 598 1091 594 c 1,6,-1
 872 544 l 1,7,-1
 620 1029 l 1,8,-1
 368 544 l 1,9,-1
 165 591 l 2,10,11
 147 595 147 595 131 599.5 c 128,-1,12
 115 604 115 604 103 610.5 c 128,-1,13
 91 617 91 617 83.5 626.5 c 128,-1,14
 76 636 76 636 76 651 c 0,15,16
 76 677 76 677 109 736 c 2,17,-1
 477 1389 l 1,18,-1
 763 1389 l 1,0,-1
EndSplineSet
EndChar

StartChar: underscore
Encoding: 95 95 85
Width: 1095
GlyphClass: 2
Flags: W
LayerCount: 2
Fore
SplineSet
1107 -216 m 2,0,1
 1107 -237 1107 -237 1096.5 -251.5 c 128,-1,2
 1086 -266 1086 -266 1067.5 -276.5 c 128,-1,3
 1049 -287 1049 -287 1024.5 -294 c 128,-1,4
 1000 -301 1000 -301 972 -307 c 1,5,-1
 -12 -307 l 1,6,-1
 -12 -224 l 2,7,8
 -12 -193 -12 -193 2.5 -175.5 c 128,-1,9
 17 -158 17 -158 38.5 -149 c 128,-1,10
 60 -140 60 -140 86.5 -137.5 c 128,-1,11
 113 -135 113 -135 137 -135 c 2,12,-1
 1107 -135 l 1,13,-1
 1107 -216 l 2,0,1
EndSplineSet
EndChar

StartChar: grave
Encoding: 96 96 86
Width: 1051
GlyphClass: 2
Flags: W
LayerCount: 2
Fore
SplineSet
552 1112 m 1,0,-1
 266 1482 l 1,1,-1
 637 1482 l 1,2,-1
 787 1112 l 1,3,-1
 552 1112 l 1,0,-1
EndSplineSet
EndChar

StartChar: a
Encoding: 97 97 87
Width: 1281
GlyphClass: 2
Flags: W
LayerCount: 2
Fore
SplineSet
657 464 m 2,0,1
 579 464 579 464 535.5 414 c 128,-1,2
 492 364 492 364 492 282 c 0,3,4
 492 203 492 203 516.5 170.5 c 128,-1,5
 541 138 541 138 576 138 c 0,6,7
 625 138 625 138 687 191 c 1,8,-1
 687 464 l 1,9,-1
 657 464 l 2,0,1
1261 33 m 1,10,11
 1070 -10 1070 -10 844 -10 c 1,12,13
 806 16 806 16 776 44.5 c 128,-1,14
 746 73 746 73 724 102 c 1,15,16
 606 -22 606 -22 439 -22 c 0,17,18
 359 -22 359 -22 293 -3 c 128,-1,19
 227 16 227 16 180 53.5 c 128,-1,20
 133 91 133 91 107 146.5 c 128,-1,21
 81 202 81 202 81 274 c 0,22,23
 81 428 81 428 226 505.5 c 128,-1,24
 371 583 371 583 667 583 c 2,25,-1
 687 583 l 1,26,-1
 687 617 l 2,27,28
 687 742 687 742 675.5 798.5 c 128,-1,29
 664 855 664 855 635 855 c 0,30,31
 577 855 577 855 503 795.5 c 128,-1,32
 429 736 429 736 348 631 c 1,33,-1
 107 785 l 1,34,35
 107 835 107 835 151.5 875.5 c 128,-1,36
 196 916 196 916 266.5 945 c 128,-1,37
 337 974 337 974 424 989.5 c 128,-1,38
 511 1005 511 1005 596 1005 c 0,39,40
 718 1005 718 1005 813 985 c 128,-1,41
 908 965 908 965 973 917.5 c 128,-1,42
 1038 870 1038 870 1072 792.5 c 128,-1,43
 1106 715 1106 715 1106 601 c 0,44,45
 1106 573 1106 573 1105.5 536 c 128,-1,46
 1105 499 1105 499 1105 451 c 2,47,-1
 1105 274 l 2,48,49
 1105 225 1105 225 1106.5 193.5 c 128,-1,50
 1108 162 1108 162 1110 148 c 1,51,52
 1126 147 1126 147 1142.5 146.5 c 128,-1,53
 1159 146 1159 146 1177 146 c 2,54,-1
 1261 146 l 1,55,-1
 1261 33 l 1,10,11
EndSplineSet
EndChar

StartChar: b
Encoding: 98 98 88
Width: 1407
GlyphClass: 2
Flags: W
LayerCount: 2
Fore
SplineSet
786 836 m 0,0,1
 723 836 723 836 620 789 c 1,2,-1
 620 140 l 1,3,4
 634 138 634 138 647 138 c 128,-1,5
 660 138 660 138 674 138 c 2,6,-1
 745 138 l 2,7,8
 817 138 817 138 858 229.5 c 128,-1,9
 899 321 899 321 899 504 c 0,10,11
 899 836 899 836 786 836 c 0,0,1
620 937 m 1,12,13
 761 1005 761 1005 890 1005 c 0,14,15
 1002 1005 1002 1005 1084.5 962.5 c 128,-1,16
 1167 920 1167 920 1221.5 850.5 c 128,-1,17
 1276 781 1276 781 1303 692 c 128,-1,18
 1330 603 1330 603 1330 509 c 0,19,20
 1330 377 1330 377 1282.5 279 c 128,-1,21
 1235 181 1235 181 1155.5 116.5 c 128,-1,22
 1076 52 1076 52 973 20.5 c 128,-1,23
 870 -11 870 -11 758 -11 c 0,24,25
 545 -11 545 -11 166 19 c 1,26,-1
 166 79 l 1,27,28
 201 152 201 152 201 330 c 2,29,-1
 201 1251 l 1,30,-1
 28 1251 l 1,31,-1
 28 1364 l 1,32,33
 224 1412 224 1412 428 1412 c 2,34,-1
 488 1412 l 2,35,36
 530 1412 530 1412 555.5 1407.5 c 128,-1,37
 581 1403 581 1403 595.5 1391 c 128,-1,38
 610 1379 610 1379 615 1356.5 c 128,-1,39
 620 1334 620 1334 620 1298 c 2,40,-1
 620 937 l 1,12,13
EndSplineSet
EndChar

StartChar: c
Encoding: 99 99 89
Width: 1158
GlyphClass: 2
Flags: W
LayerCount: 2
Fore
SplineSet
692 147 m 0,0,1
 749 147 749 147 798 154.5 c 128,-1,2
 847 162 847 162 893 176.5 c 128,-1,3
 939 191 939 191 983.5 213 c 128,-1,4
 1028 235 1028 235 1076 265 c 1,5,-1
 1093 105 l 1,6,7
 921 -22 921 -22 669 -22 c 0,8,9
 535 -22 535 -22 424.5 12 c 128,-1,10
 314 46 314 46 235.5 111 c 128,-1,11
 157 176 157 176 114 270.5 c 128,-1,12
 71 365 71 365 71 486 c 0,13,14
 71 622 71 622 122.5 720.5 c 128,-1,15
 174 819 174 819 259 882 c 128,-1,16
 344 945 344 945 454.5 975 c 128,-1,17
 565 1005 565 1005 683 1005 c 0,18,19
 947 1005 947 1005 1101 872 c 1,20,-1
 1084 674 l 1,21,-1
 813 674 l 1,22,23
 769 762 769 762 734 799 c 128,-1,24
 699 836 699 836 665 836 c 0,25,26
 629 836 629 836 598.5 815.5 c 128,-1,27
 568 795 568 795 545.5 755 c 128,-1,28
 523 715 523 715 510 655 c 128,-1,29
 497 595 497 595 497 516 c 0,30,31
 497 338 497 338 546 242.5 c 128,-1,32
 595 147 595 147 692 147 c 0,0,1
EndSplineSet
EndChar

StartChar: d
Encoding: 100 100 90
Width: 1391
GlyphClass: 2
Flags: W
LayerCount: 2
Fore
SplineSet
620 1364 m 1,0,1
 816 1412 816 1412 1020 1412 c 2,2,-1
 1080 1412 l 2,3,4
 1122 1412 1122 1412 1147.5 1407.5 c 128,-1,5
 1173 1403 1173 1403 1187.5 1391 c 128,-1,6
 1202 1379 1202 1379 1207 1356.5 c 128,-1,7
 1212 1334 1212 1334 1212 1298 c 2,8,-1
 1212 244 l 2,9,10
 1212 175 1212 175 1218 147 c 1,11,-1
 1384 147 l 1,12,-1
 1384 35 l 1,13,14
 1199 -11 1199 -11 1037 -11 c 0,15,16
 989 -11 989 -11 955 -6 c 128,-1,17
 921 -1 921 -1 896 12.5 c 128,-1,18
 871 26 871 26 854.5 48 c 128,-1,19
 838 70 838 70 826 105 c 1,20,21
 720 -22 720 -22 537 -22 c 0,22,23
 434 -22 434 -22 349.5 17.5 c 128,-1,24
 265 57 265 57 205 124.5 c 128,-1,25
 145 192 145 192 112 282 c 128,-1,26
 79 372 79 372 79 474 c 0,27,28
 79 595 79 595 111 693 c 128,-1,29
 143 791 143 791 203.5 860.5 c 128,-1,30
 264 930 264 930 350.5 967.5 c 128,-1,31
 437 1005 437 1005 547 1005 c 0,32,33
 664 1005 664 1005 793 959 c 1,34,-1
 793 1251 l 1,35,-1
 620 1251 l 1,36,-1
 620 1364 l 1,0,1
655 147 m 0,37,38
 739 147 739 147 797 226 c 1,39,-1
 797 802 l 1,40,41
 710 836 710 836 659 836 c 0,42,43
 609 836 609 836 580 800 c 128,-1,44
 551 764 551 764 536 710.5 c 128,-1,45
 521 657 521 657 517 596 c 128,-1,46
 513 535 513 535 513 484 c 0,47,48
 513 147 513 147 655 147 c 0,37,38
EndSplineSet
EndChar

StartChar: e
Encoding: 101 101 91
Width: 1207
GlyphClass: 2
Flags: W
LayerCount: 2
Fore
SplineSet
754 590 m 1,0,-1
 754 608 l 2,1,2
 754 659 754 659 746 702.5 c 128,-1,3
 738 746 738 746 723 777.5 c 128,-1,4
 708 809 708 809 685.5 827 c 128,-1,5
 663 845 663 845 635 845 c 0,6,7
 524 845 524 845 500 590 c 1,8,-1
 754 590 l 1,0,-1
797 169 m 0,9,10
 922 169 922 169 1077 245 c 1,11,-1
 1095 95 l 1,12,13
 931 -22 931 -22 671 -22 c 0,14,15
 533 -22 533 -22 422.5 12.5 c 128,-1,16
 312 47 312 47 234 113.5 c 128,-1,17
 156 180 156 180 114 277 c 128,-1,18
 72 374 72 374 72 499 c 0,19,20
 72 610 72 610 115 703 c 128,-1,21
 158 796 158 796 237 863 c 128,-1,22
 316 930 316 930 427 967.5 c 128,-1,23
 538 1005 538 1005 675 1005 c 0,24,25
 778 1005 778 1005 864 978 c 128,-1,26
 950 951 950 951 1012.5 901 c 128,-1,27
 1075 851 1075 851 1110 778.5 c 128,-1,28
 1145 706 1145 706 1145 615 c 0,29,30
 1145 561 1145 561 1132.5 527 c 128,-1,31
 1120 493 1120 493 1092 474 c 128,-1,32
 1064 455 1064 455 1020.5 448.5 c 128,-1,33
 977 442 977 442 914 442 c 2,34,-1
 501 442 l 1,35,36
 524 316 524 316 597 242.5 c 128,-1,37
 670 169 670 169 797 169 c 0,9,10
EndSplineSet
EndChar

StartChar: f
Encoding: 102 102 92
Width: 926
GlyphClass: 2
Flags: W
LayerCount: 2
Fore
SplineSet
429 0 m 1,0,1
 354 0 354 0 270.5 -3 c 128,-1,2
 187 -6 187 -6 90 -11 c 1,3,-1
 96 121 l 1,4,-1
 120 124 l 2,5,6
 155 128 155 128 176 133.5 c 128,-1,7
 197 139 197 139 208.5 149.5 c 128,-1,8
 220 160 220 160 223.5 177.5 c 128,-1,9
 227 195 227 195 227 224 c 2,10,-1
 227 824 l 1,11,-1
 22 824 l 1,12,-1
 22 898 l 2,13,14
 22 927 22 927 36.5 944 c 128,-1,15
 51 961 51 961 72.5 969.5 c 128,-1,16
 94 978 94 978 120 980.5 c 128,-1,17
 146 983 146 983 169 983 c 2,18,-1
 227 983 l 1,19,-1
 227 1047 l 2,20,21
 227 1412 227 1412 729 1412 c 0,22,23
 814 1412 814 1412 891 1395.5 c 128,-1,24
 968 1379 968 1379 1040 1349 c 1,25,-1
 1040 1125 l 1,26,-1
 806 1125 l 1,27,28
 801 1143 801 1143 796 1158 c 128,-1,29
 791 1173 791 1173 787 1185 c 2,30,-1
 774 1224 l 2,31,32
 765 1251 765 1251 765 1254 c 1,33,34
 740 1254 740 1254 719.5 1251.5 c 128,-1,35
 699 1249 699 1249 684 1237.5 c 128,-1,36
 669 1226 669 1226 660 1203 c 128,-1,37
 651 1180 651 1180 649 1140 c 1,38,-1
 649 983 l 1,39,-1
 904 983 l 1,40,-1
 904 910 l 2,41,42
 904 864 904 864 866 844 c 128,-1,43
 828 824 828 824 768 824 c 2,44,-1
 646 824 l 1,45,-1
 646 259 l 2,46,47
 646 217 646 217 650 193 c 128,-1,48
 654 169 654 169 669 155 c 128,-1,49
 684 141 684 141 713 134 c 128,-1,50
 742 127 742 127 792 120 c 1,51,-1
 803 -11 l 1,52,-1
 640 -5 l 2,53,54
 568 -3 568 -3 516 -2 c 128,-1,55
 464 -1 464 -1 429 0 c 1,0,1
EndSplineSet
EndChar

StartChar: g
Encoding: 103 103 93
Width: 1149
GlyphClass: 2
Flags: W
LayerCount: 2
Fore
SplineSet
549 1005 m 0,0,1
 680 1005 680 1005 778 968 c 1,2,-1
 1136 988 l 1,3,-1
 1136 825 l 1,4,-1
 935 825 l 1,5,6
 980 794 980 794 1000.5 742 c 128,-1,7
 1021 690 1021 690 1021 635 c 0,8,9
 1021 556 1021 556 991.5 492.5 c 128,-1,10
 962 429 962 429 902 384.5 c 128,-1,11
 842 340 842 340 752 316 c 128,-1,12
 662 292 662 292 542 292 c 0,13,14
 506 292 506 292 472 293.5 c 128,-1,15
 438 295 438 295 402 298 c 1,16,17
 387 278 387 278 387 238 c 0,18,19
 387 204 387 204 407.5 190.5 c 128,-1,20
 428 177 428 177 470 177 c 2,21,-1
 813 177 l 2,22,23
 879 177 879 177 934 161 c 128,-1,24
 989 145 989 145 1029 112.5 c 128,-1,25
 1069 80 1069 80 1091 31 c 128,-1,26
 1113 -18 1113 -18 1113 -84 c 0,27,28
 1113 -163 1113 -163 1089 -221.5 c 128,-1,29
 1065 -280 1065 -280 1023 -321 c 128,-1,30
 981 -362 981 -362 923 -388 c 128,-1,31
 865 -414 865 -414 797.5 -428.5 c 128,-1,32
 730 -443 730 -443 655.5 -448.5 c 128,-1,33
 581 -454 581 -454 505 -454 c 0,34,35
 287 -454 287 -454 183 -396.5 c 128,-1,36
 79 -339 79 -339 79 -217 c 0,37,38
 79 -156 79 -156 124.5 -111.5 c 128,-1,39
 170 -67 170 -67 274 -32 c 1,40,41
 217 -9 217 -9 180.5 37.5 c 128,-1,42
 144 84 144 84 144 155 c 0,43,44
 144 275 144 275 250 332 c 1,45,46
 162 366 162 366 113 442 c 128,-1,47
 64 518 64 518 64 630 c 0,48,49
 64 727 64 727 99.5 797.5 c 128,-1,50
 135 868 135 868 198.5 914 c 128,-1,51
 262 960 262 960 351.5 982.5 c 128,-1,52
 441 1005 441 1005 549 1005 c 0,0,1
367 -174 m 0,53,54
 367 -271 367 -271 542 -271 c 0,55,56
 619 -271 619 -271 669.5 -262 c 128,-1,57
 720 -253 720 -253 749.5 -236 c 128,-1,58
 779 -219 779 -219 790.5 -194.5 c 128,-1,59
 802 -170 802 -170 802 -139 c 0,60,61
 802 -102 802 -102 773.5 -90 c 128,-1,62
 745 -78 745 -78 705 -78 c 2,63,-1
 412 -78 l 1,64,65
 367 -137 367 -137 367 -174 c 0,53,54
653 626 m 0,66,67
 653 735 653 735 625.5 796 c 128,-1,68
 598 857 598 857 544 857 c 0,69,70
 442 857 442 857 442 626 c 0,71,72
 442 532 442 532 467.5 484 c 128,-1,73
 493 436 493 436 544 436 c 0,74,75
 653 436 653 436 653 626 c 0,66,67
EndSplineSet
EndChar

StartChar: h
Encoding: 104 104 94
Width: 1421
GlyphClass: 2
Flags: W
LayerCount: 2
Fore
SplineSet
828 623 m 2,0,1
 828 651 828 651 826.5 683.5 c 128,-1,2
 825 716 825 716 817.5 744 c 128,-1,3
 810 772 810 772 794 790 c 128,-1,4
 778 808 778 808 750 808 c 0,5,6
 721 808 721 808 685.5 792.5 c 128,-1,7
 650 777 650 777 605 739 c 1,8,-1
 605 233 l 2,9,10
 605 205 605 205 609.5 187.5 c 128,-1,11
 614 170 614 170 624.5 158.5 c 128,-1,12
 635 147 635 147 653 140 c 128,-1,13
 671 133 671 133 698 127 c 1,14,-1
 709 -11 l 1,15,16
 571 -6 571 -6 489.5 -3 c 128,-1,17
 408 0 408 0 379 0 c 0,18,19
 300 0 300 0 223 -3 c 128,-1,20
 146 -6 146 -6 68 -11 c 1,21,-1
 73 126 l 1,22,23
 106 131 106 131 127.5 137 c 128,-1,24
 149 143 149 143 162 157 c 128,-1,25
 175 171 175 171 180 196 c 128,-1,26
 185 221 185 221 185 265 c 2,27,-1
 185 1187 l 2,28,29
 185 1227 185 1227 182 1251 c 1,30,-1
 13 1251 l 1,31,-1
 13 1364 l 1,32,33
 209 1412 209 1412 413 1412 c 2,34,-1
 473 1412 l 2,35,36
 515 1412 515 1412 540.5 1407.5 c 128,-1,37
 566 1403 566 1403 580.5 1391 c 128,-1,38
 595 1379 595 1379 600 1356.5 c 128,-1,39
 605 1334 605 1334 605 1298 c 2,40,-1
 605 882 l 1,41,42
 683 936 683 936 775 970.5 c 128,-1,43
 867 1005 867 1005 961 1005 c 0,44,45
 1035 1005 1035 1005 1089 980 c 128,-1,46
 1143 955 1143 955 1178 908.5 c 128,-1,47
 1213 862 1213 862 1230 795 c 128,-1,48
 1247 728 1247 728 1247 644 c 2,49,-1
 1247 248 l 2,50,51
 1247 183 1247 183 1256 147 c 1,52,-1
 1389 147 l 1,53,-1
 1402 23 l 1,54,55
 1211 -22 1211 -22 1048 -22 c 0,56,57
 822 -22 822 -22 822 85 c 0,58,59
 822 99 822 99 823 124.5 c 128,-1,60
 824 150 824 150 825 178 c 128,-1,61
 826 206 826 206 827 232 c 128,-1,62
 828 258 828 258 828 274 c 2,63,-1
 828 623 l 2,0,1
EndSplineSet
EndChar

StartChar: i
Encoding: 105 105 95
Width: 799
GlyphClass: 2
Flags: W
LayerCount: 2
Fore
SplineSet
174 1256 m 0,0,1
 174 1297 174 1297 193.5 1326.5 c 128,-1,2
 213 1356 213 1356 246 1375 c 128,-1,3
 279 1394 279 1394 321.5 1403 c 128,-1,4
 364 1412 364 1412 411 1412 c 0,5,6
 460 1412 460 1412 503.5 1402 c 128,-1,7
 547 1392 547 1392 579.5 1372 c 128,-1,8
 612 1352 612 1352 630.5 1323 c 128,-1,9
 649 1294 649 1294 649 1256 c 0,10,11
 649 1214 649 1214 628 1185 c 128,-1,12
 607 1156 607 1156 573 1138 c 128,-1,13
 539 1120 539 1120 496.5 1111.5 c 128,-1,14
 454 1103 454 1103 411 1103 c 0,15,16
 363 1103 363 1103 319.5 1113 c 128,-1,17
 276 1123 276 1123 244 1142.5 c 128,-1,18
 212 1162 212 1162 193 1190.5 c 128,-1,19
 174 1219 174 1219 174 1256 c 0,0,1
31 950 m 1,20,21
 233 994 233 994 398 994 c 0,22,23
 504 994 504 994 563 970.5 c 128,-1,24
 622 947 622 947 622 899 c 2,25,-1
 622 239 l 2,26,27
 622 184 622 184 631 147 c 1,28,-1
 764 147 l 1,29,-1
 777 33 l 1,30,31
 584 -11 584 -11 423 -11 c 0,32,33
 317 -11 317 -11 257 15 c 128,-1,34
 197 41 197 41 197 95 c 0,35,36
 197 109 197 109 198 134.5 c 128,-1,37
 199 160 199 160 200 188 c 128,-1,38
 201 216 201 216 202 242 c 128,-1,39
 203 268 203 268 203 284 c 2,40,-1
 203 824 l 1,41,-1
 31 824 l 1,42,-1
 31 950 l 1,20,21
EndSplineSet
EndChar

StartChar: j
Encoding: 106 106 96
Width: 807
GlyphClass: 2
Flags: W
LayerCount: 2
Fore
SplineSet
70 950 m 1,0,1
 169 972 169 972 258 983 c 128,-1,2
 347 994 347 994 428 994 c 0,3,4
 481 994 481 994 524.5 988 c 128,-1,5
 568 982 568 982 598.5 970 c 128,-1,6
 629 958 629 958 645.5 940.5 c 128,-1,7
 662 923 662 923 662 899 c 2,8,-1
 662 -12 l 2,9,10
 662 -233 662 -233 551 -343.5 c 128,-1,11
 440 -454 440 -454 219 -454 c 0,12,13
 19 -454 19 -454 -64 -377 c 1,14,-1
 -47 -76 l 1,15,-1
 158 -105 l 1,16,-1
 177 -278 l 1,17,18
 195 -287 195 -287 208 -287 c 0,19,20
 303 -287 303 -287 303 -160 c 0,21,22
 303 -153 303 -153 293.5 -120.5 c 128,-1,23
 284 -88 284 -88 273 -43 c 128,-1,24
 262 2 262 2 252.5 52.5 c 128,-1,25
 243 103 243 103 243 147 c 2,26,-1
 243 824 l 1,27,-1
 70 824 l 1,28,-1
 70 950 l 1,0,1
214 1287 m 0,29,30
 214 1328 214 1328 233.5 1357.5 c 128,-1,31
 253 1387 253 1387 286 1406 c 128,-1,32
 319 1425 319 1425 362 1434 c 128,-1,33
 405 1443 405 1443 452 1443 c 0,34,35
 502 1443 502 1443 545.5 1432.5 c 128,-1,36
 589 1422 589 1422 621 1402.5 c 128,-1,37
 653 1383 653 1383 671 1353.5 c 128,-1,38
 689 1324 689 1324 689 1287 c 0,39,40
 689 1245 689 1245 668 1216 c 128,-1,41
 647 1187 647 1187 613 1169 c 128,-1,42
 579 1151 579 1151 536.5 1142.5 c 128,-1,43
 494 1134 494 1134 452 1134 c 0,44,45
 402 1134 402 1134 359 1144 c 128,-1,46
 316 1154 316 1154 283.5 1173.5 c 128,-1,47
 251 1193 251 1193 232.5 1221.5 c 128,-1,48
 214 1250 214 1250 214 1287 c 0,29,30
EndSplineSet
EndChar

StartChar: k
Encoding: 107 107 97
Width: 1419
GlyphClass: 2
Flags: W
LayerCount: 2
Fore
SplineSet
13 1364 m 1,0,1
 209 1412 209 1412 413 1412 c 2,2,-1
 445 1412 l 2,3,4
 455 1412 455 1412 465 1412.5 c 128,-1,5
 475 1413 475 1413 485 1413 c 0,6,7
 530 1413 530 1413 563 1402 c 128,-1,8
 596 1391 596 1391 601 1358 c 0,9,10
 604 1335 604 1335 604 1298 c 2,11,-1
 604 629 l 1,12,-1
 821 777 l 1,13,14
 839 792 839 792 839 804 c 0,15,16
 839 835 839 835 749 835 c 1,17,-1
 749 983 l 1,18,-1
 1382 983 l 1,19,-1
 1382 824 l 1,20,21
 1332 824 1332 824 1293.5 817 c 128,-1,22
 1255 810 1255 810 1221.5 796 c 128,-1,23
 1188 782 1188 782 1155.5 760.5 c 128,-1,24
 1123 739 1123 739 1084 711 c 2,25,-1
 937 603 l 1,26,-1
 1207 189 l 1,27,-1
 1233 163 l 1,28,-1
 1256 144 l 1,29,30
 1269 135 1269 135 1280.5 130 c 128,-1,31
 1292 125 1292 125 1305.5 123 c 128,-1,32
 1319 121 1319 121 1335 120.5 c 128,-1,33
 1351 120 1351 120 1372 120 c 2,34,-1
 1404 120 l 1,35,-1
 1429 -11 l 1,36,37
 1365 -6 1365 -6 1282 -3 c 128,-1,38
 1199 0 1199 0 1094 0 c 2,39,-1
 1034 0 l 2,40,41
 962 0 962 0 898 -3 c 128,-1,42
 834 -6 834 -6 777 -11 c 1,43,-1
 772 120 l 1,44,-1
 829 120 l 1,45,-1
 636 453 l 1,46,-1
 604 433 l 1,47,-1
 604 212 l 1,48,49
 607 185 607 185 612.5 169.5 c 128,-1,50
 618 154 618 154 629.5 144 c 128,-1,51
 641 134 641 134 661 128.5 c 128,-1,52
 681 123 681 123 713 117 c 1,53,-1
 719 -11 l 1,54,55
 574 -6 574 -6 490 -3 c 128,-1,56
 406 0 406 0 378 0 c 0,57,58
 299 0 299 0 222 -3 c 128,-1,59
 145 -6 145 -6 67 -11 c 1,60,-1
 73 119 l 1,61,62
 100 124 100 124 121 127 c 128,-1,63
 142 130 142 130 156.5 139 c 128,-1,64
 171 148 171 148 178 167.5 c 128,-1,65
 185 187 185 187 185 225 c 2,66,-1
 185 1187 l 2,67,68
 185 1227 185 1227 182 1251 c 1,69,-1
 13 1251 l 1,70,-1
 13 1364 l 1,0,1
EndSplineSet
EndChar

StartChar: l
Encoding: 108 108 98
Width: 790
GlyphClass: 2
Flags: W
LayerCount: 2
Fore
SplineSet
13 1366 m 1,0,1
 207 1412 207 1412 394 1412 c 0,2,3
 439 1412 439 1412 470.5 1409.5 c 128,-1,4
 502 1407 502 1407 525.5 1400.5 c 128,-1,5
 549 1394 549 1394 567.5 1381 c 128,-1,6
 586 1368 586 1368 604 1347 c 1,7,-1
 604 227 l 2,8,9
 604 166 604 166 610 145 c 1,10,-1
 769 145 l 1,11,-1
 769 34 l 1,12,13
 587 -9 587 -9 406 -9 c 0,14,15
 321 -9 321 -9 268 12.5 c 128,-1,16
 215 34 215 34 181 82 c 1,17,-1
 181 108 l 1,18,19
 183 148 183 148 184.5 191.5 c 128,-1,20
 186 235 186 235 186 283 c 2,21,-1
 186 1175 l 2,22,23
 186 1198 186 1198 185 1217.5 c 128,-1,24
 184 1237 184 1237 182 1252 c 1,25,-1
 13 1252 l 1,26,-1
 13 1366 l 1,0,1
EndSplineSet
EndChar

StartChar: m
Encoding: 109 109 99
Width: 2063
GlyphClass: 2
Flags: W
LayerCount: 2
Fore
SplineSet
1464 85 m 0,0,1
 1464 99 1464 99 1465 124.5 c 128,-1,2
 1466 150 1466 150 1467 178 c 128,-1,3
 1468 206 1468 206 1469 232 c 128,-1,4
 1470 258 1470 258 1470 274 c 2,5,-1
 1470 603 l 2,6,7
 1470 660 1470 660 1468.5 699 c 128,-1,8
 1467 738 1467 738 1462.5 762 c 128,-1,9
 1458 786 1458 786 1449.5 796.5 c 128,-1,10
 1441 807 1441 807 1426 807 c 0,11,12
 1340 807 1340 807 1260 733 c 1,13,-1
 1260 207 l 1,14,15
 1263 181 1263 181 1269 165 c 128,-1,16
 1275 149 1275 149 1287.5 139.5 c 128,-1,17
 1300 130 1300 130 1321.5 124.5 c 128,-1,18
 1343 119 1343 119 1378 113 c 1,19,-1
 1378 -11 l 1,20,-1
 1228 -5 l 2,21,22
 1162 -3 1162 -3 1113.5 -1.5 c 128,-1,23
 1065 0 1065 0 1033 0 c 0,24,25
 958 0 958 0 895 -3 c 128,-1,26
 832 -6 832 -6 775 -11 c 1,27,-1
 775 126 l 1,28,29
 796 132 796 132 809 138 c 128,-1,30
 822 144 822 144 829 153.5 c 128,-1,31
 836 163 836 163 838.5 178.5 c 128,-1,32
 841 194 841 194 841 220 c 2,33,-1
 841 603 l 2,34,35
 841 659 841 659 840 698 c 128,-1,36
 839 737 839 737 836 761 c 128,-1,37
 833 785 833 785 826.5 796 c 128,-1,38
 820 807 820 807 810 807 c 0,39,40
 757 807 757 807 706.5 785 c 128,-1,41
 656 763 656 763 624 731 c 1,42,-1
 624 254 l 2,43,44
 624 222 624 222 626 200.5 c 128,-1,45
 628 179 628 179 634.5 164.5 c 128,-1,46
 641 150 641 150 654.5 141 c 128,-1,47
 668 132 668 132 692 126 c 1,48,-1
 692 -11 l 1,49,50
 607 -6 607 -6 533.5 -3 c 128,-1,51
 460 0 460 0 397 0 c 0,52,53
 322 0 322 0 246.5 -3 c 128,-1,54
 171 -6 171 -6 93 -11 c 1,55,-1
 93 114 l 1,56,57
 127 114 127 114 149 120.5 c 128,-1,58
 171 127 171 127 183.5 140.5 c 128,-1,59
 196 154 196 154 200.5 174.5 c 128,-1,60
 205 195 205 195 205 223 c 2,61,-1
 205 824 l 1,62,-1
 33 824 l 1,63,-1
 33 946 l 1,64,65
 216 994 216 994 449 994 c 0,66,67
 473 994 473 994 512.5 990 c 128,-1,68
 552 986 552 986 609 978 c 1,69,70
 610 945 610 945 610.5 919.5 c 128,-1,71
 611 894 611 894 611 869 c 1,72,73
 653 898 653 898 701.5 923 c 128,-1,74
 750 948 750 948 801.5 966 c 128,-1,75
 853 984 853 984 906 994.5 c 128,-1,76
 959 1005 959 1005 1011 1005 c 0,77,78
 1174 1005 1174 1005 1239 891 c 1,79,80
 1429 1006 1429 1006 1599 1006 c 0,81,82
 1741 1006 1741 1006 1815 921 c 128,-1,83
 1889 836 1889 836 1889 686 c 2,84,-1
 1889 248 l 2,85,86
 1889 183 1889 183 1898 147 c 1,87,-1
 2031 147 l 1,88,-1
 2044 23 l 1,89,90
 1853 -22 1853 -22 1690 -22 c 0,91,92
 1464 -22 1464 -22 1464 85 c 0,0,1
EndSplineSet
EndChar

StartChar: n
Encoding: 110 110 100
Width: 1456
GlyphClass: 2
Flags: W
LayerCount: 2
Fore
SplineSet
33 950 m 1,0,1
 244 994 244 994 423 994 c 0,2,3
 449 994 449 994 493.5 990 c 128,-1,4
 538 986 538 986 604 978 c 1,5,-1
 609 870 l 1,6,7
 706 934 706 934 805 970 c 128,-1,8
 904 1006 904 1006 995 1006 c 0,9,10
 1067 1006 1067 1006 1121 982.5 c 128,-1,11
 1175 959 1175 959 1211 915 c 128,-1,12
 1247 871 1247 871 1264.5 807.5 c 128,-1,13
 1282 744 1282 744 1282 664 c 2,14,-1
 1282 248 l 2,15,16
 1282 183 1282 183 1291 147 c 1,17,-1
 1424 147 l 1,18,-1
 1437 23 l 1,19,20
 1246 -22 1246 -22 1083 -22 c 0,21,22
 857 -22 857 -22 857 85 c 0,23,24
 857 99 857 99 858 124.5 c 128,-1,25
 859 150 859 150 860 178 c 128,-1,26
 861 206 861 206 862 232 c 128,-1,27
 863 258 863 258 863 274 c 2,28,-1
 863 649 l 2,29,30
 863 808 863 808 776 808 c 0,31,32
 708 808 708 808 624 739 c 1,33,-1
 624 233 l 2,34,35
 624 205 624 205 628.5 187.5 c 128,-1,36
 633 170 633 170 643.5 158.5 c 128,-1,37
 654 147 654 147 672 140 c 128,-1,38
 690 133 690 133 717 127 c 1,39,-1
 728 -11 l 1,40,41
 590 -6 590 -6 508.5 -3 c 128,-1,42
 427 0 427 0 398 0 c 0,43,44
 319 0 319 0 242 -3 c 128,-1,45
 165 -6 165 -6 87 -11 c 1,46,-1
 93 126 l 1,47,48
 126 131 126 131 147.5 137 c 128,-1,49
 169 143 169 143 182 157 c 128,-1,50
 195 171 195 171 200 196 c 128,-1,51
 205 221 205 221 205 265 c 2,52,-1
 205 824 l 1,53,-1
 33 824 l 1,54,-1
 33 950 l 1,0,1
EndSplineSet
EndChar

StartChar: o
Encoding: 111 111 101
Width: 1324
GlyphClass: 2
Flags: W
LayerCount: 2
Fore
SplineSet
1255 488 m 0,0,1
 1255 354 1255 354 1204.5 258 c 128,-1,2
 1154 162 1154 162 1071.5 99.5 c 128,-1,3
 989 37 989 37 882 7.5 c 128,-1,4
 775 -22 775 -22 663 -22 c 0,5,6
 532 -22 532 -22 422.5 13.5 c 128,-1,7
 313 49 313 49 234.5 115 c 128,-1,8
 156 181 156 181 112.5 275.5 c 128,-1,9
 69 370 69 370 69 488 c 0,10,11
 69 623 69 623 119.5 720.5 c 128,-1,12
 170 818 170 818 253.5 881.5 c 128,-1,13
 337 945 337 945 443.5 975 c 128,-1,14
 550 1005 550 1005 663 1005 c 0,15,16
 794 1005 794 1005 903 969 c 128,-1,17
 1012 933 1012 933 1090 865.5 c 128,-1,18
 1168 798 1168 798 1211.5 702.5 c 128,-1,19
 1255 607 1255 607 1255 488 c 0,0,1
503 489 m 0,20,21
 503 315 503 315 541.5 231 c 128,-1,22
 580 147 580 147 662 147 c 0,23,24
 748 147 748 147 784.5 234.5 c 128,-1,25
 821 322 821 322 821 489 c 0,26,27
 821 667 821 667 782.5 751.5 c 128,-1,28
 744 836 744 836 662 836 c 0,29,30
 577 836 577 836 540 751 c 128,-1,31
 503 666 503 666 503 489 c 0,20,21
EndSplineSet
EndChar

StartChar: p
Encoding: 112 112 102
Width: 1379
GlyphClass: 2
Flags: W
LayerCount: 2
Fore
SplineSet
781 825 m 0,0,1
 684 825 684 825 602 770 c 1,2,-1
 602 411 l 2,3,4
 602 271 602 271 636 209 c 128,-1,5
 670 147 670 147 735 147 c 0,6,7
 784 147 784 147 812.5 181.5 c 128,-1,8
 841 216 841 216 856 267.5 c 128,-1,9
 871 319 871 319 875.5 378 c 128,-1,10
 880 437 880 437 880 486 c 0,11,12
 880 654 880 654 856.5 739.5 c 128,-1,13
 833 825 833 825 781 825 c 0,0,1
376 -429 m 1,14,15
 328 -429 328 -429 251 -435 c 128,-1,16
 174 -441 174 -441 65 -454 c 1,17,-1
 71 -321 l 1,18,-1
 103 -316 l 2,19,20
 125 -313 125 -313 140.5 -308 c 128,-1,21
 156 -303 156 -303 165.5 -292.5 c 128,-1,22
 175 -282 175 -282 179 -264 c 128,-1,23
 183 -246 183 -246 183 -215 c 2,24,-1
 183 824 l 1,25,-1
 9 824 l 1,26,-1
 9 947 l 1,27,28
 197 994 197 994 429 994 c 0,29,30
 465 994 465 994 500.5 990.5 c 128,-1,31
 536 987 536 987 583 979 c 1,32,33
 583 974 583 974 583 965.5 c 128,-1,34
 583 957 583 957 583.5 947.5 c 128,-1,35
 584 938 584 938 584 929 c 128,-1,36
 584 920 584 920 584 916 c 1,37,38
 703 1005 703 1005 851 1005 c 0,39,40
 962 1005 962 1005 1048 969.5 c 128,-1,41
 1134 934 1134 934 1192.5 868 c 128,-1,42
 1251 802 1251 802 1281.5 708.5 c 128,-1,43
 1312 615 1312 615 1312 499 c 0,44,45
 1312 378 1312 378 1277 281.5 c 128,-1,46
 1242 185 1242 185 1177.5 117.5 c 128,-1,47
 1113 50 1113 50 1020.5 14 c 128,-1,48
 928 -22 928 -22 814 -22 c 0,49,50
 683 -22 683 -22 602 35 c 1,51,-1
 602 -181 l 2,52,53
 602 -223 602 -223 604.5 -247 c 128,-1,54
 607 -271 607 -271 617.5 -284.5 c 128,-1,55
 628 -298 628 -298 650 -305.5 c 128,-1,56
 672 -313 672 -313 711 -323 c 1,57,-1
 722 -454 l 1,58,-1
 607 -443 l 2,59,60
 566 -439 566 -439 534.5 -437 c 128,-1,61
 503 -435 503 -435 477 -433.5 c 128,-1,62
 451 -432 451 -432 427 -431 c 128,-1,63
 403 -430 403 -430 376 -429 c 1,14,15
EndSplineSet
EndChar

StartChar: q
Encoding: 113 113 103
Width: 1327
GlyphClass: 2
Flags: W
LayerCount: 2
Fore
SplineSet
785 823 m 1,0,1
 779 823 779 823 765.5 823.5 c 128,-1,2
 752 824 752 824 738 824 c 128,-1,3
 724 824 724 824 710.5 824.5 c 128,-1,4
 697 825 697 825 691 825 c 2,5,-1
 661 825 l 2,6,7
 589 825 589 825 548 742 c 128,-1,8
 507 659 507 659 507 492 c 256,9,10
 507 325 507 325 535 236 c 128,-1,11
 563 147 563 147 620 147 c 0,12,13
 651 147 651 147 692.5 156 c 128,-1,14
 734 165 734 165 784 184 c 1,15,16
 786 233 786 233 786 280 c 128,-1,17
 786 327 786 327 786 381 c 0,18,19
 786 421 786 421 786 466.5 c 128,-1,20
 786 512 786 512 785.5 565.5 c 128,-1,21
 785 619 785 619 785 682.5 c 128,-1,22
 785 746 785 746 785 823 c 1,0,1
979 -429 m 0,23,24
 931 -429 931 -429 854 -435 c 128,-1,25
 777 -441 777 -441 668 -454 c 1,26,-1
 674 -321 l 1,27,-1
 706 -316 l 2,28,29
 728 -313 728 -313 743.5 -308 c 128,-1,30
 759 -303 759 -303 768.5 -292.5 c 128,-1,31
 778 -282 778 -282 782 -264 c 128,-1,32
 786 -246 786 -246 786 -215 c 2,33,-1
 786 34 l 1,34,35
 650 -22 650 -22 516 -22 c 0,36,37
 411 -22 411 -22 329.5 18 c 128,-1,38
 248 58 248 58 191.5 127 c 128,-1,39
 135 196 135 196 105.5 287.5 c 128,-1,40
 76 379 76 379 76 483 c 0,41,42
 76 595 76 595 115.5 691 c 128,-1,43
 155 787 155 787 229.5 856.5 c 128,-1,44
 304 926 304 926 410 965.5 c 128,-1,45
 516 1005 516 1005 648 1005 c 0,46,47
 742 1005 742 1005 888.5 997 c 128,-1,48
 1035 989 1035 989 1240 973 c 1,49,-1
 1240 913 l 1,50,51
 1205 837 1205 837 1205 662 c 2,52,-1
 1205 -213 l 2,53,54
 1205 -252 1205 -252 1214 -272 c 128,-1,55
 1223 -292 1223 -292 1238 -301.5 c 128,-1,56
 1253 -311 1253 -311 1272.5 -314 c 128,-1,57
 1292 -317 1292 -317 1314 -323 c 1,58,-1
 1325 -454 l 1,59,-1
 1210 -443 l 2,60,61
 1169 -439 1169 -439 1137.5 -436.5 c 128,-1,62
 1106 -434 1106 -434 1080 -432.5 c 128,-1,63
 1054 -431 1054 -431 1030 -430 c 128,-1,64
 1006 -429 1006 -429 979 -429 c 0,23,24
EndSplineSet
EndChar

StartChar: r
Encoding: 114 114 104
Width: 1119
GlyphClass: 2
Flags: W
LayerCount: 2
Fore
SplineSet
947 1005 m 0,0,1
 1032 1005 1032 1005 1100 984 c 1,2,-1
 1080 665 l 1,3,-1
 873 665 l 1,4,-1
 848 816 l 1,5,6
 809 816 809 816 769.5 804 c 128,-1,7
 730 792 730 792 697.5 772.5 c 128,-1,8
 665 753 665 753 644.5 728 c 128,-1,9
 624 703 624 703 624 676 c 2,10,-1
 624 258 l 2,11,12
 624 218 624 218 627 193.5 c 128,-1,13
 630 169 630 169 643 154 c 128,-1,14
 656 139 656 139 682 131 c 128,-1,15
 708 123 708 123 753 116 c 1,16,-1
 764 -11 l 1,17,18
 610 -6 610 -6 519.5 -3 c 128,-1,19
 429 0 429 0 398 0 c 0,20,21
 319 0 319 0 242 -3 c 128,-1,22
 165 -6 165 -6 87 -11 c 1,23,-1
 93 116 l 1,24,25
 132 122 132 122 154 127 c 128,-1,26
 176 132 176 132 187.5 142.5 c 128,-1,27
 199 153 199 153 202 171.5 c 128,-1,28
 205 190 205 190 205 224 c 2,29,-1
 205 824 l 1,30,-1
 33 824 l 1,31,-1
 33 947 l 1,32,33
 136 970 136 970 241 982 c 128,-1,34
 346 994 346 994 458 994 c 0,35,36
 480 994 480 994 515 990 c 128,-1,37
 550 986 550 986 598 978 c 1,38,-1
 598 850 l 1,39,40
 736 1005 736 1005 947 1005 c 0,0,1
EndSplineSet
EndChar

StartChar: s
Encoding: 115 115 105
Width: 1071
GlyphClass: 2
Flags: W
LayerCount: 2
Fore
SplineSet
581 845 m 0,0,1
 535 845 535 845 505.5 824 c 128,-1,2
 476 803 476 803 476 761 c 0,3,4
 476 720 476 720 504.5 700 c 128,-1,5
 533 680 533 680 584 664 c 0,6,7
 811 592 811 592 922.5 502 c 128,-1,8
 1034 412 1034 412 1034 297 c 0,9,10
 1034 207 1034 207 996 146 c 128,-1,11
 958 85 958 85 894 47.5 c 128,-1,12
 830 10 830 10 747 -6 c 128,-1,13
 664 -22 664 -22 573 -22 c 0,14,15
 355 -22 355 -22 159 52 c 0,16,17
 132 62 132 62 111 72 c 128,-1,18
 90 82 90 82 76 93 c 1,19,-1
 125 351 l 1,20,-1
 402 291 l 1,21,-1
 414 166 l 1,22,23
 452 146 452 146 496 146 c 0,24,25
 544 146 544 146 574.5 170.5 c 128,-1,26
 605 195 605 195 605 237 c 0,27,28
 605 270 605 270 584 292 c 128,-1,29
 563 314 563 314 527 332 c 128,-1,30
 491 350 491 350 444 366.5 c 128,-1,31
 397 383 397 383 346 405 c 0,32,33
 284 431 284 431 234 462 c 128,-1,34
 184 493 184 493 149 530 c 128,-1,35
 114 567 114 567 95.5 611.5 c 128,-1,36
 77 656 77 656 77 709 c 0,37,38
 77 853 77 853 197.5 929 c 128,-1,39
 318 1005 318 1005 563 1005 c 0,40,41
 838 1005 838 1005 984 897 c 1,42,-1
 929 662 l 1,43,-1
 698 698 l 1,44,-1
 685 832 l 1,45,46
 639 845 639 845 581 845 c 0,0,1
EndSplineSet
EndChar

StartChar: t
Encoding: 116 116 106
Width: 1045
GlyphClass: 2
Flags: W
LayerCount: 2
Fore
SplineSet
589 -22 m 0,0,1
 491 -22 491 -22 412.5 -3 c 128,-1,2
 334 16 334 16 279.5 56.5 c 128,-1,3
 225 97 225 97 195.5 160 c 128,-1,4
 166 223 166 223 166 311 c 2,5,-1
 166 839 l 1,6,-1
 -16 839 l 1,7,-1
 -16 911 l 2,8,9
 -16 938 -16 938 3.5 952 c 128,-1,10
 23 966 23 966 52.5 972.5 c 128,-1,11
 82 979 82 979 116.5 980 c 128,-1,12
 151 981 151 981 180 983 c 1,13,-1
 203 1137 l 2,14,15
 205 1151 205 1151 208.5 1167 c 128,-1,16
 212 1183 212 1183 220 1200 c 2,17,-1
 257 1286 l 1,18,-1
 587 1286 l 1,19,-1
 587 983 l 1,20,-1
 879 983 l 1,21,-1
 879 929 l 2,22,23
 879 896 879 896 866 877.5 c 128,-1,24
 853 859 853 859 832 850.5 c 128,-1,25
 811 842 811 842 784.5 840.5 c 128,-1,26
 758 839 758 839 730 839 c 2,27,-1
 587 839 l 1,28,-1
 587 256 l 2,29,30
 587 158 587 158 651 158 c 0,31,32
 678 158 678 158 697.5 170.5 c 128,-1,33
 717 183 717 183 730.5 202.5 c 128,-1,34
 744 222 744 222 752 244 c 128,-1,35
 760 266 760 266 765 286 c 2,36,-1
 777 333 l 1,37,-1
 1012 333 l 1,38,-1
 1012 94 l 1,39,40
 845 -22 845 -22 589 -22 c 0,0,1
EndSplineSet
EndChar

StartChar: u
Encoding: 117 117 107
Width: 1429
GlyphClass: 2
Flags: W
LayerCount: 2
Fore
SplineSet
677 950 m 1,0,1
 870 994 870 994 1032 994 c 0,2,3
 1075 994 1075 994 1113 988.5 c 128,-1,4
 1151 983 1151 983 1179.5 971.5 c 128,-1,5
 1208 960 1208 960 1224.5 942 c 128,-1,6
 1241 924 1241 924 1241 899 c 2,7,-1
 1241 272 l 2,8,9
 1241 181 1241 181 1249 147 c 1,10,-1
 1401 147 l 1,11,-1
 1401 35 l 1,12,13
 1199 -11 1199 -11 1028 -11 c 0,14,15
 981 -11 981 -11 944 -7.5 c 128,-1,16
 907 -4 907 -4 881.5 8 c 128,-1,17
 856 20 856 20 841.5 44 c 128,-1,18
 827 68 827 68 825 109 c 1,19,20
 655 -22 655 -22 490 -22 c 0,21,22
 416 -22 416 -22 356.5 0 c 128,-1,23
 297 22 297 22 255 63 c 128,-1,24
 213 104 213 104 190.5 163 c 128,-1,25
 168 222 168 222 168 296 c 2,26,-1
 168 824 l 1,27,-1
 26 824 l 1,28,-1
 13 950 l 1,29,30
 212 994 212 994 373 994 c 0,31,32
 473 994 473 994 530 970.5 c 128,-1,33
 587 947 587 947 587 899 c 2,34,-1
 587 278 l 1,35,36
 588 258 588 258 590 235.5 c 128,-1,37
 592 213 592 213 598 194 c 128,-1,38
 604 175 604 175 615.5 162.5 c 128,-1,39
 627 150 627 150 648 150 c 256,40,41
 669 150 669 150 693 156.5 c 128,-1,42
 717 163 717 163 740 174 c 128,-1,43
 763 185 763 185 783 198.5 c 128,-1,44
 803 212 803 212 817 226 c 1,45,46
 818 236 818 236 818.5 248 c 128,-1,47
 819 260 819 260 819.5 277 c 128,-1,48
 820 294 820 294 820 318.5 c 128,-1,49
 820 343 820 343 820 377 c 0,50,51
 820 381 820 381 820 387.5 c 128,-1,52
 820 394 820 394 820 409.5 c 128,-1,53
 820 425 820 425 820 453 c 128,-1,54
 820 481 820 481 820 529.5 c 128,-1,55
 820 578 820 578 820.5 649.5 c 128,-1,56
 821 721 821 721 821 824 c 1,57,-1
 688 824 l 1,58,-1
 677 950 l 1,0,1
EndSplineSet
EndChar

StartChar: v
Encoding: 118 118 108
Width: 1257
GlyphClass: 2
Flags: W
LayerCount: 2
Fore
SplineSet
-38 972 m 1,0,1
 43 983 43 983 134.5 988.5 c 128,-1,2
 226 994 226 994 329 994 c 0,3,4
 367 994 367 994 426.5 988.5 c 128,-1,5
 486 983 486 983 571 972 c 1,6,7
 586 920 586 920 595 824 c 1,8,-1
 519 824 l 1,9,10
 577 654 577 654 612.5 551.5 c 128,-1,11
 648 449 648 449 662 410 c 1,12,13
 697 519 697 519 727.5 621.5 c 128,-1,14
 758 724 758 724 786 824 c 1,15,-1
 684 824 l 1,16,-1
 704 972 l 1,17,18
 789 983 789 983 861.5 988.5 c 128,-1,19
 934 994 934 994 997 994 c 0,20,21
 1018 994 1018 994 1038.5 993 c 128,-1,22
 1059 992 1059 992 1086 990 c 128,-1,23
 1113 988 1113 988 1149 983.5 c 128,-1,24
 1185 979 1185 979 1237 972 c 1,25,-1
 1237 824 l 1,26,-1
 1105 824 l 1,27,28
 1044 628 1044 628 970.5 424.5 c 128,-1,29
 897 221 897 221 806 0 c 1,30,31
 763 -5 763 -5 716 -7.5 c 128,-1,32
 669 -10 669 -10 617 -10 c 0,33,34
 581 -10 581 -10 535.5 -7.5 c 128,-1,35
 490 -5 490 -5 435 0 c 1,36,-1
 89 824 l 1,37,-1
 -17 824 l 1,38,-1
 -38 972 l 1,0,1
EndSplineSet
EndChar

StartChar: w
Encoding: 119 119 109
Width: 1835
GlyphClass: 2
Flags: W
LayerCount: 2
Fore
SplineSet
-27 972 m 1,0,1
 54 983 54 983 145.5 988.5 c 128,-1,2
 237 994 237 994 340 994 c 0,3,4
 377 994 377 994 434 988.5 c 128,-1,5
 491 983 491 983 572 972 c 1,6,7
 587 920 587 920 596 824 c 1,8,-1
 520 824 l 1,9,10
 522 819 522 819 550 717 c 128,-1,11
 578 615 578 615 633 410 c 1,12,-1
 789 910 l 2,13,14
 803 953 803 953 843.5 968 c 128,-1,15
 884 983 884 983 956 983 c 0,16,17
 1002 983 1002 983 1035 979.5 c 128,-1,18
 1068 976 1068 976 1091 965.5 c 128,-1,19
 1114 955 1114 955 1128.5 935 c 128,-1,20
 1143 915 1143 915 1154 882 c 2,21,-1
 1305 410 l 1,22,-1
 1398 824 l 1,23,-1
 1297 824 l 1,24,25
 1298 828 1298 828 1300.5 849 c 128,-1,26
 1303 870 1303 870 1306 895 c 128,-1,27
 1309 920 1309 920 1312 942 c 128,-1,28
 1315 964 1315 964 1317 972 c 1,29,30
 1395 983 1395 983 1462.5 988.5 c 128,-1,31
 1530 994 1530 994 1590 994 c 0,32,33
 1611 994 1611 994 1631.5 993 c 128,-1,34
 1652 992 1652 992 1679 990 c 128,-1,35
 1706 988 1706 988 1742 983.5 c 128,-1,36
 1778 979 1778 979 1830 972 c 1,37,-1
 1830 824 l 1,38,-1
 1700 824 l 1,39,40
 1646 615 1646 615 1587 412 c 128,-1,41
 1528 209 1528 209 1459 0 c 1,42,43
 1416 -5 1416 -5 1369 -7.5 c 128,-1,44
 1322 -10 1322 -10 1270 -10 c 0,45,46
 1238 -10 1238 -10 1195 -7.5 c 128,-1,47
 1152 -5 1152 -5 1098 0 c 1,48,-1
 933 509 l 1,49,50
 879 323 879 323 840 197.5 c 128,-1,51
 801 72 801 72 777 0 c 1,52,53
 734 -5 734 -5 687 -7.5 c 128,-1,54
 640 -10 640 -10 588 -10 c 0,55,56
 556 -10 556 -10 513 -7.5 c 128,-1,57
 470 -5 470 -5 416 0 c 1,58,-1
 99 824 l 1,59,-1
 -27 824 l 1,60,-1
 -27 972 l 1,0,1
EndSplineSet
EndChar

StartChar: x
Encoding: 120 120 110
Width: 1386
GlyphClass: 2
Flags: W
LayerCount: 2
Fore
SplineSet
1104 994 m 0,0,1
 1125 994 1125 994 1145.5 993 c 128,-1,2
 1166 992 1166 992 1193 990 c 128,-1,3
 1220 988 1220 988 1256 983.5 c 128,-1,4
 1292 979 1292 979 1344 972 c 1,5,-1
 1344 824 l 1,6,-1
 1202 824 l 1,7,-1
 961 517 l 1,8,-1
 1251 147 l 1,9,-1
 1374 147 l 1,10,-1
 1374 -11 l 1,11,12
 1299 -6 1299 -6 1214 -3 c 128,-1,13
 1129 0 1129 0 1032 0 c 0,14,15
 957 0 957 0 878.5 -3 c 128,-1,16
 800 -6 800 -6 715 -11 c 1,17,18
 711 7 711 7 708 18.5 c 128,-1,19
 705 30 705 30 703 45 c 128,-1,20
 701 60 701 60 698 83 c 128,-1,21
 695 106 695 106 691 147 c 1,22,-1
 770 147 l 1,23,-1
 614 363 l 1,24,-1
 458 147 l 1,25,-1
 562 147 l 1,26,27
 560 138 560 138 557 115.5 c 128,-1,28
 554 93 554 93 551 68 c 128,-1,29
 548 43 548 43 545.5 20.5 c 128,-1,30
 543 -2 543 -2 542 -11 c 1,31,32
 467 -6 467 -6 397.5 -3 c 128,-1,33
 328 0 328 0 259 0 c 0,34,35
 227 0 227 0 167 -3 c 128,-1,36
 107 -6 107 -6 19 -11 c 1,37,-1
 19 147 l 1,38,-1
 146 147 l 1,39,-1
 411 472 l 1,40,-1
 167 824 l 1,41,-1
 29 824 l 1,42,-1
 29 972 l 1,43,44
 110 983 110 983 201.5 988.5 c 128,-1,45
 293 994 293 994 396 994 c 0,46,47
 438 994 438 994 502.5 988.5 c 128,-1,48
 567 983 567 983 658 972 c 1,49,50
 673 920 673 920 682 824 c 1,51,-1
 616 824 l 1,52,-1
 749 630 l 1,53,-1
 892 824 l 1,54,-1
 801 824 l 1,55,-1
 821 972 l 1,56,57
 902 983 902 983 972.5 988.5 c 128,-1,58
 1043 994 1043 994 1104 994 c 0,0,1
EndSplineSet
EndChar

StartChar: y
Encoding: 121 121 111
Width: 1271
GlyphClass: 2
Flags: W
LayerCount: 2
Fore
SplineSet
1016 994 m 0,0,1
 1037 994 1037 994 1057.5 993 c 128,-1,2
 1078 992 1078 992 1105 990 c 128,-1,3
 1132 988 1132 988 1168 983.5 c 128,-1,4
 1204 979 1204 979 1256 972 c 1,5,-1
 1256 824 l 1,6,-1
 1125 824 l 1,7,-1
 836 11 l 2,8,9
 803 -82 803 -82 762.5 -154.5 c 128,-1,10
 722 -227 722 -227 661 -276.5 c 128,-1,11
 600 -326 600 -326 510.5 -351.5 c 128,-1,12
 421 -377 421 -377 289 -377 c 0,13,14
 146 -377 146 -377 45 -340 c 1,15,-1
 91 -169 l 1,16,17
 218 -217 218 -217 319 -217 c 0,18,19
 361 -217 361 -217 388 -197 c 128,-1,20
 415 -177 415 -177 431.5 -145.5 c 128,-1,21
 448 -114 448 -114 456.5 -75.5 c 128,-1,22
 465 -37 465 -37 470 1 c 1,23,-1
 109 824 l 1,24,-1
 -19 824 l 1,25,-1
 -19 972 l 1,26,27
 62 983 62 983 153.5 988.5 c 128,-1,28
 245 994 245 994 348 994 c 0,29,30
 386 994 386 994 445.5 988.5 c 128,-1,31
 505 983 505 983 590 972 c 1,32,33
 605 920 605 920 614 824 c 1,34,-1
 538 824 l 1,35,-1
 682 393 l 1,36,37
 717 510 717 510 747.5 617 c 128,-1,38
 778 724 778 724 804 824 c 1,39,-1
 702 824 l 1,40,-1
 723 972 l 1,41,42
 808 983 808 983 880.5 988.5 c 128,-1,43
 953 994 953 994 1016 994 c 0,0,1
EndSplineSet
EndChar

StartChar: z
Encoding: 122 122 112
Width: 1063
GlyphClass: 2
Flags: W
LayerCount: 2
Fore
SplineSet
246 0 m 1,0,1
 146 2 146 2 121 9 c 0,2,3
 54 28 54 28 54 99 c 2,4,-1
 54 202 l 1,5,-1
 619 824 l 1,6,-1
 324 824 l 2,7,8
 314 824 314 824 296 821 c 128,-1,9
 278 818 278 818 272 811 c 0,10,11
 257 791 257 791 250.5 750 c 128,-1,12
 244 709 244 709 243 646 c 1,13,-1
 70 636 l 1,14,-1
 70 984 l 1,15,-1
 904 984 l 2,16,17
 943 984 943 984 965 977 c 128,-1,18
 987 970 987 970 998 957.5 c 128,-1,19
 1009 945 1009 945 1012 927.5 c 128,-1,20
 1015 910 1015 910 1015 889 c 2,21,-1
 1015 753 l 1,22,-1
 490 164 l 1,23,-1
 762 164 l 2,24,25
 781 164 781 164 795.5 174.5 c 128,-1,26
 810 185 810 185 823 208 c 128,-1,27
 836 231 836 231 848.5 268.5 c 128,-1,28
 861 306 861 306 877 360 c 1,29,-1
 1019 368 l 1,30,-1
 1019 0 l 1,31,-1
 246 0 l 1,0,1
EndSplineSet
EndChar

StartChar: braceleft
Encoding: 123 123 113
Width: 772
GlyphClass: 2
Flags: W
LayerCount: 2
Fore
SplineSet
529 1475 m 0,0,1
 568 1475 568 1475 602.5 1473 c 128,-1,2
 637 1471 637 1471 662.5 1463 c 128,-1,3
 688 1455 688 1455 704 1440 c 128,-1,4
 720 1425 720 1425 723 1398 c 1,5,-1
 723 1361 l 1,6,7
 675 1358 675 1358 640 1353 c 128,-1,8
 605 1348 605 1348 582 1334 c 128,-1,9
 559 1320 559 1320 547.5 1294 c 128,-1,10
 536 1268 536 1268 536 1222 c 2,11,-1
 536 853 l 2,12,13
 536 701 536 701 401 631 c 1,14,15
 467 596 467 596 501.5 541.5 c 128,-1,16
 536 487 536 487 536 412 c 2,17,-1
 536 42 l 2,18,19
 536 -73 536 -73 541 -73 c 1,20,21
 586 -86 586 -86 723 -100 c 1,22,-1
 723 -133 l 2,23,24
 723 -160 723 -160 696.5 -176 c 128,-1,25
 670 -192 670 -192 635.5 -199.5 c 128,-1,26
 601 -207 601 -207 567.5 -209 c 128,-1,27
 534 -211 534 -211 520 -211 c 0,28,29
 440 -211 440 -211 375 -200.5 c 128,-1,30
 310 -190 310 -190 263.5 -161.5 c 128,-1,31
 217 -133 217 -133 191.5 -83.5 c 128,-1,32
 166 -34 166 -34 166 43 c 2,33,-1
 166 405 l 2,34,35
 166 442 166 442 161.5 471 c 128,-1,36
 157 500 157 500 144.5 522 c 128,-1,37
 132 544 132 544 110 559 c 128,-1,38
 88 574 88 574 53 582 c 1,39,-1
 53 688 l 1,40,41
 95 692 95 692 118 713.5 c 128,-1,42
 141 735 141 735 151.5 765.5 c 128,-1,43
 162 796 162 796 164 831 c 128,-1,44
 166 866 166 866 166 896 c 2,45,-1
 166 1231 l 2,46,47
 166 1306 166 1306 191.5 1353.5 c 128,-1,48
 217 1401 217 1401 264.5 1428 c 128,-1,49
 312 1455 312 1455 379 1465 c 128,-1,50
 446 1475 446 1475 529 1475 c 0,0,1
EndSplineSet
EndChar

StartChar: bar
Encoding: 124 124 114
Width: 1107
GlyphClass: 2
Flags: W
LayerCount: 2
Fore
SplineSet
525 1412 m 2,0,1
 611 1412 611 1412 659 1382.5 c 128,-1,2
 707 1353 707 1353 707 1282 c 2,3,-1
 707 -225 l 1,4,-1
 580 -225 l 2,5,6
 527 -225 527 -225 492 -215.5 c 128,-1,7
 457 -206 457 -206 436.5 -183.5 c 128,-1,8
 416 -161 416 -161 407.5 -124 c 128,-1,9
 399 -87 399 -87 399 -31 c 2,10,-1
 399 1412 l 1,11,-1
 525 1412 l 2,0,1
EndSplineSet
EndChar

StartChar: braceright
Encoding: 125 125 115
Width: 767
GlyphClass: 2
Flags: W
LayerCount: 2
Fore
SplineSet
242 1475 m 0,0,1
 325 1475 325 1475 392 1465 c 128,-1,2
 459 1455 459 1455 506.5 1428 c 128,-1,3
 554 1401 554 1401 579.5 1353.5 c 128,-1,4
 605 1306 605 1306 605 1231 c 2,5,-1
 605 896 l 2,6,7
 605 866 605 866 607 831 c 128,-1,8
 609 796 609 796 619.5 765.5 c 128,-1,9
 630 735 630 735 653 713.5 c 128,-1,10
 676 692 676 692 718 688 c 1,11,-1
 718 582 l 1,12,13
 683 574 683 574 661 559 c 128,-1,14
 639 544 639 544 626.5 522 c 128,-1,15
 614 500 614 500 609.5 471 c 128,-1,16
 605 442 605 442 605 405 c 2,17,-1
 605 43 l 2,18,19
 605 -34 605 -34 579.5 -83.5 c 128,-1,20
 554 -133 554 -133 507.5 -161.5 c 128,-1,21
 461 -190 461 -190 396 -200.5 c 128,-1,22
 331 -211 331 -211 251 -211 c 0,23,24
 237 -211 237 -211 203.5 -209 c 128,-1,25
 170 -207 170 -207 135.5 -199.5 c 128,-1,26
 101 -192 101 -192 74.5 -176 c 128,-1,27
 48 -160 48 -160 48 -133 c 2,28,-1
 48 -100 l 1,29,30
 185 -86 185 -86 230 -73 c 1,31,32
 235 -73 235 -73 235 42 c 2,33,-1
 235 412 l 2,34,35
 235 487 235 487 269.5 541.5 c 128,-1,36
 304 596 304 596 370 631 c 1,37,38
 235 701 235 701 235 853 c 2,39,-1
 235 1222 l 2,40,41
 235 1268 235 1268 223.5 1294 c 128,-1,42
 212 1320 212 1320 189 1334 c 128,-1,43
 166 1348 166 1348 131 1353 c 128,-1,44
 96 1358 96 1358 48 1361 c 1,45,-1
 48 1398 l 1,46,47
 51 1425 51 1425 67 1440 c 128,-1,48
 83 1455 83 1455 108.5 1463 c 128,-1,49
 134 1471 134 1471 168.5 1473 c 128,-1,50
 203 1475 203 1475 242 1475 c 0,0,1
EndSplineSet
EndChar

StartChar: asciitilde
Encoding: 126 126 116
Width: 1159
GlyphClass: 2
Flags: W
LayerCount: 2
Fore
SplineSet
801 538 m 0,0,1
 870 538 870 538 923 567.5 c 128,-1,2
 976 597 976 597 1004 645 c 1,3,4
 1027 615 1027 615 1043.5 589.5 c 128,-1,5
 1060 564 1060 564 1068 543 c 1,6,7
 1057 508 1057 508 1034.5 480.5 c 128,-1,8
 1012 453 1012 453 980.5 434 c 128,-1,9
 949 415 949 415 909.5 404.5 c 128,-1,10
 870 394 870 394 825 394 c 0,11,12
 794 394 794 394 767.5 397 c 128,-1,13
 741 400 741 400 714 407 c 128,-1,14
 687 414 687 414 657 425 c 128,-1,15
 627 436 627 436 589 453 c 0,16,17
 533 477 533 477 495 492.5 c 128,-1,18
 457 508 457 508 430 516 c 128,-1,19
 403 524 403 524 385 527 c 128,-1,20
 367 530 367 530 352 530 c 0,21,22
 248 530 248 530 167 398 c 1,23,24
 107 458 107 458 91 495 c 1,25,26
 100 530 100 530 126 562 c 128,-1,27
 152 594 152 594 187.5 618 c 128,-1,28
 223 642 223 642 265 656.5 c 128,-1,29
 307 671 307 671 348 671 c 0,30,31
 398 671 398 671 451.5 658 c 128,-1,32
 505 645 505 645 543 628 c 0,33,34
 608 599 608 599 649.5 581.5 c 128,-1,35
 691 564 691 564 718.5 554 c 128,-1,36
 746 544 746 544 764 541 c 128,-1,37
 782 538 782 538 801 538 c 0,0,1
EndSplineSet
EndChar

StartChar: cent
Encoding: 162 162 119
Width: 1192
GlyphClass: 2
Flags: W
LayerCount: 2
Fore
SplineSet
759 148 m 1,0,1
 806 149 806 149 848.5 157.5 c 128,-1,2
 891 166 891 166 932 181 c 128,-1,3
 973 196 973 196 1014 217 c 128,-1,4
 1055 238 1055 238 1099 265 c 1,5,-1
 1116 105 l 1,6,7
 970 -2 970 -2 759 -19 c 1,8,-1
 759 -290 l 1,9,-1
 736 -290 l 2,10,11
 700 -290 700 -290 677.5 -286 c 128,-1,12
 655 -282 655 -282 642.5 -271.5 c 128,-1,13
 630 -261 630 -261 626 -241.5 c 128,-1,14
 622 -222 622 -222 622 -190 c 2,15,-1
 622 -19 l 1,16,17
 503 -11 503 -11 406 26.5 c 128,-1,18
 309 64 309 64 239.5 128.5 c 128,-1,19
 170 193 170 193 132 283 c 128,-1,20
 94 373 94 373 94 486 c 0,21,22
 94 612 94 612 138 705 c 128,-1,23
 182 798 182 798 255.5 860.5 c 128,-1,24
 329 923 329 923 424 957.5 c 128,-1,25
 519 992 519 992 622 1001 c 1,26,-1
 622 1278 l 1,27,-1
 644 1278 l 2,28,29
 674 1278 674 1278 696 1275.5 c 128,-1,30
 718 1273 718 1273 732 1263 c 128,-1,31
 746 1253 746 1253 752.5 1234.5 c 128,-1,32
 759 1216 759 1216 759 1183 c 2,33,-1
 759 1003 l 1,34,35
 871 995 871 995 966 961 c 128,-1,36
 1061 927 1061 927 1124 872 c 1,37,-1
 1107 674 l 1,38,-1
 836 674 l 1,39,40
 814 717 814 717 795 747.5 c 128,-1,41
 776 778 776 778 759 797 c 1,42,-1
 759 148 l 1,0,1
622 815 m 1,43,44
 520 744 520 744 520 516 c 0,45,46
 520 261 520 261 622 179 c 1,47,-1
 622 815 l 1,43,44
EndSplineSet
EndChar

StartChar: sterling
Encoding: 163 163 120
Width: 1255
GlyphClass: 2
Flags: W
LayerCount: 2
Fore
SplineSet
41 144 m 1,0,1
 86 157 86 157 123 174 c 128,-1,2
 160 191 160 191 186.5 217 c 128,-1,3
 213 243 213 243 228 279.5 c 128,-1,4
 243 316 243 316 243 367 c 0,5,6
 243 427 243 427 240 492 c 128,-1,7
 237 557 237 557 232 632 c 1,8,-1
 40 632 l 1,9,-1
 40 705 l 2,10,11
 40 733 40 733 49 749 c 128,-1,12
 58 765 58 765 74 773 c 128,-1,13
 90 781 90 781 111 783 c 128,-1,14
 132 785 132 785 155 785 c 2,15,-1
 212 785 l 1,16,17
 199 876 199 876 193 939 c 128,-1,18
 187 1002 187 1002 187 1044 c 0,19,20
 187 1148 187 1148 229 1218.5 c 128,-1,21
 271 1289 271 1289 343 1332 c 128,-1,22
 415 1375 415 1375 510.5 1393.5 c 128,-1,23
 606 1412 606 1412 713 1412 c 0,24,25
 1022 1412 1022 1412 1198 1287 c 1,26,-1
 1198 973 l 1,27,-1
 952 948 l 1,28,29
 900 1100 900 1100 846 1170.5 c 128,-1,30
 792 1241 792 1241 724 1241 c 0,31,32
 605 1241 605 1241 605 1031 c 0,33,34
 605 974 605 974 623 785 c 1,35,-1
 933 785 l 1,36,-1
 933 712 l 2,37,38
 933 670 933 670 909.5 651 c 128,-1,39
 886 632 886 632 841 632 c 2,40,-1
 641 632 l 1,41,42
 643 590 643 590 644.5 559.5 c 128,-1,43
 646 529 646 529 646 507 c 0,44,45
 646 457 646 457 639.5 414.5 c 128,-1,46
 633 372 633 372 620 331.5 c 128,-1,47
 607 291 607 291 588.5 251 c 128,-1,48
 570 211 570 211 545 167 c 1,49,-1
 681 167 l 2,50,51
 761 167 761 167 813 183.5 c 128,-1,52
 865 200 865 200 899.5 234 c 128,-1,53
 934 268 934 268 956.5 319.5 c 128,-1,54
 979 371 979 371 1000 441 c 1,55,-1
 1207 419 l 1,56,57
 1207 334 1207 334 1199.5 236.5 c 128,-1,58
 1192 139 1192 139 1178 21 c 1,59,60
 951 0 951 0 667 0 c 2,61,-1
 78 0 l 1,62,63
 41 64 41 64 41 144 c 1,0,1
EndSplineSet
EndChar

StartChar: currency
Encoding: 164 164 121
Width: 1288
GlyphClass: 2
Flags: W
LayerCount: 2
Fore
SplineSet
963 1002 m 1,0,1
 1053 885 1053 885 1053 730 c 0,2,3
 1053 574 1053 574 962 462 c 1,4,-1
 1092 330 l 1,5,-1
 1084 322 l 2,6,7
 1064 302 1064 302 1041.5 281.5 c 128,-1,8
 1019 261 1019 261 998 252 c 1,9,10
 985 257 985 257 969 270.5 c 128,-1,11
 953 284 953 284 936 301 c 128,-1,12
 919 318 919 318 902.5 336 c 128,-1,13
 886 354 886 354 871 369 c 1,14,15
 813 327 813 327 743 303 c 128,-1,16
 673 279 673 279 598 279 c 256,17,18
 523 279 523 279 455.5 302.5 c 128,-1,19
 388 326 388 326 331 369 c 1,20,-1
 200 240 l 1,21,22
 178 261 178 261 154.5 284.5 c 128,-1,23
 131 308 131 308 120 328 c 1,24,25
 133 356 133 356 158 381 c 2,26,-1
 240 462 l 1,27,28
 150 576 150 576 150 731 c 256,29,30
 150 886 150 886 240 1000 c 1,31,-1
 107 1131 l 1,32,33
 130 1152 130 1152 153.5 1176 c 128,-1,34
 177 1200 177 1200 200 1210 c 1,35,36
 212 1203 212 1203 224.5 1194.5 c 128,-1,37
 237 1186 237 1186 250 1173 c 2,38,-1
 330 1093 l 1,39,40
 452 1184 452 1184 599 1184 c 0,41,42
 672 1184 672 1184 740 1160.5 c 128,-1,43
 808 1137 808 1137 869 1092 c 1,44,-1
 1001 1224 l 1,45,-1
 1010 1215 l 2,46,47
 1034 1192 1034 1192 1052.5 1169.5 c 128,-1,48
 1071 1147 1071 1147 1071 1121 c 0,49,50
 1071 1110 1071 1110 1070 1108 c 2,51,-1
 963 1002 l 1,0,1
282 731 m 0,52,53
 282 660 282 660 307 601 c 128,-1,54
 332 542 332 542 375.5 499 c 128,-1,55
 419 456 419 456 477 432 c 128,-1,56
 535 408 535 408 601 408 c 0,57,58
 669 408 669 408 727.5 433 c 128,-1,59
 786 458 786 458 829 501.5 c 128,-1,60
 872 545 872 545 896.5 604 c 128,-1,61
 921 663 921 663 921 731 c 0,62,63
 921 800 921 800 896.5 859 c 128,-1,64
 872 918 872 918 829 961.5 c 128,-1,65
 786 1005 786 1005 727.5 1030 c 128,-1,66
 669 1055 669 1055 601 1055 c 256,67,68
 533 1055 533 1055 475 1030.5 c 128,-1,69
 417 1006 417 1006 374 962.5 c 128,-1,70
 331 919 331 919 306.5 859.5 c 128,-1,71
 282 800 282 800 282 731 c 0,52,53
EndSplineSet
EndChar

StartChar: yen
Encoding: 165 165 122
Width: 1567
GlyphClass: 2
Flags: W
LayerCount: 2
Fore
SplineSet
582 147 m 1,0,1
 584 161 584 161 585.5 178 c 128,-1,2
 587 195 587 195 587 217 c 2,3,-1
 587 266 l 1,4,-1
 236 266 l 1,5,-1
 236 341 l 1,6,7
 270 381 270 381 316.5 397 c 128,-1,8
 363 413 363 413 440 413 c 2,9,-1
 585 413 l 1,10,-1
 585 514 l 1,11,-1
 236 514 l 1,12,-1
 236 590 l 1,13,14
 270 628 270 628 317 645 c 128,-1,15
 364 662 364 662 437 662 c 2,16,-1
 496 662 l 1,17,18
 390 837 390 837 317 954.5 c 128,-1,19
 244 1072 244 1072 206 1140 c 2,20,-1
 164 1215 l 1,21,-1
 17 1215 l 1,22,-1
 -7 1387 l 1,23,24
 61 1391 61 1391 117 1393.5 c 128,-1,25
 173 1396 173 1396 226.5 1397 c 128,-1,26
 280 1398 280 1398 337 1398.5 c 128,-1,27
 394 1399 394 1399 463 1399 c 0,28,29
 626 1399 626 1399 749 1387 c 1,30,-1
 764 1215 l 1,31,-1
 636 1215 l 1,32,33
 650 1175 650 1175 658 1153.5 c 128,-1,34
 666 1132 666 1132 668 1128 c 2,35,-1
 876 752 l 1,36,-1
 1052 1123 l 2,37,38
 1060 1140 1060 1140 1064.5 1161.5 c 128,-1,39
 1069 1183 1069 1183 1074 1215 c 1,40,-1
 918 1215 l 1,41,-1
 953 1387 l 1,42,43
 1077 1399 1077 1399 1240 1399 c 2,44,-1
 1314 1399 l 2,45,46
 1432 1399 1432 1399 1569 1387 c 1,47,-1
 1545 1215 l 1,48,-1
 1398 1215 l 1,49,50
 1385 1199 1385 1199 1352 1123 c 1,51,52
 1328 1080 1328 1080 1293.5 1017 c 128,-1,53
 1259 954 1259 954 1213 869 c 2,54,-1
 1101 662 l 1,55,-1
 1361 662 l 1,56,-1
 1361 596 l 2,57,58
 1361 569 1361 569 1352 553.5 c 128,-1,59
 1343 538 1343 538 1328.5 530 c 128,-1,60
 1314 522 1314 522 1295.5 519 c 128,-1,61
 1277 516 1277 516 1258 514 c 1,62,-1
 1020 514 l 1,63,-1
 1020 413 l 1,64,-1
 1361 413 l 1,65,-1
 1361 348 l 2,66,67
 1361 301 1361 301 1334.5 284.5 c 128,-1,68
 1308 268 1308 268 1265 266 c 1,69,-1
 1020 266 l 1,70,-1
 1020 239 l 2,71,72
 1020 212 1020 212 1021.5 189 c 128,-1,73
 1023 166 1023 166 1025 147 c 1,74,-1
 1213 147 l 1,75,-1
 1213 -11 l 1,76,77
 1101 -6 1101 -6 1002.5 -3 c 128,-1,78
 904 0 904 0 816 0 c 0,79,80
 725 0 725 0 621 -3 c 128,-1,81
 517 -6 517 -6 396 -11 c 1,82,-1
 396 147 l 1,83,-1
 582 147 l 1,0,1
EndSplineSet
EndChar

StartChar: brokenbar
Encoding: 166 166 123
Width: 1150
GlyphClass: 2
Flags: W
LayerCount: 2
Fore
SplineSet
566 1448 m 2,0,1
 645 1448 645 1448 689.5 1431 c 128,-1,2
 734 1414 734 1414 750 1367 c 1,3,-1
 750 664 l 1,4,-1
 584 664 l 2,5,6
 550 664 550 664 519 665.5 c 128,-1,7
 488 667 488 667 464 673 c 128,-1,8
 440 679 440 679 424 692 c 128,-1,9
 408 705 408 705 404 728 c 0,10,11
 403 739 403 739 402.5 751.5 c 128,-1,12
 402 764 402 764 402 778 c 2,13,-1
 402 1448 l 1,14,-1
 566 1448 l 2,0,1
566 378 m 2,15,16
 646 378 646 378 690 361.5 c 128,-1,17
 734 345 734 345 750 298 c 1,18,-1
 750 -405 l 1,19,-1
 542 -405 l 2,20,21
 519 -405 519 -405 496 -403.5 c 128,-1,22
 473 -402 473 -402 454 -395.5 c 128,-1,23
 435 -389 435 -389 421.5 -376.5 c 128,-1,24
 408 -364 408 -364 404 -341 c 0,25,26
 403 -330 403 -330 402.5 -318 c 128,-1,27
 402 -306 402 -306 402 -292 c 2,28,-1
 402 378 l 1,29,-1
 566 378 l 2,15,16
EndSplineSet
EndChar

StartChar: section
Encoding: 167 167 124
Width: 975
GlyphClass: 2
Flags: W
LayerCount: 2
Fore
SplineSet
253 957 m 1,0,1
 224 980 224 980 203 1004 c 128,-1,2
 182 1028 182 1028 168 1056 c 128,-1,3
 154 1084 154 1084 147 1117.5 c 128,-1,4
 140 1151 140 1151 140 1193 c 0,5,6
 140 1275 140 1275 172 1333.5 c 128,-1,7
 204 1392 204 1392 258.5 1429.5 c 128,-1,8
 313 1467 313 1467 387 1484 c 128,-1,9
 461 1501 461 1501 545 1501 c 0,10,11
 602 1501 602 1501 651.5 1491.5 c 128,-1,12
 701 1482 701 1482 740.5 1469 c 128,-1,13
 780 1456 780 1456 806.5 1441.5 c 128,-1,14
 833 1427 833 1427 844 1418 c 1,15,-1
 823 1212 l 1,16,-1
 709 1212 l 1,17,18
 694 1251 694 1251 677.5 1278 c 128,-1,19
 661 1305 661 1305 638 1322.5 c 128,-1,20
 615 1340 615 1340 582 1348 c 128,-1,21
 549 1356 549 1356 501 1356 c 0,22,23
 425 1356 425 1356 379.5 1324.5 c 128,-1,24
 334 1293 334 1293 334 1227 c 0,25,26
 334 1192 334 1192 347.5 1166.5 c 128,-1,27
 361 1141 361 1141 386.5 1120 c 128,-1,28
 412 1099 412 1099 449 1080.5 c 128,-1,29
 486 1062 486 1062 532 1041 c 0,30,31
 645 990 645 990 718.5 950.5 c 128,-1,32
 792 911 792 911 835 872 c 128,-1,33
 878 833 878 833 895 788 c 128,-1,34
 912 743 912 743 912 682 c 0,35,36
 912 591 912 591 875.5 524.5 c 128,-1,37
 839 458 839 458 773 420 c 1,38,39
 894 332 894 332 894 186 c 0,40,41
 894 102 894 102 863 41.5 c 128,-1,42
 832 -19 832 -19 777.5 -58 c 128,-1,43
 723 -97 723 -97 649 -115 c 128,-1,44
 575 -133 575 -133 490 -133 c 0,45,46
 451 -133 451 -133 396.5 -125 c 128,-1,47
 342 -117 342 -117 287 -102 c 128,-1,48
 232 -87 232 -87 184 -65 c 128,-1,49
 136 -43 136 -43 111 -15 c 1,50,51
 111 71 111 71 109.5 130.5 c 128,-1,52
 108 190 108 190 105 228 c 1,53,-1
 234 228 l 1,54,55
 251 175 251 175 273.5 135 c 128,-1,56
 296 95 296 95 328.5 68 c 128,-1,57
 361 41 361 41 405 27.5 c 128,-1,58
 449 14 449 14 509 14 c 0,59,60
 550 14 550 14 584.5 22.5 c 128,-1,61
 619 31 619 31 643.5 48.5 c 128,-1,62
 668 66 668 66 682 92 c 128,-1,63
 696 118 696 118 696 153 c 0,64,65
 696 174 696 174 687 192.5 c 128,-1,66
 678 211 678 211 654.5 230 c 128,-1,67
 631 249 631 249 591 271.5 c 128,-1,68
 551 294 551 294 490 323 c 2,69,-1
 351 389 l 2,70,71
 313 407 313 407 270 431.5 c 128,-1,72
 227 456 227 456 191 493 c 128,-1,73
 155 530 155 530 131 582.5 c 128,-1,74
 107 635 107 635 107 709 c 0,75,76
 107 803 107 803 144 861 c 128,-1,77
 181 919 181 919 253 957 c 1,0,1
398 876 m 1,78,79
 350 848 350 848 324 816 c 128,-1,80
 298 784 298 784 298 736 c 0,81,82
 298 709 298 709 306 689.5 c 128,-1,83
 314 670 314 670 330.5 653.5 c 128,-1,84
 347 637 347 637 372 621.5 c 128,-1,85
 397 606 397 606 432 588 c 2,86,-1
 508 548 l 2,87,88
 534 534 534 534 560 522 c 128,-1,89
 586 510 586 510 613 499 c 1,90,91
 721 557 721 557 721 643 c 0,92,93
 721 667 721 667 702.5 691.5 c 128,-1,94
 684 716 684 716 656 737.5 c 128,-1,95
 628 759 628 759 595.5 777.5 c 128,-1,96
 563 796 563 796 535 809 c 0,97,98
 494 827 494 827 469 839 c 128,-1,99
 444 851 444 851 429 858.5 c 128,-1,100
 414 866 414 866 407.5 870 c 128,-1,101
 401 874 401 874 398 876 c 1,78,79
EndSplineSet
EndChar

StartChar: dieresis
Encoding: 168 168 125
Width: 1240
GlyphClass: 2
Flags: W
LayerCount: 2
Fore
SplineSet
537 1257 m 0,0,1
 537 1185 537 1185 492 1142.5 c 128,-1,2
 447 1100 447 1100 372 1100 c 256,3,4
 297 1100 297 1100 252 1142 c 128,-1,5
 207 1184 207 1184 207 1257 c 0,6,7
 207 1291 207 1291 219.5 1320 c 128,-1,8
 232 1349 232 1349 254 1369 c 128,-1,9
 276 1389 276 1389 306.5 1400.5 c 128,-1,10
 337 1412 337 1412 372 1412 c 0,11,12
 408 1412 408 1412 438.5 1400.5 c 128,-1,13
 469 1389 469 1389 490.5 1369 c 128,-1,14
 512 1349 512 1349 524.5 1320 c 128,-1,15
 537 1291 537 1291 537 1257 c 0,0,1
1032 1257 m 0,16,17
 1032 1184 1032 1184 987 1142 c 128,-1,18
 942 1100 942 1100 867 1100 c 256,19,20
 792 1100 792 1100 747 1142 c 128,-1,21
 702 1184 702 1184 702 1257 c 0,22,23
 702 1291 702 1291 714.5 1320 c 128,-1,24
 727 1349 727 1349 749 1369 c 128,-1,25
 771 1389 771 1389 801.5 1400.5 c 128,-1,26
 832 1412 832 1412 867 1412 c 0,27,28
 903 1412 903 1412 933.5 1400.5 c 128,-1,29
 964 1389 964 1389 985.5 1369 c 128,-1,30
 1007 1349 1007 1349 1019.5 1320 c 128,-1,31
 1032 1291 1032 1291 1032 1257 c 0,16,17
EndSplineSet
EndChar

StartChar: copyright
Encoding: 169 169 126
Width: 1625
GlyphClass: 2
Flags: W
LayerCount: 2
Fore
SplineSet
813 1244 m 0,0,1
 691 1244 691 1244 594 1201 c 128,-1,2
 497 1158 497 1158 429.5 1083.5 c 128,-1,3
 362 1009 362 1009 326 908 c 128,-1,4
 290 807 290 807 290 692 c 0,5,6
 290 572 290 572 327.5 472 c 128,-1,7
 365 372 365 372 434 299.5 c 128,-1,8
 503 227 503 227 599.5 186.5 c 128,-1,9
 696 146 696 146 813 146 c 0,10,11
 947 146 947 146 1047 192 c 128,-1,12
 1147 238 1147 238 1213 314.5 c 128,-1,13
 1279 391 1279 391 1312 489.5 c 128,-1,14
 1345 588 1345 588 1345 692 c 0,15,16
 1345 815 1345 815 1305 916.5 c 128,-1,17
 1265 1018 1265 1018 1194 1090.5 c 128,-1,18
 1123 1163 1123 1163 1025.5 1203.5 c 128,-1,19
 928 1244 928 1244 813 1244 c 0,0,1
813 -22 m 0,20,21
 647 -22 647 -22 513.5 32.5 c 128,-1,22
 380 87 380 87 286 182.5 c 128,-1,23
 192 278 192 278 141.5 408.5 c 128,-1,24
 91 539 91 539 91 691 c 0,25,26
 91 834 91 834 139 964.5 c 128,-1,27
 187 1095 187 1095 279 1194.5 c 128,-1,28
 371 1294 371 1294 505.5 1353 c 128,-1,29
 640 1412 640 1412 813 1412 c 0,30,31
 985 1412 985 1412 1119.5 1353.5 c 128,-1,32
 1254 1295 1254 1295 1346 1196 c 128,-1,33
 1438 1097 1438 1097 1486 966.5 c 128,-1,34
 1534 836 1534 836 1534 691 c 0,35,36
 1534 402 1534 402 1354 200 c 0,37,38
 1156 -22 1156 -22 813 -22 c 0,20,21
863 464 m 0,39,40
 903 464 903 464 937.5 469 c 128,-1,41
 972 474 972 474 1003.5 484.5 c 128,-1,42
 1035 495 1035 495 1066 510 c 128,-1,43
 1097 525 1097 525 1132 546 c 1,44,-1
 1143 434 l 1,45,46
 1089 394 1089 394 1012 370 c 128,-1,47
 935 346 935 346 847 346 c 0,48,49
 753 346 753 346 676 369.5 c 128,-1,50
 599 393 599 393 544 438.5 c 128,-1,51
 489 484 489 484 458.5 550 c 128,-1,52
 428 616 428 616 428 701 c 0,53,54
 428 797 428 797 464.5 865.5 c 128,-1,55
 501 934 501 934 561 978.5 c 128,-1,56
 621 1023 621 1023 698 1043.5 c 128,-1,57
 775 1064 775 1064 856 1064 c 0,58,59
 947 1064 947 1064 1023.5 1039 c 128,-1,60
 1100 1014 1100 1014 1149 971 c 1,61,-1
 1137 832 l 1,62,-1
 947 832 l 1,63,64
 917 895 917 895 892 920 c 128,-1,65
 867 945 867 945 844 945 c 0,66,67
 809 945 809 945 786.5 924.5 c 128,-1,68
 764 904 764 904 750.5 871.5 c 128,-1,69
 737 839 737 839 731.5 799.5 c 128,-1,70
 726 760 726 760 726 722 c 0,71,72
 726 595 726 595 760 529.5 c 128,-1,73
 794 464 794 464 863 464 c 0,39,40
EndSplineSet
EndChar

StartChar: ordfeminine
Encoding: 170 170 127
Width: 950
GlyphClass: 2
Flags: W
LayerCount: 2
Fore
SplineSet
471 1013 m 2,0,1
 414 1013 414 1013 382 976 c 128,-1,2
 350 939 350 939 350 879 c 0,3,4
 350 773 350 773 412 773 c 0,5,6
 446 773 446 773 493 812 c 1,7,-1
 493 1013 l 1,8,-1
 471 1013 l 2,0,1
915 696 m 1,9,10
 766 665 766 665 609 665 c 1,11,12
 556 702 556 702 520 747 c 1,13,14
 433 656 433 656 311 656 c 0,15,16
 253 656 253 656 204.5 669.5 c 128,-1,17
 156 683 156 683 121.5 710 c 128,-1,18
 87 737 87 737 67.5 778 c 128,-1,19
 48 819 48 819 48 873 c 0,20,21
 48 986 48 986 154.5 1043 c 128,-1,22
 261 1100 261 1100 479 1100 c 2,23,-1
 493 1100 l 1,24,-1
 493 1125 l 2,25,26
 493 1182 493 1182 491 1216.5 c 128,-1,27
 489 1251 489 1251 484.5 1269 c 128,-1,28
 480 1287 480 1287 472.5 1293 c 128,-1,29
 465 1299 465 1299 455 1300 c 1,30,31
 412 1300 412 1300 358 1255.5 c 128,-1,32
 304 1211 304 1211 244 1135 c 1,33,-1
 67 1248 l 1,34,35
 67 1280 67 1280 96.5 1309.5 c 128,-1,36
 126 1339 126 1339 176 1361.5 c 128,-1,37
 226 1384 226 1384 290.5 1397 c 128,-1,38
 355 1410 355 1410 426 1410 c 0,39,40
 515 1410 515 1410 585 1395 c 128,-1,41
 655 1380 655 1380 703 1345.5 c 128,-1,42
 751 1311 751 1311 776 1254 c 128,-1,43
 801 1197 801 1197 801 1113 c 0,44,45
 801 1092 801 1092 800.5 1064.5 c 128,-1,46
 800 1037 800 1037 800 1003 c 2,47,-1
 800 873 l 2,48,49
 800 837 800 837 801 814 c 128,-1,50
 802 791 802 791 804 781 c 1,51,52
 815 780 815 780 827.5 779.5 c 128,-1,53
 840 779 840 779 853 779 c 2,54,-1
 915 779 l 1,55,-1
 915 696 l 1,9,10
EndSplineSet
EndChar

StartChar: guillemotleft
Encoding: 171 171 128
Width: 1047
GlyphClass: 2
Flags: W
LayerCount: 2
Fore
SplineSet
923 129 m 1,0,1
 881 93 881 93 814 66 c 1,2,-1
 481 469 l 1,3,-1
 481 583 l 1,4,-1
 820 1017 l 1,5,6
 866 1000 866 1000 895.5 987 c 128,-1,7
 925 974 925 974 939 964 c 1,8,9
 931 941 931 941 913 900.5 c 128,-1,10
 895 860 895 860 868 805 c 128,-1,11
 841 750 841 750 806.5 682.5 c 128,-1,12
 772 615 772 615 732 539 c 1,13,14
 790 416 790 416 837.5 315 c 128,-1,15
 885 214 885 214 923 129 c 1,0,1
549 129 m 1,16,17
 507 93 507 93 440 66 c 1,18,-1
 107 469 l 1,19,-1
 107 583 l 1,20,-1
 446 1017 l 1,21,22
 492 1000 492 1000 521.5 987 c 128,-1,23
 551 974 551 974 565 964 c 1,24,25
 557 941 557 941 539 900.5 c 128,-1,26
 521 860 521 860 494 805 c 128,-1,27
 467 750 467 750 432.5 682.5 c 128,-1,28
 398 615 398 615 358 539 c 1,29,30
 416 416 416 416 463.5 315 c 128,-1,31
 511 214 511 214 549 129 c 1,16,17
EndSplineSet
EndChar

StartChar: logicalnot
Encoding: 172 172 129
Width: 1289
GlyphClass: 2
Flags: W
LayerCount: 2
Fore
SplineSet
1057 231 m 2,0,1
 995 231 995 231 960 247 c 128,-1,2
 925 263 925 263 925 307 c 2,3,-1
 925 631 l 1,4,-1
 107 631 l 1,5,-1
 107 710 l 2,6,7
 107 743 107 743 112.5 762.5 c 128,-1,8
 118 782 118 782 131 792 c 128,-1,9
 144 802 144 802 166.5 805 c 128,-1,10
 189 808 189 808 222 808 c 2,11,-1
 1182 808 l 1,12,-1
 1182 231 l 1,13,-1
 1057 231 l 2,0,1
EndSplineSet
EndChar

StartChar: uni00AD
Encoding: 173 173 130
Width: 596
GlyphClass: 2
Flags: W
LayerCount: 2
Fore
SplineSet
774 515 m 2,0,1
 774 495 774 495 763.5 481 c 128,-1,2
 753 467 753 467 734 457 c 128,-1,3
 715 447 715 447 690 440.5 c 128,-1,4
 665 434 665 434 636 429 c 1,5,-1
 41 429 l 1,6,-1
 41 544 l 2,7,8
 41 575 41 575 60 590.5 c 128,-1,9
 79 606 79 606 102.5 612.5 c 128,-1,10
 126 619 126 619 146.5 619.5 c 128,-1,11
 167 620 167 620 171 620 c 0,12,13
 178 621 178 621 189 621 c 128,-1,14
 200 621 200 621 214 621 c 2,15,-1
 774 621 l 1,16,-1
 774 515 l 2,0,1
EndSplineSet
EndChar

StartChar: registered
Encoding: 174 174 131
Width: 1625
GlyphClass: 2
Flags: W
LayerCount: 2
Fore
SplineSet
673 369 m 0,0,1
 653 369 653 369 605 367.5 c 128,-1,2
 557 366 557 366 479 364 c 1,3,-1
 479 450 l 1,4,-1
 560 450 l 1,5,6
 563 462 563 462 563 494 c 2,7,-1
 563 914 l 2,8,9
 563 944 563 944 560 956 c 1,10,-1
 461 956 l 1,11,-1
 461 1037 l 1,12,13
 539 1041 539 1041 619 1043 c 128,-1,14
 699 1045 699 1045 787 1045 c 0,15,16
 852 1045 852 1045 910.5 1037.5 c 128,-1,17
 969 1030 969 1030 1013 1008.5 c 128,-1,18
 1057 987 1057 987 1083 948.5 c 128,-1,19
 1109 910 1109 910 1109 848 c 0,20,21
 1109 813 1109 813 1095.5 784 c 128,-1,22
 1082 755 1082 755 1058.5 733 c 128,-1,23
 1035 711 1035 711 1003.5 696 c 128,-1,24
 972 681 972 681 936 674 c 1,25,26
 1011 647 1011 647 1056 599.5 c 128,-1,27
 1101 552 1101 552 1123 471 c 1,28,-1
 1197 478 l 1,29,-1
 1204 402 l 1,30,31
 1192 391 1192 391 1174.5 382.5 c 128,-1,32
 1157 374 1157 374 1136 367.5 c 128,-1,33
 1115 361 1115 361 1092.5 357.5 c 128,-1,34
 1070 354 1070 354 1048 354 c 0,35,36
 961 354 961 354 936 429 c 1,37,38
 911 498 911 498 883 554.5 c 128,-1,39
 855 611 855 611 823 656 c 1,40,-1
 771 656 l 1,41,-1
 771 494 l 2,42,43
 771 463 771 463 774 450 c 1,44,-1
 841 450 l 1,45,-1
 841 364 l 1,46,-1
 750 368 l 2,47,48
 730 369 730 369 711 369 c 128,-1,49
 692 369 692 369 673 369 c 0,0,1
813 1244 m 0,50,51
 691 1244 691 1244 594 1201 c 128,-1,52
 497 1158 497 1158 429.5 1083.5 c 128,-1,53
 362 1009 362 1009 326 908 c 128,-1,54
 290 807 290 807 290 692 c 0,55,56
 290 572 290 572 327.5 472 c 128,-1,57
 365 372 365 372 434 299.5 c 128,-1,58
 503 227 503 227 599.5 186.5 c 128,-1,59
 696 146 696 146 813 146 c 0,60,61
 947 146 947 146 1047 192 c 128,-1,62
 1147 238 1147 238 1213 314.5 c 128,-1,63
 1279 391 1279 391 1312 489.5 c 128,-1,64
 1345 588 1345 588 1345 692 c 0,65,66
 1345 815 1345 815 1305 916.5 c 128,-1,67
 1265 1018 1265 1018 1194 1090.5 c 128,-1,68
 1123 1163 1123 1163 1025.5 1203.5 c 128,-1,69
 928 1244 928 1244 813 1244 c 0,50,51
813 -22 m 0,70,71
 647 -22 647 -22 513.5 32.5 c 128,-1,72
 380 87 380 87 286 182.5 c 128,-1,73
 192 278 192 278 141.5 408.5 c 128,-1,74
 91 539 91 539 91 691 c 0,75,76
 91 834 91 834 139 964.5 c 128,-1,77
 187 1095 187 1095 279 1194.5 c 128,-1,78
 371 1294 371 1294 505.5 1353 c 128,-1,79
 640 1412 640 1412 813 1412 c 0,80,81
 985 1412 985 1412 1119.5 1353.5 c 128,-1,82
 1254 1295 1254 1295 1346 1196 c 128,-1,83
 1438 1097 1438 1097 1486 966.5 c 128,-1,84
 1534 836 1534 836 1534 691 c 0,85,86
 1534 402 1534 402 1354 200 c 0,87,88
 1156 -22 1156 -22 813 -22 c 0,70,71
898 844 m 0,89,90
 898 906 898 906 873 931 c 128,-1,91
 848 956 848 956 786 956 c 2,92,-1
 771 956 l 1,93,-1
 771 726 l 1,94,-1
 796 726 l 2,95,96
 898 726 898 726 898 844 c 0,89,90
EndSplineSet
EndChar

StartChar: macron
Encoding: 175 175 132
Width: 1102
GlyphClass: 2
Flags: W
LayerCount: 2
Fore
SplineSet
172 1345 m 1,0,-1
 930 1345 l 1,1,-1
 930 1176 l 1,2,-1
 172 1176 l 1,3,-1
 172 1345 l 1,0,-1
EndSplineSet
EndChar

StartChar: degree
Encoding: 176 176 133
Width: 567
GlyphClass: 2
Flags: W
LayerCount: 2
Fore
SplineSet
164 1226 m 0,0,1
 164 1172 164 1172 196.5 1141 c 128,-1,2
 229 1110 229 1110 283 1110 c 256,3,4
 337 1110 337 1110 369.5 1141 c 128,-1,5
 402 1172 402 1172 402 1226 c 0,6,7
 402 1277 402 1277 369.5 1308 c 128,-1,8
 337 1339 337 1339 283 1339 c 256,9,10
 229 1339 229 1339 196.5 1308 c 128,-1,11
 164 1277 164 1277 164 1226 c 0,0,1
283 1037 m 256,12,13
 238 1037 238 1037 200.5 1050 c 128,-1,14
 163 1063 163 1063 136 1087.5 c 128,-1,15
 109 1112 109 1112 94 1147 c 128,-1,16
 79 1182 79 1182 79 1226 c 0,17,18
 79 1269 79 1269 94.5 1303 c 128,-1,19
 110 1337 110 1337 137 1361 c 128,-1,20
 164 1385 164 1385 201.5 1398 c 128,-1,21
 239 1411 239 1411 283 1411 c 256,22,23
 327 1411 327 1411 364.5 1398 c 128,-1,24
 402 1385 402 1385 429 1361 c 128,-1,25
 456 1337 456 1337 471.5 1303 c 128,-1,26
 487 1269 487 1269 487 1226 c 256,27,28
 487 1183 487 1183 472 1148 c 128,-1,29
 457 1113 457 1113 430 1088.5 c 128,-1,30
 403 1064 403 1064 365.5 1050.5 c 128,-1,31
 328 1037 328 1037 283 1037 c 256,12,13
EndSplineSet
EndChar

StartChar: plusminus
Encoding: 177 177 134
Width: 1139
GlyphClass: 2
Flags: W
LayerCount: 2
Fore
SplineSet
1032 130 m 2,0,1
 1032 82 1032 82 996 57 c 128,-1,2
 960 32 960 32 905 32 c 2,3,-1
 107 32 l 1,4,-1
 107 121 l 2,5,6
 107 156 107 156 117 175.5 c 128,-1,7
 127 195 127 195 149 205 c 128,-1,8
 171 215 171 215 206 217 c 128,-1,9
 241 219 241 219 292 219 c 2,10,-1
 1032 219 l 1,11,-1
 1032 130 l 2,0,1
477 1153 m 2,12,13
 556 1153 556 1153 601 1136.5 c 128,-1,14
 646 1120 646 1120 660 1075 c 1,15,-1
 660 857 l 1,16,-1
 929 857 l 1,17,-1
 929 767 l 1,18,19
 926 740 926 740 919.5 721.5 c 128,-1,20
 913 703 913 703 898 691.5 c 128,-1,21
 883 680 883 680 858.5 674.5 c 128,-1,22
 834 669 834 669 795 669 c 2,23,-1
 660 669 l 1,24,-1
 660 371 l 1,25,-1
 545 371 l 1,26,27
 524 372 524 372 502.5 374 c 128,-1,28
 481 376 481 376 462.5 382 c 128,-1,29
 444 388 444 388 431.5 399 c 128,-1,30
 419 410 419 410 418 430 c 1,31,32
 415 451 415 451 415 479 c 2,33,-1
 415 669 l 1,34,-1
 148 669 l 1,35,-1
 148 759 l 2,36,37
 148 795 148 795 160.5 815 c 128,-1,38
 173 835 173 835 195.5 844.5 c 128,-1,39
 218 854 218 854 248 855.5 c 128,-1,40
 278 857 278 857 313 857 c 2,41,-1
 415 857 l 1,42,-1
 415 1153 l 1,43,-1
 477 1153 l 2,12,13
EndSplineSet
EndChar

StartChar: twosuperior
Encoding: 178 178 135
Width: 846
GlyphClass: 2
Flags: W
LayerCount: 2
Fore
SplineSet
501 1178 m 1,0,1
 501 1236 501 1236 478.5 1271.5 c 128,-1,2
 456 1307 456 1307 408 1307 c 0,3,4
 380 1307 380 1307 356 1292.5 c 128,-1,5
 332 1278 332 1278 311.5 1252.5 c 128,-1,6
 291 1227 291 1227 275 1191.5 c 128,-1,7
 259 1156 259 1156 247 1114 c 1,8,-1
 69 1230 l 1,9,10
 69 1269 69 1269 95.5 1302 c 128,-1,11
 122 1335 122 1335 169 1359.5 c 128,-1,12
 216 1384 216 1384 279.5 1398 c 128,-1,13
 343 1412 343 1412 417 1412 c 0,14,15
 496 1412 496 1412 558.5 1397 c 128,-1,16
 621 1382 621 1382 664 1350.5 c 128,-1,17
 707 1319 707 1319 730 1270 c 128,-1,18
 753 1221 753 1221 753 1154 c 0,19,20
 753 1086 753 1086 717 1023 c 128,-1,21
 681 960 681 960 622 901.5 c 128,-1,22
 563 843 563 843 487.5 789 c 128,-1,23
 412 735 412 735 333 685 c 1,24,-1
 521 685 l 2,25,26
 547 685 547 685 595 694 c 1,27,28
 612 722 612 722 630 754 c 128,-1,29
 648 786 648 786 665 823 c 1,30,-1
 778 812 l 1,31,-1
 778 530 l 1,32,33
 736 526 736 526 680 524 c 128,-1,34
 624 522 624 522 546 522 c 2,35,-1
 148 522 l 2,36,37
 99 522 99 522 81.5 539 c 128,-1,38
 64 556 64 556 64 601 c 0,39,40
 64 609 64 609 64.5 618.5 c 128,-1,41
 65 628 65 628 66 639 c 1,42,43
 171 733 171 733 244.5 802.5 c 128,-1,44
 318 872 318 872 366 920.5 c 128,-1,45
 414 969 414 969 440 1000.5 c 128,-1,46
 466 1032 466 1032 475 1051 c 0,47,48
 486 1074 486 1074 493 1107.5 c 128,-1,49
 500 1141 500 1141 501 1178 c 1,0,1
EndSplineSet
EndChar

StartChar: threesuperior
Encoding: 179 179 136
Width: 823
GlyphClass: 2
Flags: W
LayerCount: 2
Fore
SplineSet
64 1245 m 1,0,1
 114 1330 114 1330 192 1371 c 128,-1,2
 270 1412 270 1412 394 1412 c 0,3,4
 459 1412 459 1412 518.5 1399 c 128,-1,5
 578 1386 578 1386 623 1361 c 128,-1,6
 668 1336 668 1336 695 1299 c 128,-1,7
 722 1262 722 1262 722 1214 c 0,8,9
 722 1120 722 1120 670 1070.5 c 128,-1,10
 618 1021 618 1021 524 1002 c 1,11,12
 576 994 576 994 618.5 975 c 128,-1,13
 661 956 661 956 691 925 c 128,-1,14
 721 894 721 894 737.5 852 c 128,-1,15
 754 810 754 810 754 757 c 0,16,17
 754 684 754 684 721 635 c 128,-1,18
 688 586 688 586 636 556.5 c 128,-1,19
 584 527 584 527 520.5 514.5 c 128,-1,20
 457 502 457 502 397 502 c 0,21,22
 239 502 239 502 88 573 c 1,23,-1
 88 794 l 1,24,-1
 220 782 l 1,25,26
 238 704 238 704 271.5 660 c 128,-1,27
 305 616 305 616 369 616 c 0,28,29
 432 616 432 616 464.5 656 c 128,-1,30
 497 696 497 696 497 763 c 0,31,32
 497 925 497 925 323 925 c 2,33,-1
 228 925 l 1,34,-1
 228 1030 l 1,35,-1
 306 1030 l 2,36,37
 360 1030 360 1030 399 1043 c 128,-1,38
 438 1056 438 1056 463.5 1077.5 c 128,-1,39
 489 1099 489 1099 501.5 1126 c 128,-1,40
 514 1153 514 1153 514 1180 c 0,41,42
 514 1234 514 1234 480 1263.5 c 128,-1,43
 446 1293 446 1293 395 1293 c 0,44,45
 368 1293 368 1293 341.5 1283.5 c 128,-1,46
 315 1274 315 1274 291.5 1255 c 128,-1,47
 268 1236 268 1236 250 1207 c 128,-1,48
 232 1178 232 1178 222 1140 c 1,49,-1
 64 1245 l 1,0,1
EndSplineSet
EndChar

StartChar: acute
Encoding: 180 180 137
Width: 1075
GlyphClass: 2
Flags: W
LayerCount: 2
Fore
SplineSet
264 1113 m 1,0,-1
 414 1482 l 1,1,-1
 809 1482 l 1,2,-1
 499 1113 l 1,3,-1
 264 1113 l 1,0,-1
EndSplineSet
EndChar

StartChar: mu
Encoding: 181 181 138
Width: 1564
GlyphClass: 2
Flags: W
LayerCount: 2
Fore
SplineSet
133 950 m 1,0,1
 332 994 332 994 493 994 c 0,2,3
 593 994 593 994 650 970.5 c 128,-1,4
 707 947 707 947 707 899 c 2,5,-1
 707 278 l 1,6,7
 708 258 708 258 710 235.5 c 128,-1,8
 712 213 712 213 718 194 c 128,-1,9
 724 175 724 175 735.5 162.5 c 128,-1,10
 747 150 747 150 768 150 c 256,11,12
 789 150 789 150 812.5 157 c 128,-1,13
 836 164 836 164 859.5 174.5 c 128,-1,14
 883 185 883 185 903 198.5 c 128,-1,15
 923 212 923 212 937 226 c 1,16,17
 940 265 940 265 940.5 302 c 128,-1,18
 941 339 941 339 941 374 c 2,19,-1
 941 824 l 1,20,-1
 808 824 l 1,21,-1
 797 950 l 1,22,23
 990 994 990 994 1152 994 c 0,24,25
 1195 994 1195 994 1233 988.5 c 128,-1,26
 1271 983 1271 983 1299.5 971.5 c 128,-1,27
 1328 960 1328 960 1344.5 942 c 128,-1,28
 1361 924 1361 924 1361 899 c 2,29,-1
 1361 272 l 2,30,31
 1361 181 1361 181 1369 147 c 1,32,-1
 1521 147 l 1,33,-1
 1521 35 l 1,34,35
 1319 -11 1319 -11 1148 -11 c 0,36,37
 1101 -11 1101 -11 1064 -7.5 c 128,-1,38
 1027 -4 1027 -4 1001.5 8 c 128,-1,39
 976 20 976 20 961.5 44 c 128,-1,40
 947 68 947 68 945 109 c 1,41,42
 798 -6 798 -6 646 -20 c 1,43,-1
 646 -72 l 2,44,45
 646 -167 646 -167 691 -217.5 c 128,-1,46
 736 -268 736 -268 822 -294 c 1,47,48
 824 -324 824 -324 825.5 -340 c 128,-1,49
 827 -356 827 -356 827 -358 c 2,50,-1
 827 -367 l 1,51,52
 704 -454 704 -454 548 -454 c 0,53,54
 424 -454 424 -454 356 -409.5 c 128,-1,55
 288 -365 288 -365 288 -261 c 2,56,-1
 288 824 l 1,57,-1
 146 824 l 1,58,-1
 133 950 l 1,0,1
EndSplineSet
EndChar

StartChar: paragraph
Encoding: 182 182 139
Width: 1174
GlyphClass: 2
Flags: W
LayerCount: 2
Fore
SplineSet
66 1004 m 0,0,1
 66 1084 66 1084 87 1143.5 c 128,-1,2
 108 1203 108 1203 146 1246 c 128,-1,3
 184 1289 184 1289 236.5 1316 c 128,-1,4
 289 1343 289 1343 353 1359 c 128,-1,5
 417 1375 417 1375 489.5 1381 c 128,-1,6
 562 1387 562 1387 639 1387 c 2,7,-1
 781 1387 l 2,8,9
 1022 1387 1022 1387 1108 1372 c 1,10,-1
 1108 1272 l 1,11,-1
 1016 1272 l 2,12,13
 944 1272 944 1272 913 1261 c 1,14,15
 898 1217 898 1217 898 1141 c 2,16,-1
 898 64 l 2,17,18
 898 -13 898 -13 914 -57 c 1,19,20
 942 -66 942 -66 1017 -66 c 2,21,-1
 1106 -66 l 1,22,-1
 1106 -202 l 1,23,24
 1009 -192 1009 -192 923 -187.5 c 128,-1,25
 837 -183 837 -183 758 -183 c 1,26,-1
 758 1311 l 1,27,-1
 604 1311 l 1,28,-1
 604 -183 l 1,29,30
 525 -183 525 -183 439 -187.5 c 128,-1,31
 353 -192 353 -192 256 -202 c 1,32,-1
 256 -66 l 1,33,-1
 345 -66 l 2,34,35
 419 -66 419 -66 448 -57 c 1,36,37
 464 -13 464 -13 464 64 c 2,38,-1
 464 595 l 1,39,40
 264 595 264 595 165 698.5 c 128,-1,41
 66 802 66 802 66 1004 c 0,0,1
EndSplineSet
EndChar

StartChar: periodcentered
Encoding: 183 183 140
Width: 631
GlyphClass: 2
Flags: W
LayerCount: 2
Fore
SplineSet
515 579 m 0,0,1
 515 535 515 535 501 499.5 c 128,-1,2
 487 464 487 464 460.5 439.5 c 128,-1,3
 434 415 434 415 397 401.5 c 128,-1,4
 360 388 360 388 315 388 c 256,5,6
 270 388 270 388 233 401.5 c 128,-1,7
 196 415 196 415 169.5 439.5 c 128,-1,8
 143 464 143 464 129 499.5 c 128,-1,9
 115 535 115 535 115 579 c 0,10,11
 115 621 115 621 130 656 c 128,-1,12
 145 691 145 691 172 715.5 c 128,-1,13
 199 740 199 740 235.5 753.5 c 128,-1,14
 272 767 272 767 315 767 c 0,15,16
 361 767 361 767 398.5 752 c 128,-1,17
 436 737 436 737 461.5 711 c 128,-1,18
 487 685 487 685 501 651 c 128,-1,19
 515 617 515 617 515 579 c 0,0,1
EndSplineSet
EndChar

StartChar: cedilla
Encoding: 184 184 141
Width: 611
GlyphClass: 2
Flags: W
LayerCount: 2
Fore
SplineSet
522 -272 m 0,0,1
 522 -384 522 -384 453.5 -441 c 128,-1,2
 385 -498 385 -498 264 -498 c 0,3,4
 152 -498 152 -498 87 -457 c 1,5,-1
 87 -366 l 1,6,7
 166 -390 166 -390 221 -390 c 0,8,9
 281 -390 281 -390 318 -365 c 128,-1,10
 355 -340 355 -340 355 -291 c 0,11,12
 355 -194 355 -194 255 -178 c 0,13,14
 250 -178 250 -178 218 -186 c 1,15,16
 213 -182 213 -182 203 -178 c 128,-1,17
 193 -174 193 -174 167 -163 c 1,18,-1
 252 11 l 1,19,-1
 353 11 l 1,20,-1
 297 -96 l 1,21,22
 351 -99 351 -99 393 -109.5 c 128,-1,23
 435 -120 435 -120 463.5 -140.5 c 128,-1,24
 492 -161 492 -161 507 -193.5 c 128,-1,25
 522 -226 522 -226 522 -272 c 0,0,1
EndSplineSet
EndChar

StartChar: onesuperior
Encoding: 185 185 142
Width: 675
GlyphClass: 2
Flags: W
LayerCount: 2
Fore
SplineSet
334 1399 m 0,0,1
 378 1399 378 1399 404 1396 c 128,-1,2
 430 1393 430 1393 444 1385.5 c 128,-1,3
 458 1378 458 1378 462 1365 c 128,-1,4
 466 1352 466 1352 466 1333 c 2,5,-1
 466 652 l 2,6,7
 466 645 466 645 466.5 639.5 c 128,-1,8
 467 634 467 634 468 629 c 1,9,-1
 585 629 l 1,10,-1
 585 517 l 1,11,12
 518 521 518 521 457 522.5 c 128,-1,13
 396 524 396 524 339 524 c 0,14,15
 279 524 279 524 214 522.5 c 128,-1,16
 149 521 149 521 77 517 c 1,17,-1
 77 629 l 1,18,-1
 193 629 l 1,19,20
 196 641 196 641 196 686 c 2,21,-1
 196 1276 l 2,22,23
 196 1283 196 1283 196 1288.5 c 128,-1,24
 196 1294 196 1294 195 1299 c 1,25,-1
 88 1299 l 1,26,-1
 88 1371 l 1,27,28
 222 1399 222 1399 334 1399 c 0,0,1
EndSplineSet
EndChar

StartChar: ordmasculine
Encoding: 186 186 143
Width: 989
GlyphClass: 2
Flags: W
LayerCount: 2
Fore
SplineSet
931 1031 m 0,0,1
 931 933 931 933 894 862.5 c 128,-1,2
 857 792 857 792 796.5 746 c 128,-1,3
 736 700 736 700 657.5 678 c 128,-1,4
 579 656 579 656 495 656 c 0,5,6
 398 656 398 656 317.5 682 c 128,-1,7
 237 708 237 708 179.5 757 c 128,-1,8
 122 806 122 806 90 875.5 c 128,-1,9
 58 945 58 945 58 1031 c 0,10,11
 58 1121 58 1121 91 1192 c 128,-1,12
 124 1263 124 1263 182.5 1312 c 128,-1,13
 241 1361 241 1361 321 1386.5 c 128,-1,14
 401 1412 401 1412 495 1412 c 0,15,16
 590 1412 590 1412 670 1385.5 c 128,-1,17
 750 1359 750 1359 808 1309.5 c 128,-1,18
 866 1260 866 1260 898.5 1189.5 c 128,-1,19
 931 1119 931 1119 931 1031 c 0,0,1
494 1287 m 0,20,21
 456 1287 456 1287 433 1266.5 c 128,-1,22
 410 1246 410 1246 397.5 1211.5 c 128,-1,23
 385 1177 385 1177 381 1130.5 c 128,-1,24
 377 1084 377 1084 377 1032 c 0,25,26
 377 982 377 982 381 936.5 c 128,-1,27
 385 891 385 891 398 856 c 128,-1,28
 411 821 411 821 433.5 800.5 c 128,-1,29
 456 780 456 780 494 780 c 256,30,31
 532 780 532 780 555 800.5 c 128,-1,32
 578 821 578 821 590.5 856 c 128,-1,33
 603 891 603 891 607 936.5 c 128,-1,34
 611 982 611 982 611 1032 c 0,35,36
 611 1084 611 1084 606.5 1130 c 128,-1,37
 602 1176 602 1176 589 1211 c 128,-1,38
 576 1246 576 1246 553.5 1266.5 c 128,-1,39
 531 1287 531 1287 494 1287 c 0,20,21
EndSplineSet
EndChar

StartChar: guillemotright
Encoding: 187 187 144
Width: 1046
GlyphClass: 2
Flags: W
LayerCount: 2
Fore
SplineSet
107 964 m 1,0,1
 121 974 121 974 150.5 987 c 128,-1,2
 180 1000 180 1000 226 1017 c 1,3,-1
 564 583 l 1,4,-1
 564 469 l 1,5,-1
 232 66 l 1,6,7
 168 90 168 90 123 129 c 1,8,9
 161 214 161 214 208.5 315 c 128,-1,10
 256 416 256 416 314 539 c 1,11,12
 223 711 223 711 172 815 c 128,-1,13
 121 919 121 919 107 964 c 1,0,1
481 964 m 1,14,15
 495 974 495 974 524.5 987 c 128,-1,16
 554 1000 554 1000 600 1017 c 1,17,-1
 938 583 l 1,18,-1
 938 469 l 1,19,-1
 606 66 l 1,20,21
 542 90 542 90 497 129 c 1,22,23
 535 214 535 214 582.5 315 c 128,-1,24
 630 416 630 416 688 539 c 1,25,26
 597 711 597 711 546 815 c 128,-1,27
 495 919 495 919 481 964 c 1,14,15
EndSplineSet
EndChar

StartChar: onequarter
Encoding: 188 188 145
Width: 2056
GlyphClass: 2
Flags: W
LayerCount: 2
Fore
SplineSet
1094 1331 m 2,0,1
 1101 1346 1101 1346 1109 1361 c 128,-1,2
 1117 1376 1117 1376 1129 1387 c 128,-1,3
 1141 1398 1141 1398 1158.5 1405 c 128,-1,4
 1176 1412 1176 1412 1202 1412 c 2,5,-1
 1375 1412 l 1,6,-1
 745 48 l 2,7,8
 728 12 728 12 704.5 -5 c 128,-1,9
 681 -22 681 -22 640 -22 c 2,10,-1
 469 -22 l 1,11,-1
 1094 1331 l 2,0,1
1575 364 m 1,12,-1
 1575 689 l 1,13,-1
 1372 364 l 1,14,-1
 1575 364 l 1,12,-1
1571 117 m 1,15,16
 1573 127 1573 127 1574 143 c 128,-1,17
 1575 159 1575 159 1575 181 c 2,18,-1
 1575 244 l 1,19,-1
 1236 244 l 1,20,-1
 1203 300 l 1,21,22
 1194 318 1194 318 1183.5 351.5 c 128,-1,23
 1173 385 1173 385 1173 418 c 1,24,-1
 1551 972 l 1,25,-1
 1726 972 l 2,26,27
 1748 972 1748 972 1769 971 c 128,-1,28
 1790 970 1790 970 1807 963.5 c 128,-1,29
 1824 957 1824 957 1834.5 943 c 128,-1,30
 1845 929 1845 929 1845 903 c 2,31,-1
 1845 364 l 1,32,-1
 2024 364 l 1,33,-1
 2024 311 l 2,34,35
 2024 286 2024 286 2015.5 272.5 c 128,-1,36
 2007 259 2007 259 1992 252.5 c 128,-1,37
 1977 246 1977 246 1957 245 c 128,-1,38
 1937 244 1937 244 1915 244 c 2,39,-1
 1845 244 l 1,40,-1
 1845 181 l 2,41,42
 1845 159 1845 159 1846 143 c 128,-1,43
 1847 127 1847 127 1849 117 c 1,44,-1
 1980 117 l 1,45,-1
 1980 -8 l 1,46,47
 1899 -4 1899 -4 1834 -2 c 128,-1,48
 1769 0 1769 0 1718 0 c 256,49,50
 1667 0 1667 0 1595 -2 c 128,-1,51
 1523 -4 1523 -4 1426 -8 c 1,52,-1
 1426 117 l 1,53,-1
 1571 117 l 1,15,16
266 1399 m 0,54,55
 310 1399 310 1399 336 1396 c 128,-1,56
 362 1393 362 1393 376 1385.5 c 128,-1,57
 390 1378 390 1378 394 1365 c 128,-1,58
 398 1352 398 1352 398 1333 c 2,59,-1
 398 652 l 2,60,61
 398 645 398 645 398.5 639.5 c 128,-1,62
 399 634 399 634 400 629 c 1,63,-1
 517 629 l 1,64,-1
 517 517 l 1,65,66
 450 521 450 521 389 522.5 c 128,-1,67
 328 524 328 524 271 524 c 0,68,69
 211 524 211 524 146 522.5 c 128,-1,70
 81 521 81 521 9 517 c 1,71,-1
 9 629 l 1,72,-1
 125 629 l 1,73,74
 128 641 128 641 128 686 c 2,75,-1
 128 1276 l 2,76,77
 128 1283 128 1283 128 1288.5 c 128,-1,78
 128 1294 128 1294 127 1299 c 1,79,-1
 20 1299 l 1,80,-1
 20 1371 l 1,81,82
 154 1399 154 1399 266 1399 c 0,54,55
EndSplineSet
EndChar

StartChar: onehalf
Encoding: 189 189 146
Width: 2021
GlyphClass: 2
Flags: W
LayerCount: 2
Fore
SplineSet
1094 1331 m 2,0,1
 1101 1346 1101 1346 1109 1361 c 128,-1,2
 1117 1376 1117 1376 1129 1387 c 128,-1,3
 1141 1398 1141 1398 1158.5 1405 c 128,-1,4
 1176 1412 1176 1412 1202 1412 c 2,5,-1
 1375 1412 l 1,6,-1
 745 48 l 2,7,8
 728 12 728 12 704.5 -5 c 128,-1,9
 681 -22 681 -22 640 -22 c 2,10,-1
 469 -22 l 1,11,-1
 1094 1331 l 2,0,1
1700 656 m 1,12,13
 1700 714 1700 714 1677.5 749.5 c 128,-1,14
 1655 785 1655 785 1607 785 c 0,15,16
 1579 785 1579 785 1555 770.5 c 128,-1,17
 1531 756 1531 756 1510.5 730.5 c 128,-1,18
 1490 705 1490 705 1474 669.5 c 128,-1,19
 1458 634 1458 634 1446 592 c 1,20,-1
 1268 708 l 1,21,22
 1268 747 1268 747 1294.5 780 c 128,-1,23
 1321 813 1321 813 1368 837.5 c 128,-1,24
 1415 862 1415 862 1478.5 876 c 128,-1,25
 1542 890 1542 890 1616 890 c 0,26,27
 1695 890 1695 890 1757.5 875 c 128,-1,28
 1820 860 1820 860 1863 828.5 c 128,-1,29
 1906 797 1906 797 1929 748 c 128,-1,30
 1952 699 1952 699 1952 632 c 0,31,32
 1952 564 1952 564 1916 501 c 128,-1,33
 1880 438 1880 438 1821 379.5 c 128,-1,34
 1762 321 1762 321 1686.5 267 c 128,-1,35
 1611 213 1611 213 1532 163 c 1,36,-1
 1720 163 l 2,37,38
 1746 163 1746 163 1794 172 c 1,39,40
 1811 200 1811 200 1829 232 c 128,-1,41
 1847 264 1847 264 1864 301 c 1,42,-1
 1977 290 l 1,43,-1
 1977 8 l 1,44,45
 1935 4 1935 4 1879 2 c 128,-1,46
 1823 0 1823 0 1745 0 c 2,47,-1
 1347 0 l 2,48,49
 1300 0 1300 0 1281.5 16 c 128,-1,50
 1263 32 1263 32 1263 79 c 0,51,52
 1263 87 1263 87 1263.5 96.5 c 128,-1,53
 1264 106 1264 106 1265 117 c 1,54,55
 1370 211 1370 211 1443.5 280.5 c 128,-1,56
 1517 350 1517 350 1565 398.5 c 128,-1,57
 1613 447 1613 447 1639 478.5 c 128,-1,58
 1665 510 1665 510 1674 529 c 0,59,60
 1685 552 1685 552 1692 585.5 c 128,-1,61
 1699 619 1699 619 1700 656 c 1,12,13
266 1399 m 0,62,63
 310 1399 310 1399 336 1396 c 128,-1,64
 362 1393 362 1393 376 1385.5 c 128,-1,65
 390 1378 390 1378 394 1365 c 128,-1,66
 398 1352 398 1352 398 1333 c 2,67,-1
 398 652 l 2,68,69
 398 645 398 645 398.5 639.5 c 128,-1,70
 399 634 399 634 400 629 c 1,71,-1
 517 629 l 1,72,-1
 517 517 l 1,73,74
 450 521 450 521 389 522.5 c 128,-1,75
 328 524 328 524 271 524 c 0,76,77
 211 524 211 524 146 522.5 c 128,-1,78
 81 521 81 521 9 517 c 1,79,-1
 9 629 l 1,80,-1
 125 629 l 1,81,82
 128 641 128 641 128 686 c 2,83,-1
 128 1276 l 2,84,85
 128 1283 128 1283 128 1288.5 c 128,-1,86
 128 1294 128 1294 127 1299 c 1,87,-1
 20 1299 l 1,88,-1
 20 1371 l 1,89,90
 154 1399 154 1399 266 1399 c 0,62,63
EndSplineSet
EndChar

StartChar: threequarters
Encoding: 190 190 147
Width: 2174
GlyphClass: 2
Flags: W
LayerCount: 2
Fore
SplineSet
1247 1331 m 2,0,1
 1254 1346 1254 1346 1262 1361 c 128,-1,2
 1270 1376 1270 1376 1282 1387 c 128,-1,3
 1294 1398 1294 1398 1311.5 1405 c 128,-1,4
 1329 1412 1329 1412 1355 1412 c 2,5,-1
 1528 1412 l 1,6,-1
 898 48 l 2,7,8
 881 12 881 12 857.5 -5 c 128,-1,9
 834 -22 834 -22 793 -22 c 2,10,-1
 622 -22 l 1,11,-1
 1247 1331 l 2,0,1
514 1200 m 0,12,13
 514 1245 514 1245 480 1269 c 128,-1,14
 446 1293 446 1293 395 1293 c 0,15,16
 368 1293 368 1293 341.5 1283.5 c 128,-1,17
 315 1274 315 1274 291.5 1255 c 128,-1,18
 268 1236 268 1236 250 1207 c 128,-1,19
 232 1178 232 1178 222 1140 c 1,20,-1
 64 1245 l 1,21,22
 114 1330 114 1330 192 1371 c 128,-1,23
 270 1412 270 1412 394 1412 c 0,24,25
 459 1412 459 1412 518.5 1399 c 128,-1,26
 578 1386 578 1386 623 1361 c 128,-1,27
 668 1336 668 1336 695 1299 c 128,-1,28
 722 1262 722 1262 722 1214 c 0,29,30
 722 1120 722 1120 670 1070.5 c 128,-1,31
 618 1021 618 1021 524 1002 c 1,32,33
 576 994 576 994 618.5 975 c 128,-1,34
 661 956 661 956 691 925 c 128,-1,35
 721 894 721 894 737.5 852 c 128,-1,36
 754 810 754 810 754 757 c 0,37,38
 754 684 754 684 721 635 c 128,-1,39
 688 586 688 586 636 556.5 c 128,-1,40
 584 527 584 527 520.5 514.5 c 128,-1,41
 457 502 457 502 397 502 c 0,42,43
 239 502 239 502 88 573 c 1,44,-1
 88 794 l 1,45,-1
 220 782 l 1,46,47
 238 704 238 704 271.5 660 c 128,-1,48
 305 616 305 616 369 616 c 0,49,50
 432 616 432 616 464.5 656 c 128,-1,51
 497 696 497 696 497 763 c 0,52,53
 497 925 497 925 323 925 c 2,54,-1
 228 925 l 1,55,-1
 234 1014 l 1,56,-1
 306 1032 l 1,57,58
 345 1038 345 1038 382.5 1053.5 c 128,-1,59
 420 1069 420 1069 449 1091 c 128,-1,60
 478 1113 478 1113 496 1141 c 128,-1,61
 514 1169 514 1169 514 1200 c 0,12,13
1679 364 m 1,62,-1
 1679 619 l 1,63,-1
 1511 364 l 1,64,-1
 1679 364 l 1,62,-1
1675 117 m 1,65,66
 1677 127 1677 127 1678 143 c 128,-1,67
 1679 159 1679 159 1679 181 c 2,68,-1
 1679 244 l 1,69,-1
 1354 244 l 1,70,-1
 1321 300 l 1,71,72
 1312 318 1312 318 1301.5 351.5 c 128,-1,73
 1291 385 1291 385 1291 418 c 1,74,-1
 1669 972 l 1,75,-1
 1844 972 l 2,76,77
 1866 972 1866 972 1887 971 c 128,-1,78
 1908 970 1908 970 1925 963.5 c 128,-1,79
 1942 957 1942 957 1952.5 943 c 128,-1,80
 1963 929 1963 929 1963 903 c 2,81,-1
 1963 364 l 1,82,-1
 2142 364 l 1,83,-1
 2142 311 l 2,84,85
 2142 286 2142 286 2133.5 272.5 c 128,-1,86
 2125 259 2125 259 2110 252.5 c 128,-1,87
 2095 246 2095 246 2075 245 c 128,-1,88
 2055 244 2055 244 2033 244 c 2,89,-1
 1963 244 l 1,90,-1
 1963 181 l 2,91,92
 1963 159 1963 159 1964 143 c 128,-1,93
 1965 127 1965 127 1967 117 c 1,94,-1
 2098 117 l 1,95,-1
 2098 -8 l 1,96,97
 2017 -4 2017 -4 1952 -2 c 128,-1,98
 1887 0 1887 0 1836 0 c 256,99,100
 1785 0 1785 0 1713 -2 c 128,-1,101
 1641 -4 1641 -4 1544 -8 c 1,102,-1
 1544 117 l 1,103,-1
 1675 117 l 1,65,66
EndSplineSet
EndChar

StartChar: AE
Encoding: 198 198 155
Width: 2161
GlyphClass: 2
Flags: W
LayerCount: 2
Fore
SplineSet
1310 0 m 2,0,1
 1276 0 1276 0 1226.5 -1.5 c 128,-1,2
 1177 -3 1177 -3 1110 -5 c 2,3,-1
 949 -11 l 1,4,-1
 949 113 l 1,5,-1
 1017 122 l 2,6,7
 1043 125 1043 125 1043 146 c 0,8,9
 1043 152 1043 152 1037 173 c 2,10,-1
 967 390 l 1,11,-1
 631 390 l 1,12,-1
 591 256 l 2,13,14
 583 229 583 229 580 208.5 c 128,-1,15
 577 188 577 188 577 177 c 0,16,17
 577 159 577 159 586 148 c 128,-1,18
 595 137 595 137 609.5 131 c 128,-1,19
 624 125 624 125 641 122.5 c 128,-1,20
 658 120 658 120 674 118 c 1,21,-1
 649 -11 l 1,22,23
 594 -6 594 -6 518 -3 c 128,-1,24
 442 0 442 0 342 0 c 0,25,26
 221 0 221 0 136 -3 c 128,-1,27
 51 -6 51 -6 0 -11 c 1,28,-1
 37 122 l 1,29,-1
 63 126 l 2,30,31
 112 133 112 133 138 149 c 128,-1,32
 164 165 164 165 179 201 c 2,33,-1
 201 255 l 2,34,35
 268 421 268 421 376.5 705 c 128,-1,36
 485 989 485 989 644 1387 c 1,37,-1
 1683 1387 l 1,38,-1
 1855 1066 l 1,39,-1
 1643 1038 l 1,40,41
 1623 1077 1623 1077 1599.5 1113.5 c 128,-1,42
 1576 1150 1576 1150 1548 1185 c 1,43,44
 1411 1203 1411 1203 1329 1203 c 2,45,-1
 1112 1203 l 1,46,-1
 1268 777 l 1,47,-1
 1441 777 l 2,48,49
 1458 777 1458 777 1463.5 787.5 c 128,-1,50
 1469 798 1469 798 1469 822 c 0,51,52
 1469 855 1469 855 1460 911 c 1,53,-1
 1611 911 l 1,54,-1
 1770 476 l 1,55,56
 1756 475 1756 475 1742 475 c 128,-1,57
 1728 475 1728 475 1714 475 c 2,58,-1
 1619 475 l 1,59,60
 1577 548 1577 548 1551 583.5 c 128,-1,61
 1525 619 1525 619 1498 619 c 2,62,-1
 1325 619 l 1,63,-1
 1490 167 l 1,64,-1
 1770 167 l 2,65,66
 1852 167 1852 167 1887 180 c 1,67,68
 1886 219 1886 219 1879.5 247.5 c 128,-1,69
 1873 276 1873 276 1864 314 c 2,70,-1
 1853 361 l 1,71,72
 1922 359 1922 359 1988 359 c 128,-1,73
 2054 359 2054 359 2120 359 c 1,74,75
 2148 280 2148 280 2176 194 c 128,-1,76
 2204 108 2204 108 2233 14 c 1,77,78
 2003 -1 2003 -1 1835 -1 c 2,79,-1
 1310 0 l 2,0,1
661 543 m 1,80,-1
 924 543 l 1,81,-1
 776 949 l 1,82,-1
 661 543 l 1,80,-1
EndSplineSet
EndChar

StartChar: Eth
Encoding: 208 208 165
Width: 1678
GlyphClass: 2
Flags: W
LayerCount: 2
Fore
SplineSet
923 787 m 1,0,-1
 923 708 l 2,1,2
 923 695 923 695 917 680 c 128,-1,3
 911 665 911 665 897.5 652 c 128,-1,4
 884 639 884 639 860.5 630.5 c 128,-1,5
 837 622 837 622 803 622 c 2,6,-1
 47 622 l 1,7,-1
 47 701 l 2,8,9
 47 727 47 727 56.5 744 c 128,-1,10
 66 761 66 761 82 770.5 c 128,-1,11
 98 780 98 780 118.5 783.5 c 128,-1,12
 139 787 139 787 162 787 c 2,13,-1
 923 787 l 1,0,-1
809 1387 m 0,14,15
 1000 1387 1000 1387 1145.5 1345.5 c 128,-1,16
 1291 1304 1291 1304 1389 1218 c 128,-1,17
 1487 1132 1487 1132 1537 999 c 128,-1,18
 1587 866 1587 866 1587 682 c 0,19,20
 1587 500 1587 500 1529 371 c 128,-1,21
 1471 242 1471 242 1365 159.5 c 128,-1,22
 1259 77 1259 77 1111 38.5 c 128,-1,23
 963 0 963 0 782 0 c 2,24,-1
 54 0 l 1,25,-1
 54 151 l 1,26,-1
 244 151 l 1,27,28
 244 151 244 151 245 161.5 c 128,-1,29
 246 172 246 172 247 189.5 c 128,-1,30
 248 207 248 207 249 230 c 128,-1,31
 250 253 250 253 250 278 c 2,32,-1
 250 1093 l 2,33,34
 250 1161 250 1161 241 1206 c 1,35,-1
 46 1206 l 1,36,-1
 46 1366 l 1,37,38
 385 1387 385 1387 809 1387 c 0,14,15
1136 689 m 0,39,40
 1136 808 1136 808 1121.5 904.5 c 128,-1,41
 1107 1001 1107 1001 1067 1069 c 128,-1,42
 1027 1137 1027 1137 956.5 1174 c 128,-1,43
 886 1211 886 1211 774 1211 c 0,44,45
 770 1211 770 1211 764.5 1211 c 128,-1,46
 759 1211 759 1211 748.5 1210.5 c 128,-1,47
 738 1210 738 1210 721.5 1210 c 128,-1,48
 705 1210 705 1210 679 1210 c 1,49,-1
 679 171 l 1,50,51
 688 170 688 170 696.5 170 c 128,-1,52
 705 170 705 170 713 170 c 0,53,54
 837 170 837 170 918.5 206 c 128,-1,55
 1000 242 1000 242 1048.5 309.5 c 128,-1,56
 1097 377 1097 377 1116.5 473 c 128,-1,57
 1136 569 1136 569 1136 689 c 0,39,40
EndSplineSet
EndChar

StartChar: multiply
Encoding: 215 215 172
Width: 1292
GlyphClass: 2
Flags: W
LayerCount: 2
Fore
SplineSet
315 1143 m 1,0,-1
 645 810 l 1,1,-1
 975 1143 l 1,2,-1
 1157 957 l 1,3,-1
 827 627 l 1,4,-1
 1157 295 l 1,5,-1
 973 115 l 1,6,-1
 645 444 l 1,7,-1
 317 115 l 1,8,-1
 133 295 l 1,9,-1
 462 627 l 1,10,-1
 133 957 l 1,11,-1
 315 1143 l 1,0,-1
EndSplineSet
EndChar

StartChar: Oslash
Encoding: 216 216 173
Width: 1643
GlyphClass: 2
Flags: W
LayerCount: 2
Fore
SplineSet
1220 1482 m 1,0,-1
 596 -55 l 2,1,2
 581 -91 581 -91 521 -91 c 2,3,-1
 447 -91 l 1,4,-1
 1068 1437 l 1,5,6
 1076 1462 1076 1462 1093.5 1472 c 128,-1,7
 1111 1482 1111 1482 1145 1482 c 2,8,-1
 1220 1482 l 1,0,-1
543 686 m 0,9,10
 543 434 543 434 612.5 300.5 c 128,-1,11
 682 167 682 167 822 167 c 0,12,13
 955 167 955 167 1028 295.5 c 128,-1,14
 1101 424 1101 424 1101 689 c 0,15,16
 1101 955 1101 955 1029 1089 c 128,-1,17
 957 1223 957 1223 822 1223 c 0,18,19
 690 1223 690 1223 616.5 1090 c 128,-1,20
 543 957 543 957 543 686 c 0,9,10
1552 689 m 0,21,22
 1552 520 1552 520 1501 388 c 128,-1,23
 1450 256 1450 256 1355 165 c 128,-1,24
 1260 74 1260 74 1125 26 c 128,-1,25
 990 -22 990 -22 822 -22 c 0,26,27
 650 -22 650 -22 514.5 27.5 c 128,-1,28
 379 77 379 77 285 169 c 128,-1,29
 191 261 191 261 141 392.5 c 128,-1,30
 91 524 91 524 91 689 c 0,31,32
 91 861 91 861 141.5 995.5 c 128,-1,33
 192 1130 192 1130 286.5 1222.5 c 128,-1,34
 381 1315 381 1315 516.5 1363.5 c 128,-1,35
 652 1412 652 1412 822 1412 c 0,36,37
 994 1412 994 1412 1129.5 1362 c 128,-1,38
 1265 1312 1265 1312 1359 1218.5 c 128,-1,39
 1453 1125 1453 1125 1502.5 991 c 128,-1,40
 1552 857 1552 857 1552 689 c 0,21,22
EndSplineSet
EndChar

StartChar: Thorn
Encoding: 222 222 179
Width: 1286
GlyphClass: 2
Flags: W
LayerCount: 2
Fore
SplineSet
1350 718 m 1,0,1
 1350 291 1350 291 701 291 c 0,2,3
 696 291 696 291 685.5 291.5 c 128,-1,4
 675 292 675 292 669 293 c 1,5,-1
 669 194 l 2,6,7
 669 176 669 176 671 164 c 128,-1,8
 673 152 673 152 675 147 c 1,9,-1
 863 147 l 1,10,-1
 863 10 l 1,11,12
 772 -3 772 -3 666.5 -9.5 c 128,-1,13
 561 -16 561 -16 435 -16 c 0,14,15
 344 -16 344 -16 248 -8.5 c 128,-1,16
 152 -1 152 -1 46 15 c 1,17,-1
 46 147 l 1,18,-1
 232 147 l 1,19,20
 238 174 238 174 238 239 c 2,21,-1
 238 1143 l 2,22,23
 238 1172 238 1172 236.5 1195 c 128,-1,24
 235 1218 235 1218 233 1235 c 1,25,-1
 46 1235 l 1,26,-1
 46 1367 l 1,27,28
 164 1383 164 1383 266 1391 c 128,-1,29
 368 1399 368 1399 465 1399 c 0,30,31
 582 1399 582 1399 681.5 1392.5 c 128,-1,32
 781 1386 781 1386 863 1373 c 1,33,-1
 863 1235 l 1,34,-1
 676 1235 l 1,35,36
 673 1222 673 1222 671.5 1196 c 128,-1,37
 670 1170 670 1170 670 1144 c 1,38,-1
 745 1144 l 2,39,40
 872 1144 872 1144 982 1124.5 c 128,-1,41
 1092 1105 1092 1105 1173 1056 c 128,-1,42
 1254 1007 1254 1007 1301 925 c 128,-1,43
 1348 843 1348 843 1350 718 c 1,0,1
913 717 m 0,44,45
 913 780 913 780 902 827.5 c 128,-1,46
 891 875 891 875 866 906.5 c 128,-1,47
 841 938 841 938 801 954 c 128,-1,48
 761 970 761 970 704 970 c 2,49,-1
 668 970 l 1,50,-1
 668 468 l 1,51,52
 673 467 673 467 677 467 c 128,-1,53
 681 467 681 467 686 467 c 2,54,-1
 705 467 l 2,55,56
 816 467 816 467 864.5 531.5 c 128,-1,57
 913 596 913 596 913 717 c 0,44,45
EndSplineSet
EndChar

StartChar: germandbls
Encoding: 223 223 180
Width: 1473
GlyphClass: 2
Flags: W
LayerCount: 2
Fore
SplineSet
794 1271 m 0,0,1
 735 1271 735 1271 699.5 1244 c 128,-1,2
 664 1217 664 1217 645 1172 c 128,-1,3
 626 1127 626 1127 620 1069 c 128,-1,4
 614 1011 614 1011 614 949 c 2,5,-1
 614 0 l 1,6,-1
 556 0 l 2,7,8
 444 0 444 0 306.5 -3 c 128,-1,9
 169 -6 169 -6 2 -11 c 1,10,-1
 2 167 l 1,11,-1
 188 167 l 1,12,13
 194 194 194 194 194 259 c 2,14,-1
 194 846 l 1,15,-1
 43 846 l 1,16,17
 43 906 43 906 63.5 931 c 128,-1,18
 84 956 84 956 139 956 c 2,19,-1
 194 956 l 1,20,21
 199 1069 199 1069 242.5 1154.5 c 128,-1,22
 286 1240 286 1240 360.5 1297 c 128,-1,23
 435 1354 435 1354 535.5 1383 c 128,-1,24
 636 1412 636 1412 755 1412 c 0,25,26
 886 1412 886 1412 988.5 1389.5 c 128,-1,27
 1091 1367 1091 1367 1161.5 1322 c 128,-1,28
 1232 1277 1232 1277 1269 1209.5 c 128,-1,29
 1306 1142 1306 1142 1306 1052 c 0,30,31
 1306 1019 1306 1019 1301 993 c 128,-1,32
 1296 967 1296 967 1285 944 c 128,-1,33
 1274 921 1274 921 1257.5 897.5 c 128,-1,34
 1241 874 1241 874 1217 844 c 1,35,36
 1157 867 1157 867 1101 867 c 0,37,38
 1050 867 1050 867 1019 844 c 128,-1,39
 988 821 988 821 988 776 c 0,40,41
 988 740 988 740 999.5 716.5 c 128,-1,42
 1011 693 1011 693 1032 677 c 128,-1,43
 1053 661 1053 661 1083 650 c 128,-1,44
 1113 639 1113 639 1149 629 c 2,45,-1
 1164 625 l 2,46,47
 1230 607 1230 607 1285.5 582 c 128,-1,48
 1341 557 1341 557 1381 520.5 c 128,-1,49
 1421 484 1421 484 1443.5 433 c 128,-1,50
 1466 382 1466 382 1466 313 c 0,51,52
 1466 223 1466 223 1426.5 159.5 c 128,-1,53
 1387 96 1387 96 1324.5 55.5 c 128,-1,54
 1262 15 1262 15 1185 -3.5 c 128,-1,55
 1108 -22 1108 -22 1033 -22 c 0,56,57
 967 -22 967 -22 884 -11.5 c 128,-1,58
 801 -1 801 -1 699 19 c 1,59,-1
 739 305 l 1,60,-1
 874 253 l 1,61,62
 883 201 883 201 915.5 168 c 128,-1,63
 948 135 948 135 997 135 c 0,64,65
 1051 135 1051 135 1082 173.5 c 128,-1,66
 1113 212 1113 212 1113 270 c 0,67,68
 1113 293 1113 293 1103.5 312.5 c 128,-1,69
 1094 332 1094 332 1073.5 352 c 128,-1,70
 1053 372 1053 372 1021.5 393.5 c 128,-1,71
 990 415 990 415 946 443 c 0,72,73
 878 486 878 486 832 522.5 c 128,-1,74
 786 559 786 559 758 595 c 128,-1,75
 730 631 730 631 718 670 c 128,-1,76
 706 709 706 709 706 759 c 0,77,78
 706 819 706 819 718.5 859.5 c 128,-1,79
 731 900 731 900 755 926 c 128,-1,80
 779 952 779 952 815.5 967.5 c 128,-1,81
 852 983 852 983 900 993 c 1,82,83
 924 1013 924 1013 940.5 1049.5 c 128,-1,84
 957 1086 957 1086 957 1128 c 0,85,86
 957 1198 957 1198 913.5 1234.5 c 128,-1,87
 870 1271 870 1271 794 1271 c 0,0,1
EndSplineSet
EndChar

StartChar: ae
Encoding: 230 230 187
Width: 1770
GlyphClass: 2
Flags: W
LayerCount: 2
Fore
SplineSet
1405 169 m 0,0,1
 1530 169 1530 169 1685 245 c 1,2,-1
 1703 95 l 1,3,4
 1539 -22 1539 -22 1279 -22 c 0,5,6
 1028 -22 1028 -22 867 94 c 1,7,8
 820 70 820 70 769.5 49 c 128,-1,9
 719 28 719 28 667 12 c 128,-1,10
 615 -4 615 -4 563 -13 c 128,-1,11
 511 -22 511 -22 462 -22 c 0,12,13
 377 -22 377 -22 306 -3 c 128,-1,14
 235 16 235 16 183.5 53 c 128,-1,15
 132 90 132 90 103 145.5 c 128,-1,16
 74 201 74 201 74 274 c 0,17,18
 74 428 74 428 219 505.5 c 128,-1,19
 364 583 364 583 660 583 c 2,20,-1
 680 583 l 1,21,-1
 680 617 l 2,22,23
 680 742 680 742 668.5 798.5 c 128,-1,24
 657 855 657 855 628 855 c 0,25,26
 570 855 570 855 496 795.5 c 128,-1,27
 422 736 422 736 341 631 c 1,28,-1
 100 785 l 1,29,30
 100 835 100 835 144.5 875.5 c 128,-1,31
 189 916 189 916 259.5 945 c 128,-1,32
 330 974 330 974 417 989.5 c 128,-1,33
 504 1005 504 1005 589 1005 c 0,34,35
 822 1005 822 1005 947 900 c 1,36,37
 1089 1005 1089 1005 1283 1005 c 0,38,39
 1386 1005 1386 1005 1472 978 c 128,-1,40
 1558 951 1558 951 1620.5 901 c 128,-1,41
 1683 851 1683 851 1718 778.5 c 128,-1,42
 1753 706 1753 706 1753 615 c 0,43,44
 1753 561 1753 561 1740.5 527 c 128,-1,45
 1728 493 1728 493 1700 474 c 128,-1,46
 1672 455 1672 455 1628.5 448.5 c 128,-1,47
 1585 442 1585 442 1522 442 c 2,48,-1
 1109 442 l 1,49,50
 1132 316 1132 316 1205 242.5 c 128,-1,51
 1278 169 1278 169 1405 169 c 0,0,1
650 464 m 2,52,53
 572 464 572 464 528.5 414 c 128,-1,54
 485 364 485 364 485 282 c 0,55,56
 485 138 485 138 599 138 c 0,57,58
 667 138 667 138 784 173 c 1,59,60
 691 287 691 287 681 460 c 1,61,-1
 680 464 l 1,62,-1
 650 464 l 2,52,53
1362 590 m 1,63,-1
 1362 608 l 2,64,65
 1362 659 1362 659 1354 702.5 c 128,-1,66
 1346 746 1346 746 1331 777.5 c 128,-1,67
 1316 809 1316 809 1293.5 827 c 128,-1,68
 1271 845 1271 845 1243 845 c 0,69,70
 1132 845 1132 845 1108 590 c 1,71,-1
 1362 590 l 1,63,-1
EndSplineSet
EndChar

StartChar: eth
Encoding: 240 240 197
Width: 1235
GlyphClass: 2
Flags: W
LayerCount: 2
Fore
SplineSet
506 1268 m 1,0,1
 386 1327 386 1327 224 1351 c 1,2,-1
 299 1481 l 1,3,4
 596 1457 596 1457 731 1400 c 1,5,-1
 992 1555 l 1,6,-1
 1117 1406 l 1,7,8
 1052 1370 1052 1370 1000.5 1339.5 c 128,-1,9
 949 1309 949 1309 916 1291 c 1,10,11
 1219 1036 1219 1036 1219 600 c 0,12,13
 1219 455 1219 455 1179.5 339 c 128,-1,14
 1140 223 1140 223 1065 142 c 128,-1,15
 990 61 990 61 881 17.5 c 128,-1,16
 772 -26 772 -26 634 -26 c 0,17,18
 505 -26 505 -26 399.5 10 c 128,-1,19
 294 46 294 46 219 112.5 c 128,-1,20
 144 179 144 179 102.5 274 c 128,-1,21
 61 369 61 369 61 487 c 0,22,23
 61 573 61 573 83.5 643.5 c 128,-1,24
 106 714 106 714 146 769 c 128,-1,25
 186 824 186 824 240 864 c 128,-1,26
 294 904 294 904 358 930.5 c 128,-1,27
 422 957 422 957 492 969.5 c 128,-1,28
 562 982 562 982 634 982 c 0,29,30
 669 982 669 982 698.5 980.5 c 128,-1,31
 728 979 728 979 751 975 c 1,32,33
 713 1085 713 1085 666 1141 c 1,34,-1
 427 1001 l 1,35,-1
 307 1154 l 1,36,-1
 506 1268 l 1,0,1
654 131 m 0,37,38
 689 131 689 131 715 159 c 128,-1,39
 741 187 741 187 758.5 239 c 128,-1,40
 776 291 776 291 784.5 364.5 c 128,-1,41
 793 438 793 438 793 530 c 0,42,43
 793 595 793 595 791 650 c 128,-1,44
 789 705 789 705 781 753 c 1,45,46
 756 796 756 796 715 812.5 c 128,-1,47
 674 829 674 829 634 829 c 0,48,49
 565 829 565 829 530 742.5 c 128,-1,50
 495 656 495 656 495 489 c 0,51,52
 495 395 495 395 502.5 327 c 128,-1,53
 510 259 510 259 528.5 215.5 c 128,-1,54
 547 172 547 172 577.5 151.5 c 128,-1,55
 608 131 608 131 654 131 c 0,37,38
EndSplineSet
EndChar

StartChar: divide
Encoding: 247 247 204
Width: 1006
GlyphClass: 2
Flags: W
LayerCount: 2
Fore
SplineSet
661 859 m 0,0,1
 661 790 661 790 619 749.5 c 128,-1,2
 577 709 577 709 505 709 c 256,3,4
 433 709 433 709 391 749.5 c 128,-1,5
 349 790 349 790 349 859 c 0,6,7
 349 892 349 892 360.5 919 c 128,-1,8
 372 946 372 946 393 965.5 c 128,-1,9
 414 985 414 985 442.5 995.5 c 128,-1,10
 471 1006 471 1006 505 1006 c 256,11,12
 539 1006 539 1006 567.5 995.5 c 128,-1,13
 596 985 596 985 617 965.5 c 128,-1,14
 638 946 638 946 649.5 919 c 128,-1,15
 661 892 661 892 661 859 c 0,0,1
657 149 m 0,16,17
 657 80 657 80 615 40 c 128,-1,18
 573 0 573 0 501 0 c 256,19,20
 429 0 429 0 387 40 c 128,-1,21
 345 80 345 80 345 149 c 0,22,23
 345 182 345 182 356.5 209 c 128,-1,24
 368 236 368 236 389 255.5 c 128,-1,25
 410 275 410 275 438.5 285.5 c 128,-1,26
 467 296 467 296 501 296 c 256,27,28
 535 296 535 296 563.5 285.5 c 128,-1,29
 592 275 592 275 613 255.5 c 128,-1,30
 634 236 634 236 645.5 209 c 128,-1,31
 657 182 657 182 657 149 c 0,16,17
899 515 m 2,32,33
 899 473 899 473 879.5 444 c 128,-1,34
 860 415 860 415 823 415 c 2,35,-1
 107 415 l 1,36,-1
 107 506 l 2,37,38
 107 532 107 532 112.5 548.5 c 128,-1,39
 118 565 118 565 131 574 c 128,-1,40
 144 583 144 583 164 586.5 c 128,-1,41
 184 590 184 590 214 590 c 2,42,-1
 899 590 l 1,43,-1
 899 515 l 2,32,33
EndSplineSet
EndChar

StartChar: oslash
Encoding: 248 248 205
Width: 1340
GlyphClass: 2
Flags: W
LayerCount: 2
Fore
SplineSet
987 1115 m 1,0,-1
 533 -95 l 2,1,2
 519 -131 519 -131 458 -131 c 2,3,-1
 384 -131 l 1,4,-1
 835 1070 l 2,5,6
 844 1094 844 1094 861 1104.5 c 128,-1,7
 878 1115 878 1115 912 1115 c 2,8,-1
 987 1115 l 1,0,-1
1263 488 m 0,9,10
 1263 354 1263 354 1212.5 258 c 128,-1,11
 1162 162 1162 162 1079.5 99.5 c 128,-1,12
 997 37 997 37 890 7.5 c 128,-1,13
 783 -22 783 -22 671 -22 c 0,14,15
 540 -22 540 -22 430.5 13.5 c 128,-1,16
 321 49 321 49 242.5 115 c 128,-1,17
 164 181 164 181 120.5 275.5 c 128,-1,18
 77 370 77 370 77 488 c 0,19,20
 77 623 77 623 127.5 720.5 c 128,-1,21
 178 818 178 818 261.5 881.5 c 128,-1,22
 345 945 345 945 451.5 975 c 128,-1,23
 558 1005 558 1005 671 1005 c 0,24,25
 802 1005 802 1005 911 969 c 128,-1,26
 1020 933 1020 933 1098 865.5 c 128,-1,27
 1176 798 1176 798 1219.5 702.5 c 128,-1,28
 1263 607 1263 607 1263 488 c 0,9,10
511 489 m 0,29,30
 511 315 511 315 549.5 231 c 128,-1,31
 588 147 588 147 670 147 c 0,32,33
 756 147 756 147 792.5 234.5 c 128,-1,34
 829 322 829 322 829 489 c 0,35,36
 829 667 829 667 790.5 751.5 c 128,-1,37
 752 836 752 836 670 836 c 0,38,39
 585 836 585 836 548 751 c 128,-1,40
 511 666 511 666 511 489 c 0,29,30
EndSplineSet
EndChar

StartChar: thorn
Encoding: 254 254 211
Width: 1306
GlyphClass: 2
Flags: W
LayerCount: 2
Fore
SplineSet
594 937 m 1,0,1
 735 1005 735 1005 864 1005 c 0,2,3
 976 1005 976 1005 1058.5 962.5 c 128,-1,4
 1141 920 1141 920 1195.5 850.5 c 128,-1,5
 1250 781 1250 781 1277 692 c 128,-1,6
 1304 603 1304 603 1304 509 c 0,7,8
 1304 377 1304 377 1256.5 279 c 128,-1,9
 1209 181 1209 181 1129.5 116.5 c 128,-1,10
 1050 52 1050 52 947 20.5 c 128,-1,11
 844 -11 844 -11 732 -11 c 0,12,13
 706 -11 706 -11 671 -10 c 128,-1,14
 636 -9 636 -9 594 -7 c 1,15,-1
 594 -181 l 2,16,17
 594 -223 594 -223 596.5 -247 c 128,-1,18
 599 -271 599 -271 609.5 -284.5 c 128,-1,19
 620 -298 620 -298 642 -305.5 c 128,-1,20
 664 -313 664 -313 703 -323 c 1,21,-1
 714 -454 l 1,22,-1
 599 -443 l 2,23,24
 558 -439 558 -439 526.5 -436.5 c 128,-1,25
 495 -434 495 -434 469 -432.5 c 128,-1,26
 443 -431 443 -431 419 -430 c 128,-1,27
 395 -429 395 -429 368 -429 c 0,28,29
 320 -429 320 -429 243 -435 c 128,-1,30
 166 -441 166 -441 57 -454 c 1,31,-1
 63 -321 l 1,32,-1
 95 -316 l 2,33,34
 117 -313 117 -313 132.5 -308 c 128,-1,35
 148 -303 148 -303 157.5 -292.5 c 128,-1,36
 167 -282 167 -282 171 -264 c 128,-1,37
 175 -246 175 -246 175 -215 c 2,38,-1
 175 1251 l 1,39,-1
 2 1251 l 1,40,-1
 2 1364 l 1,41,42
 198 1412 198 1412 402 1412 c 2,43,-1
 462 1412 l 2,44,45
 504 1412 504 1412 529.5 1407.5 c 128,-1,46
 555 1403 555 1403 569.5 1391 c 128,-1,47
 584 1379 584 1379 589 1356.5 c 128,-1,48
 594 1334 594 1334 594 1298 c 2,49,-1
 594 937 l 1,0,1
760 836 m 0,50,51
 697 836 697 836 594 789 c 1,52,-1
 594 140 l 1,53,54
 608 138 608 138 621 138 c 128,-1,55
 634 138 634 138 648 138 c 2,56,-1
 719 138 l 2,57,58
 791 138 791 138 832 229.5 c 128,-1,59
 873 321 873 321 873 504 c 0,60,61
 873 836 873 836 760 836 c 0,50,51
EndSplineSet
EndChar

StartChar: hbar
Encoding: 295 295 213
Width: 1375
GlyphClass: 2
Flags: W
LayerCount: 2
Fore
SplineSet
388 0 m 0,0,1
 309 0 309 0 232 -3 c 128,-1,2
 155 -6 155 -6 77 -11 c 1,3,-1
 82 126 l 1,4,5
 115 131 115 131 136.5 137 c 128,-1,6
 158 143 158 143 171 157 c 128,-1,7
 184 171 184 171 189 196 c 128,-1,8
 194 221 194 221 194 265 c 2,9,-1
 194 1046 l 1,10,-1
 43 1046 l 1,11,-1
 43 1165 l 1,12,-1
 194 1165 l 1,13,-1
 194 1187 l 2,14,15
 194 1227 194 1227 191 1251 c 1,16,-1
 22 1251 l 1,17,-1
 22 1364 l 1,18,19
 218 1412 218 1412 422 1412 c 2,20,-1
 482 1412 l 2,21,22
 524 1412 524 1412 549.5 1407.5 c 128,-1,23
 575 1403 575 1403 589.5 1391 c 128,-1,24
 604 1379 604 1379 609 1356.5 c 128,-1,25
 614 1334 614 1334 614 1298 c 2,26,-1
 614 1165 l 1,27,-1
 761 1165 l 1,28,-1
 761 1046 l 1,29,-1
 614 1046 l 1,30,-1
 614 882 l 1,31,32
 692 936 692 936 784 970.5 c 128,-1,33
 876 1005 876 1005 970 1005 c 0,34,35
 1044 1005 1044 1005 1098 980 c 128,-1,36
 1152 955 1152 955 1187 908.5 c 128,-1,37
 1222 862 1222 862 1239 795 c 128,-1,38
 1256 728 1256 728 1256 644 c 2,39,-1
 1256 248 l 2,40,41
 1256 183 1256 183 1265 147 c 1,42,-1
 1398 147 l 1,43,-1
 1411 23 l 1,44,45
 1220 -22 1220 -22 1057 -22 c 0,46,47
 831 -22 831 -22 831 85 c 0,48,49
 831 99 831 99 832 124.5 c 128,-1,50
 833 150 833 150 834 178 c 128,-1,51
 835 206 835 206 836 232 c 128,-1,52
 837 258 837 258 837 274 c 2,53,-1
 837 623 l 2,54,55
 837 651 837 651 835.5 683.5 c 128,-1,56
 834 716 834 716 826.5 744 c 128,-1,57
 819 772 819 772 803 790 c 128,-1,58
 787 808 787 808 759 808 c 0,59,60
 730 808 730 808 694.5 792.5 c 128,-1,61
 659 777 659 777 614 739 c 1,62,-1
 614 233 l 2,63,64
 614 205 614 205 618.5 187.5 c 128,-1,65
 623 170 623 170 633.5 158.5 c 128,-1,66
 644 147 644 147 662 140 c 128,-1,67
 680 133 680 133 707 127 c 1,68,-1
 718 -11 l 1,69,70
 580 -6 580 -6 498.5 -3 c 128,-1,71
 417 0 417 0 388 0 c 0,0,1
EndSplineSet
EndChar

StartChar: dotlessi
Encoding: 305 305 216
Width: 702
GlyphClass: 2
Flags: W
LayerCount: 2
Fore
SplineSet
28 950 m 1,0,1
 230 994 230 994 395 994 c 0,2,3
 501 994 501 994 560 970.5 c 128,-1,4
 619 947 619 947 619 899 c 2,5,-1
 619 239 l 2,6,7
 619 184 619 184 628 147 c 1,8,-1
 761 147 l 1,9,-1
 774 33 l 1,10,11
 581 -11 581 -11 420 -11 c 0,12,13
 314 -11 314 -11 254 15 c 128,-1,14
 194 41 194 41 194 95 c 0,15,16
 194 109 194 109 195 134.5 c 128,-1,17
 196 160 196 160 197 188 c 128,-1,18
 198 216 198 216 199 242 c 128,-1,19
 200 268 200 268 200 284 c 2,20,-1
 200 824 l 1,21,-1
 28 824 l 1,22,-1
 28 950 l 1,0,1
EndSplineSet
EndChar

StartChar: kgreenlandic
Encoding: 312 312 222
Width: 1389
GlyphClass: 2
Flags: W
LayerCount: 2
Fore
SplineSet
28 946 m 1,0,1
 142 974 142 974 254 984.5 c 128,-1,2
 366 995 366 995 484 995 c 0,3,4
 508 995 508 995 531 993.5 c 128,-1,5
 554 992 554 992 572 986.5 c 128,-1,6
 590 981 590 981 602 970 c 128,-1,7
 614 959 614 959 616 940 c 0,8,9
 619 917 619 917 619 880 c 2,10,-1
 619 629 l 1,11,-1
 836 777 l 1,12,13
 854 792 854 792 854 804 c 0,14,15
 854 835 854 835 764 835 c 1,16,-1
 764 983 l 1,17,-1
 1397 983 l 1,18,-1
 1397 824 l 1,19,20
 1347 824 1347 824 1308.5 817 c 128,-1,21
 1270 810 1270 810 1236.5 796 c 128,-1,22
 1203 782 1203 782 1170.5 760.5 c 128,-1,23
 1138 739 1138 739 1099 711 c 2,24,-1
 952 603 l 1,25,-1
 1222 189 l 2,26,27
 1237 166 1237 166 1251 152 c 128,-1,28
 1265 138 1265 138 1279 130.5 c 128,-1,29
 1293 123 1293 123 1306.5 120.5 c 128,-1,30
 1320 118 1320 118 1334 118 c 0,31,32
 1347 118 1347 118 1364 119 c 128,-1,33
 1381 120 1381 120 1419 120 c 1,34,-1
 1444 -11 l 1,35,36
 1380 -6 1380 -6 1297 -3 c 128,-1,37
 1214 0 1214 0 1109 0 c 0,38,39
 1050 0 1050 0 1004 -0.5 c 128,-1,40
 958 -1 958 -1 920.5 -2.5 c 128,-1,41
 883 -4 883 -4 851.5 -6 c 128,-1,42
 820 -8 820 -8 792 -11 c 1,43,-1
 787 120 l 1,44,-1
 844 120 l 1,45,-1
 651 453 l 1,46,-1
 619 433 l 1,47,-1
 619 212 l 1,48,49
 622 185 622 185 627.5 169.5 c 128,-1,50
 633 154 633 154 644.5 144 c 128,-1,51
 656 134 656 134 676 128.5 c 128,-1,52
 696 123 696 123 728 117 c 1,53,-1
 734 -11 l 1,54,55
 589 -6 589 -6 505 -3 c 128,-1,56
 421 0 421 0 393 0 c 0,57,58
 314 0 314 0 237 -3 c 128,-1,59
 160 -6 160 -6 82 -11 c 1,60,-1
 88 119 l 1,61,62
 115 124 115 124 136 127 c 128,-1,63
 157 130 157 130 171.5 139 c 128,-1,64
 186 148 186 148 193 167.5 c 128,-1,65
 200 187 200 187 200 225 c 2,66,-1
 200 769 l 2,67,68
 200 809 200 809 197 833 c 1,69,-1
 28 833 l 1,70,-1
 28 946 l 1,0,1
EndSplineSet
EndChar

StartChar: Lslash
Encoding: 321 321 225
Width: 1374
GlyphClass: 2
Flags: W
LayerCount: 2
Fore
SplineSet
1051 1084 m 1,0,-1
 1051 860 l 1,1,-1
 84 378 l 1,2,-1
 84 601 l 1,3,-1
 1051 1084 l 1,0,-1
674 1215 m 1,4,5
 667 1186 667 1186 667 1129 c 2,6,-1
 667 167 l 1,7,-1
 896 167 l 2,8,9
 932 167 932 167 955.5 180.5 c 128,-1,10
 979 194 979 194 994.5 214.5 c 128,-1,11
 1010 235 1010 235 1018.5 258.5 c 128,-1,12
 1027 282 1027 282 1033 303 c 0,13,14
 1043 338 1043 338 1056 377.5 c 128,-1,15
 1069 417 1069 417 1085 471 c 1,16,-1
 1320 439 l 1,17,-1
 1278 0 l 1,18,-1
 857 0 l 2,19,20
 555 0 555 0 368 -2 c 128,-1,21
 181 -4 181 -4 112 -12 c 1,22,-1
 112 167 l 1,23,-1
 234 167 l 1,24,25
 236 212 236 212 237 251.5 c 128,-1,26
 238 291 238 291 238 326 c 2,27,-1
 238 1129 l 2,28,29
 238 1156 238 1156 236.5 1177.5 c 128,-1,30
 235 1199 235 1199 233 1215 c 1,31,-1
 46 1215 l 1,32,-1
 46 1377 l 1,33,34
 155 1388 155 1388 251 1393.5 c 128,-1,35
 347 1399 347 1399 435 1399 c 0,36,37
 567 1399 567 1399 672 1395 c 128,-1,38
 777 1391 777 1391 861 1383 c 1,39,-1
 861 1215 l 1,40,-1
 674 1215 l 1,4,5
EndSplineSet
EndChar

StartChar: lslash
Encoding: 322 322 226
Width: 812
GlyphClass: 2
Flags: W
LayerCount: 2
Fore
SplineSet
772 1151 m 1,0,-1
 772 906 l 1,1,-1
 38 441 l 1,2,-1
 38 683 l 1,3,-1
 772 1151 l 1,0,-1
28 1366 m 1,4,5
 222 1412 222 1412 409 1412 c 0,6,7
 454 1412 454 1412 485.5 1409.5 c 128,-1,8
 517 1407 517 1407 540.5 1400.5 c 128,-1,9
 564 1394 564 1394 582.5 1381 c 128,-1,10
 601 1368 601 1368 619 1347 c 1,11,-1
 619 227 l 2,12,13
 619 166 619 166 625 145 c 1,14,-1
 784 145 l 1,15,-1
 784 34 l 1,16,17
 602 -9 602 -9 421 -9 c 0,18,19
 336 -9 336 -9 283 12.5 c 128,-1,20
 230 34 230 34 196 82 c 1,21,-1
 196 108 l 1,22,23
 198 148 198 148 199.5 191.5 c 128,-1,24
 201 235 201 235 201 283 c 2,25,-1
 201 1175 l 2,26,27
 201 1198 201 1198 200 1217.5 c 128,-1,28
 199 1237 199 1237 197 1252 c 1,29,-1
 28 1252 l 1,30,-1
 28 1366 l 1,4,5
EndSplineSet
EndChar

StartChar: OE
Encoding: 338 338 229
Width: 2248
GlyphClass: 2
Flags: W
LayerCount: 2
Fore
SplineSet
1101 -12 m 1,0,1
 1016 -17 1016 -17 946.5 -19.5 c 128,-1,2
 877 -22 877 -22 822 -22 c 0,3,4
 653 -22 653 -22 517.5 25.5 c 128,-1,5
 382 73 382 73 287.5 163.5 c 128,-1,6
 193 254 193 254 142 384 c 128,-1,7
 91 514 91 514 91 679 c 0,8,9
 91 846 91 846 142.5 976 c 128,-1,10
 194 1106 194 1106 289 1195 c 128,-1,11
 384 1284 384 1284 519 1330 c 128,-1,12
 654 1376 654 1376 822 1376 c 2,13,-1
 2168 1376 l 1,14,-1
 2223 1054 l 1,15,-1
 2000 1026 l 1,16,17
 1995 1066 1995 1066 1985 1102.5 c 128,-1,18
 1975 1139 1975 1139 1959 1173 c 1,19,20
 1833 1191 1833 1191 1747 1191 c 2,21,-1
 1530 1191 l 1,22,-1
 1530 765 l 1,23,-1
 1703 765 l 2,24,25
 1722 765 1722 765 1733 778.5 c 128,-1,26
 1744 792 1744 792 1751 812.5 c 128,-1,27
 1758 833 1758 833 1762 856 c 128,-1,28
 1766 879 1766 879 1771 899 c 1,29,-1
 1922 899 l 1,30,-1
 1922 464 l 1,31,32
 1908 463 1908 463 1894 463 c 128,-1,33
 1880 463 1880 463 1866 463 c 2,34,-1
 1771 463 l 1,35,36
 1762 506 1762 506 1754.5 534 c 128,-1,37
 1747 562 1747 562 1739 578.5 c 128,-1,38
 1731 595 1731 595 1722.5 601 c 128,-1,39
 1714 607 1714 607 1703 607 c 2,40,-1
 1530 607 l 1,41,-1
 1530 155 l 1,42,-1
 1810 155 l 2,43,44
 1892 155 1892 155 1931 168 c 1,45,46
 1938 188 1938 188 1945.5 232.5 c 128,-1,47
 1953 277 1953 277 1963 349 c 1,48,49
 1998 348 1998 348 2029.5 348 c 128,-1,50
 2061 348 2061 348 2089 348 c 0,51,52
 2138 348 2138 348 2171.5 347.5 c 128,-1,53
 2205 347 2205 347 2230 347 c 1,54,55
 2228 259 2228 259 2225 173 c 128,-1,56
 2222 87 2222 87 2217 2 c 1,57,58
 1981 -13 1981 -13 1813 -13 c 0,59,60
 1684 -13 1684 -13 1588 -13 c 128,-1,61
 1492 -13 1492 -13 1421.5 -13 c 128,-1,62
 1351 -13 1351 -13 1301.5 -13 c 128,-1,63
 1252 -13 1252 -13 1216 -13 c 128,-1,64
 1180 -13 1180 -13 1153 -12.5 c 128,-1,65
 1126 -12 1126 -12 1101 -12 c 1,0,1
543 676 m 0,66,67
 543 427 543 427 612 297 c 128,-1,68
 681 167 681 167 822 167 c 2,69,-1
 1101 167 l 1,70,-1
 1101 1187 l 1,71,-1
 822 1187 l 2,72,73
 690 1187 690 1187 616.5 1059 c 128,-1,74
 543 931 543 931 543 676 c 0,66,67
EndSplineSet
EndChar

